<svg width="654" height="679" viewBox="0 0 654 679" fill="none" xmlns="http://www.w3.org/2000/svg">
<path d="M436.8 24.1335C436.4 25.2002 434 37.3335 431.467 51.0669C429.067 64.8002 426.8 76.4002 426.4 76.6669C425.867 77.2002 418 75.0669 359.867 58.6669C341.867 53.4669 326 49.3335 324.8 49.3335C323.6 49.3335 322.667 50.1335 322.667 51.0669C322.667 52.1335 327.867 54.2669 336.4 56.5335C347.867 59.7335 392.8 72.4002 416.8 79.3335C420.667 80.4002 424 82.2669 424.533 83.3335C425.067 84.9335 416.4 134.8 408.8 173.334C407.6 178.8 405.467 190.267 404 198.667C402.533 207.067 400.667 216.934 400 220.667C399.333 224.267 397.867 232.8 396.667 239.467L394.4 251.6L387.6 252.4C373.467 253.867 365.733 261.067 366.933 271.467C367.2 274.267 366.933 275.867 366.133 275.6C364.4 275.067 363.467 268.8 364.533 264.8C364.933 263.334 367.333 259.734 370 257.067C374.933 251.867 375.867 249.334 372.8 249.334C368.133 249.334 356.933 261.067 353.867 269.334C350.8 277.334 350.4 277.734 345.867 275.734C342.267 274.134 342 273.467 342.133 267.2C342.133 260.4 344 255.867 374.267 192C378.267 183.6 386 167.067 391.333 155.334C396.667 143.6 404.133 127.467 407.867 119.467C411.6 111.467 414.533 104.667 414.267 104.534C414 104.267 408.667 114.934 402.4 128.4C396 141.734 382.667 170 372.667 191.334C352.133 234.8 347.6 244.4 343.467 254L340.4 260.667L331.867 260.4C324.8 260.267 323.733 260.534 325.6 261.867C327.067 262.934 327.467 264.134 326.533 265.467C325.6 267.067 325.333 266.934 325.333 265.067C325.333 261.2 320.133 258.667 314.133 259.467C308.267 260.4 304.4 262.667 308.667 262.667C310.667 262.667 310.8 263.067 309.6 264.267C308.667 265.2 308 268.134 308 270.8C308 274.134 307.2 276.4 305.6 277.6C302.533 279.734 299.6 284.934 300.667 286.534C301.6 288.134 295.2 295.6 292 296.667C284.933 298.934 280.8 289.067 286.933 284.8C291.067 281.867 294.667 282.134 294.667 285.2C294.667 287.067 293.6 288 291.067 288.267C287.733 288.8 287.6 288.934 289.867 290C293.067 291.334 296.533 289.334 297.067 285.6C297.333 284 299.6 280.667 302.133 278.134C305.6 274.667 306.667 272.534 306.667 268.934C306.667 258.534 294 255.467 286.4 264C284.4 266.134 282.133 268 281.333 268C279.067 268 264.267 278.534 263.467 280.8C263.067 282 262.667 285.2 262.667 288C262.667 292.267 262.133 293.2 259.333 293.867C252.933 295.467 248 308.8 252.133 312.934C253.333 314.134 253.2 315.334 251.467 317.867C248.933 321.867 248.667 328.4 251.067 330.4C251.867 331.067 253.867 332 255.333 332.267C256.8 332.534 258.133 333.467 258.133 334.4C258.267 335.2 258.4 336.667 258.533 337.467C258.533 338.134 260.4 339.334 262.4 340.134C266.4 341.467 270.667 350 268.533 352C267.867 352.534 260.533 354.267 252.133 355.867C234.667 359.2 232.267 360.267 222.8 368.8C217.467 373.6 216.267 375.334 217.6 376.267C218.933 377.334 218.8 377.467 217.067 376.934C215.867 376.534 213.867 377.334 212.533 378.8C211.333 380.134 207.733 382.8 204.667 384.534C194.267 390.667 181.333 408.267 181.333 416.267C181.333 417.6 179.2 422.934 176.533 428.134C170 440.934 168 449.067 168 464C167.867 475.867 167.733 476.534 165.867 474C161.2 468.134 147.867 438.667 145.333 428.667C143.867 422.8 142 412.267 141.067 405.334C140.267 398.4 139.2 392.267 138.667 391.6C135.867 388.4 115.6 409.6 102.933 429.067C88.2667 451.6 82.2667 470.534 82.1333 494C82 512.267 84.4 521.6 93.0667 535.867C102.533 551.467 119.333 567.6 136 576.934C139.6 578.934 142.667 581.067 142.667 581.467C142.667 582.8 126.4 586.534 114.667 588C100.933 589.734 80 589.6 69.4667 587.867C58.4 585.867 48.1333 581.467 38.8 574.4C32.1333 569.334 31.7333 569.2 34.2667 572.8C38.2667 578.267 47.8667 587.067 53.3333 590.4C64.1333 596.8 78.5333 600.4 96 601.067C115.067 601.734 125.867 600.134 152 592.534C173.333 586.4 192.267 585.067 207.067 588.667C225.067 593.067 237.2 598.534 244.267 605.467C255.333 616.267 261.333 615.867 290.667 602C312.933 591.334 322.533 589.334 339.067 591.734C350.933 593.467 365.333 598 384.4 605.867C397.6 611.334 399.067 611.334 414.267 604.267C422 600.8 445.067 585.467 445.2 583.867C445.333 583.467 440.933 581.6 435.733 579.867C427.333 577.067 423.467 576.667 408 576.667C391.067 576.8 389.333 577.067 378.8 581.067C368.133 585.067 364.533 585.6 367.467 582.667C368.133 582 373.467 579.867 379.333 577.867C394.8 572.8 414.133 572 429.2 576C435.467 577.6 442.267 579.734 444.4 580.934C447.6 582.534 449.067 582.667 451.733 581.334C456.267 579.334 454.533 577.867 441.733 573.2C436 571.2 432.133 569.467 433.067 569.467C435.733 569.334 450.667 574.534 454.133 576.934C457.067 578.8 458 578.8 465.067 576.934C482 572.134 495.6 573.067 516.267 580.134L524 582.8L532.267 578.4C537.867 575.467 545.067 569.6 554.133 560.667C565.2 549.6 568.4 545.467 573.067 536C580.533 520.667 584 506.667 584 491.467C583.867 465.2 571.467 428.134 558.4 414.934C555.333 411.867 552.533 409.334 552 409.334C551.467 409.334 550.667 413.067 550.267 417.6C548.533 433.734 544.933 446.934 538.8 459.067C535.467 465.734 532 471.334 531.2 471.6C530.267 471.867 529.467 468.134 528.933 460.8C526.933 432 514.667 409.2 496.533 400.667C489.467 397.334 489.333 397.2 489.333 391.334C489.333 384.534 487.733 383.067 476.4 379.467C472.667 378.134 469.2 376.4 468.8 375.334C467.733 372.267 454.667 366.134 452.933 367.867C450.533 370.267 449.6 369.6 448.667 364.134C447.733 358.267 445.333 355.6 441.733 356.267C439.867 356.667 439.467 357.734 439.733 361.067C440 363.467 439.6 365.334 438.8 365.334C436.4 365.334 422.933 356.134 420.8 353.067C419.6 351.467 418.667 348.8 418.8 347.334C418.8 344.8 418.933 344.8 420.933 347.734C424.133 352.267 425.333 351.334 425.333 344.4C425.333 340.4 426.667 335.467 429.333 329.867C432.667 322.8 433.333 319.734 433.467 310.4C433.6 298.667 432.133 293.467 426.4 285.867C423.333 281.734 423.333 281.067 424.267 265.2C425.733 239.734 428 170.8 427.733 160.534C427.467 145.867 425.867 173.334 424 230C423.067 257.067 422.133 279.467 421.867 279.734C421.733 280 419.733 279.2 417.467 278C411.867 275.2 412.267 276.267 419.333 282.8C424.667 287.734 432 300 432 304.134C432 304.934 429.467 302.934 426.533 299.467C423.467 296 420.667 293.6 420.267 294C419.867 294.4 420.8 296 422.267 297.734C430.8 306.934 432.933 317.6 428.133 326.534L425.733 331.067L424 323.867C422 315.467 417.2 305.334 413.867 302.534C412.667 301.467 411.867 301.2 412.133 302C412.533 302.667 414.4 306.667 416.267 310.667C420.533 320 423.067 330.934 422.4 338.667C422 344.4 421.867 344.534 420.267 341.467C419.2 339.867 417.333 332.667 415.867 325.734C413.467 313.734 410.8 305.867 410.667 310.667C410.667 314.4 414.4 337.2 415.333 338.667C415.867 339.467 416.4 342.8 416.533 346C416.8 351.067 416.533 351.734 414.933 350.267C411.867 347.734 409.6 341.334 408.533 332C407.333 321.2 406.133 317.6 401.733 313.067C399.2 310.534 397.867 307.2 397.333 302.534L396.4 295.734L404 296.267C409.067 296.667 412.933 297.867 415.867 299.867C421.333 303.867 422.4 302.8 417.6 298.267C414.8 295.467 410.933 294.134 400.8 292.134C384.533 288.8 381.6 286.8 394.533 287.734C400.4 288.134 404 287.867 404 287.067C404 286.267 399.333 285.334 393.733 284.8C377.6 283.467 369.333 278.134 369.333 268.934C369.333 256 392.267 251.067 406.933 260.8C409.867 262.667 413.733 267.2 416.267 271.6C421.2 280.267 422.8 279.2 418.533 270.134C415.467 263.467 409.733 258 403.2 255.2L399.067 253.467L405.467 219.067C409.067 200.134 412.533 180.134 413.333 174.667C415.333 161.467 426.4 98.4002 428.133 90.2669C429.2 85.8669 430.267 84.0002 431.733 84.0002C433.067 84.0002 457.6 90.6669 486.4 98.8002C532.933 112 546 114.8 541.867 110.667C541.2 110 529.6 106.4 516 102.667C495.467 96.9335 441.467 81.7335 432.933 79.2002C430.133 78.4002 430.133 78.2669 436.133 45.3335C438.267 33.0669 439.333 24.1335 438.667 23.4669C437.867 22.6669 437.2 22.9335 436.8 24.1335ZM366.267 258.4C359.6 265.334 358.667 275.734 364.4 278.4C367.067 279.6 366.933 279.734 362.4 280.667C356.533 281.734 354.667 280.8 354.667 276.8C354.667 272.534 361.067 260.4 364.933 257.334C369.867 253.467 370.4 254 366.267 258.4ZM301.2 264.534C304.133 268 302.4 275.067 298.267 277.334C294.8 279.2 294.4 279.2 292.667 276.8C290.133 273.467 292.533 270.267 296.933 271.067C301.2 271.867 300.8 269.6 296.533 268.534C292 267.334 288.933 270.534 289.067 276.267C289.2 280.4 289.067 280.534 287.2 278.134C282.667 272 287.6 262.667 295.333 262.667C297.733 262.667 300.4 263.467 301.2 264.534ZM321.333 264.667C322.133 265.734 322.533 267.734 322 269.334C320.933 272.534 316 272.934 316 269.867C316 268.534 316.8 268 318 268.534C320.267 269.334 320.8 267.334 318.667 266C316.4 264.667 313.2 268.134 313.6 271.2C313.867 273.067 315.333 274.267 318 274.934C321.467 275.734 321.333 275.734 316.667 275.6C311.867 275.334 311.333 274.934 310.933 271.6C310.133 264.8 317.467 260 321.333 264.667ZM337.6 264.934C340.4 267.467 340.667 270.8 338.4 273.067C336.133 275.334 332.933 275.067 333.867 272.667C334.8 270.267 333.2 270 330.933 272.267C329.733 273.467 329.333 272.934 329.333 269.867C329.333 263.2 333.2 260.934 337.6 264.934ZM326.133 271.467C325.6 272.667 324.933 273.467 324.667 273.067C324.267 272.667 324.267 271.334 324.8 270.134C325.333 268.934 326 268.134 326.267 268.534C326.667 268.934 326.667 270.267 326.133 271.467ZM282.667 271.2C282.667 272.4 281.733 272.8 280 272.4C278.533 272 277.733 271.2 278.133 270.534C279.2 268.667 282.667 269.2 282.667 271.2ZM284 278C285.733 279.867 286.4 281.334 285.467 281.334C284.533 281.334 282.933 283.467 281.867 286C280.667 288.8 279.067 290.667 277.6 290.667C276.267 290.667 274 291.6 272.533 292.667C266.267 296.934 261.867 286.134 267.333 280C269.467 277.6 275.2 275.2 279.467 274.8C280.267 274.667 282.267 276.134 284 278ZM328 275.467C328 276 327.067 277.067 325.867 278C323.6 279.6 324.267 285.334 326.8 285.334C327.6 285.334 327.733 284.134 327.333 282.667C326.667 280.534 327.067 280 329.2 280C333.067 280 332.667 283.734 328.667 285.6C325.867 286.8 324.933 286.667 322.667 284.667C319.333 281.6 319.333 280.667 322.667 277.334C325.2 274.8 328 273.867 328 275.467ZM345.333 278.667C347.467 280 346.4 280.4 341.733 280C340 279.867 338.667 280.4 338.667 281.2C338.667 282 339.867 282.667 341.333 282.667C344.4 282.667 344.933 285.067 342 286.134C339.6 287.067 336 284.4 336 281.734C336 280.8 337.333 279.334 339.067 278.667C342.933 277.2 342.933 277.2 345.333 278.667ZM317.733 283.067C316.533 287.467 314.667 289.334 311.333 289.334C306.267 289.334 304 287.867 304 284.667C304 281.734 306.267 280 310.133 280C311.2 280 312 280.534 312 281.334C312 282 311.067 282.667 310 282.667C308.933 282.667 308 283.2 308 284C308 286.8 312.933 285.2 314.4 281.867C316.267 277.867 318.8 278.667 317.733 283.067ZM348.8 283.734C346.667 285.734 345.467 286.4 346 285.334C347.733 282 351.067 278.667 351.867 279.334C352.267 279.734 350.8 281.734 348.8 283.734ZM376.267 283.867C379.6 286 382.8 288.4 383.2 289.2C383.733 290 386.533 291.867 389.467 293.334C394.267 295.867 394.667 296.4 394.667 301.734C394.667 307.467 394.533 307.467 390.533 306.934C387.6 306.534 385.6 307.2 383.333 309.334C378.8 313.6 378 318.8 380.667 326.8C383.6 335.334 384.4 334.667 382.4 325.2C380.533 316 382.667 310.267 388.267 309.6C393.2 309.067 397.333 311.467 397.333 315.067C397.333 316.8 398 318.8 398.933 319.734C400.133 320.934 400 321.734 398.4 322.934C397.333 323.867 395.6 325.867 394.533 327.467C393.467 328.934 390.533 332.134 387.733 334.534L382.933 338.8L381.333 333.734C379.467 328 369.333 317.334 365.733 317.334C363.467 317.467 363.467 317.6 365.867 319.334C367.333 320.4 368.267 321.467 367.867 321.867C366 323.467 360.933 325.467 360.4 324.8C360 324.4 360.4 318.667 361.333 312C362.933 300.4 362.933 299.734 360.4 296.267C357.6 292.534 356 292.267 351.333 294.134C349.2 294.934 349.467 294.267 352.667 290.4C354.933 287.734 357.6 285.467 358.667 285.467C359.733 285.334 362.533 284.134 364.667 282.8C369.867 279.467 369.2 279.334 376.267 283.867ZM353.333 286.667C352.533 288.134 351.067 289.334 349.867 289.334C348.267 289.334 348.267 288.8 349.333 286.667C350.133 285.2 351.6 284 352.8 284C354.4 284 354.4 284.534 353.333 286.667ZM339.333 289.334C341.2 289.334 343.867 290.534 345.333 292C347.867 294.534 347.867 294.534 344 293.734C339.6 292.934 334.4 295.6 332.133 299.867C330.933 301.867 332 305.067 336.667 315.067C343.333 329.067 343.867 332 340 332C338.533 332 337.333 331.334 337.333 330.534C337.333 329.467 336.8 329.467 335.467 330.534C334.133 331.6 333.333 331.734 332.667 330.667C331.6 328.934 333.067 326.667 335.467 326.667C338 326.667 337.867 326.134 333.067 317.2C325.467 302.8 318.267 299.067 305.2 302.667C300.267 304 289.333 312.534 289.333 315.067C289.333 315.867 290.933 314.934 293.067 312.934C298.133 308 305.467 305.334 313.733 305.334C321.6 305.334 322.8 306.134 330.533 317.6C334.667 323.867 334.667 323.867 331.867 325.334C329.6 326.534 329.2 327.734 329.867 330.8C330.4 333.6 330.133 334.667 328.8 334.667C327.733 334.667 324.667 338.134 321.867 342.267C319.067 346.534 315.2 351.334 313.467 353.067L310.133 356.134L308.667 350.4C307.467 345.334 306.533 344.267 300.133 341.067C290.133 336 288.667 334.267 286.133 325.467C284.933 321.334 282.8 316.534 281.333 314.934C278 311.334 278 311.067 281.733 310.134C283.467 309.734 286 307.334 287.333 304.8C288.8 302.267 291.2 299.867 292.933 299.334C294.533 298.934 297.2 296.934 298.8 294.8C301.333 291.467 302.133 291.067 307.467 291.734C311.333 292.134 314.267 291.734 316.267 290.4C318.133 289.2 321.467 288.667 324.8 289.067C328.667 289.467 330.667 288.934 332 287.334C333.6 285.334 333.867 285.334 334.933 287.2C335.6 288.4 337.6 289.334 339.333 289.334ZM280.533 294.534C280.933 295.2 280 296.134 278.267 296.667C275.867 297.467 276.267 297.734 280.933 298.534C284.133 299.067 286.933 299.867 287.467 300.4C288.933 301.734 281.6 308 278.533 308C274.8 308 270.667 304.4 270.667 301.067C270.667 296.4 278.533 291.2 280.533 294.534ZM266.933 295.334C268.133 295.867 268.667 297.6 268.267 300.667C268 303.334 268.4 306.267 269.333 307.334C271.067 309.334 270.133 312 267.733 312C266.933 312 265.2 312.934 263.867 314.134C261.867 316 261.2 316 257.6 314.134C255.467 313.067 253.333 310.667 252.8 308.8C250.933 301.067 259.867 292.667 266.933 295.334ZM348.533 297.2C348.933 297.867 346.8 298.667 343.867 299.067C340.933 299.467 337.6 300.934 336.667 302.267C334.8 304.534 334.8 304.534 334.667 301.734C334.667 300.134 335.733 298.134 337.067 297.467C339.867 295.734 347.6 295.6 348.533 297.2ZM356.4 296.934C355.467 297.2 353.867 297.2 353.067 296.934C352.133 296.534 352.8 296.267 354.667 296.267C356.533 296.267 357.2 296.534 356.4 296.934ZM359.2 302C358.667 303.067 358.133 304 357.867 304C357.6 304 357.333 303.067 357.333 302C357.333 300.934 357.867 300 358.667 300C359.333 300 359.6 300.934 359.2 302ZM349.333 302.534C349.333 303.334 348.8 304.267 348 304.667C347.333 305.067 346.667 304.534 346.667 303.467C346.667 302.267 347.333 301.334 348 301.334C348.8 301.334 349.333 301.867 349.333 302.534ZM338.667 306C337.2 307.734 337.467 308 340.133 308.267C341.867 308.267 344.4 308.4 345.733 308.267C347.333 308.134 348 309.067 348 311.734C348 313.734 349.333 319.067 350.933 323.6C352.533 328.134 353.6 332.267 353.2 332.667C352 333.734 345.333 330.534 345.333 328.8C345.333 328.134 343.2 322.8 340.533 317.067C336.4 308.4 335.867 306.4 337.333 304.667C338.267 303.467 339.333 302.934 339.733 303.334C340.133 303.6 339.6 304.8 338.667 306ZM359.467 308.267C359.067 310 358.267 315.067 357.733 319.6C357.333 324.267 356.533 328 356 328C354.933 328 350.667 313.867 350.667 310.534C350.667 309.467 352.267 307.867 354.4 307.067C359.867 304.934 360.4 305.067 359.467 308.267ZM278.533 315.334C279.467 316.267 281.867 321.734 283.867 327.467C287.333 337.867 287.333 337.867 295.867 342.667C306.8 348.8 308.667 352.4 303.6 356.8C301.467 358.534 298.933 360 297.867 360C293.867 360 289.467 353.467 285.867 342C282.667 331.867 281.733 330.134 278.4 328.8C275.467 327.734 274.667 326.534 274.667 323.334C274.667 321.067 273.733 318 272.667 316.534C271.6 315.2 270.667 313.467 270.667 312.934C270.667 311.467 276.267 313.2 278.533 315.334ZM270.4 317.6C271.333 318.534 272 321.467 272 324.134C272 328.267 272.533 329.2 276 330.667C280.133 332.4 282.267 336.934 280.8 340.8C279.6 344 276.933 342.4 273.333 335.867C271.467 332.667 268.4 328.4 266.4 326.4C264.267 324.4 262.667 322 262.667 320.934C262.667 318.8 265.333 316 267.333 316C268.133 316 269.467 316.667 270.4 317.6ZM404 323.467C404 326.534 400.667 328.8 399.2 326.534C398.8 325.734 399.467 324 400.667 322.667C402.133 321.067 402.4 320 401.467 319.334C400.667 318.934 400 317.734 400 316.934C400.133 314 404 320.4 404 323.467ZM260 320.534C260 322.4 260.667 324.267 261.333 324.667C262.133 325.067 262.667 326.4 262.667 327.467C262.667 330.267 253.467 329.467 251.6 326.4C249.333 322.934 252.533 317.334 256.667 317.334C259.333 317.334 260 318 260 320.534ZM374.267 327.334C380.8 331.867 381.6 348.934 375.867 358.267C372.133 364.267 371.6 363.2 374 355.2C376.133 348.267 376.667 337.334 375.067 337.334C374.4 337.334 373.867 339.867 373.733 343.067C373.6 346.134 372.533 351.6 371.333 355.2C370.133 358.667 369.2 364.4 369.333 367.734C369.467 371.2 369.467 375.467 369.467 377.334C369.2 380.534 369.2 380.534 367.333 378.134C364.667 374.667 364.8 363.467 367.467 355.467C368.8 351.467 369.333 346.8 368.933 343.067C368.667 339.867 368.667 336 368.933 334.534C369.6 332 369.867 332 372.133 334.134C373.6 335.334 374.667 335.867 374.667 335.067C374.667 334.4 373.467 332.667 372.133 331.467C368.8 328.534 360.267 329.334 357.733 332.8C356.133 334.934 356.267 335.334 358.667 336.267C360.933 337.067 361.2 337.734 360 339.867C357.6 344.534 358.933 353.2 362.533 356C363.067 356.4 363.067 360.534 362.667 365.334L362 374L357.733 365.734C352 354.8 351.2 349.067 354 338.8C356.533 330.134 356.933 329.6 363.333 327.2C368.933 325.067 371.067 325.067 374.267 327.334ZM400.933 336.4C402.267 348.134 393.2 360.667 386.8 355.734C380.133 350.534 380.933 345.6 390.267 335.867C394.933 330.934 398.267 328.4 399.067 329.2C399.733 329.867 400.667 333.067 400.933 336.4ZM406.8 339.734C407.867 344.667 409.6 348.4 412.667 351.734C415.067 354.534 417.467 358.534 417.867 360.934C418.4 363.2 420.8 367.2 423.2 369.6C427.2 373.734 430.267 375.467 437.733 377.867C441.067 378.934 440.533 382.667 436.133 389.734C430 399.2 425.733 400.8 400.133 402.534C383.2 403.6 377.867 403.6 377.2 402.4C375.867 400.267 373.333 385.6 373.333 380.134C373.333 376.934 374.8 374.134 378.667 369.734C381.6 366.4 384 362.667 384 361.334C384 359.6 384.933 359.2 388 359.734C397.067 361.067 404.933 349.467 403.6 336.534C402.933 330 404.133 324.667 405.067 330.267C405.333 331.6 406.133 335.867 406.8 339.734ZM268.533 332.267C270.4 334.934 270.4 335.334 268 336.934C262.4 340.8 257.067 335.2 262.4 331.2C265.467 328.8 266.267 328.934 268.533 332.267ZM365.6 334.934C364.667 335.867 364 336 364 335.2C364 334.4 364.4 333.334 364.933 332.934C365.333 332.4 366.133 332.267 366.533 332.667C366.8 333.067 366.4 334.134 365.6 334.934ZM351.733 337.067C352.4 339.2 350.533 339.067 345.2 336.8C341.6 335.334 341.333 334.8 343.467 334.4C346.667 333.734 351.067 335.067 351.733 337.067ZM329.733 342.134C326.533 345.6 324 348.934 324 349.467C324 351.467 326.533 350.8 327.867 348.267C331.467 342 331.733 341.867 333.733 344.534C335.333 346.667 335.333 347.334 333.467 349.334C332.267 350.534 329.467 354.267 327.067 357.734C322.133 364.934 317.6 366.667 312.667 363.467C309.067 361.067 308.133 357.334 311.2 357.334C312.933 357.334 317.2 352.8 326.4 341.467C328.8 338.534 331.867 336 333.2 336C334.933 336 334 337.6 329.733 342.134ZM275.067 342.134C278.267 345.867 278.533 346.8 276.933 347.467C272.4 349.2 270 347.467 269.6 342.267C269.067 336.267 270.267 336.134 275.067 342.134ZM337.333 341.334C337.333 342 338 342.667 338.8 342.667C339.467 342.667 339.733 342.134 339.333 341.334C338.933 340.534 339.467 340.4 340.667 340.8C343.867 342.134 340.8 344.4 337.467 343.334C334.667 342.534 333.6 340 336 340C336.8 340 337.333 340.534 337.333 341.334ZM349.6 343.334C348.933 346.8 348.8 346.934 346.133 345.867C344.933 345.467 344 343.867 344 342.4C344 340.534 344.8 339.867 347.067 340.267C349.2 340.534 349.867 341.467 349.6 343.334ZM366.4 344.8C366.667 346.934 366.267 350.267 365.6 352L364.267 355.334L362.8 351.467C361.067 346.934 362.133 339.6 364.4 340.4C365.333 340.667 366.133 342.667 366.4 344.8ZM291.333 359.6C293.2 361.334 296.267 362.667 298.133 362.667C301.067 362.667 301.333 363.2 301.333 368.267C301.333 381.6 316 384.267 325.2 372.534C330.533 365.734 329.333 370.267 323.867 377.467C317.733 385.734 309.6 402 305.467 414.667C303.867 419.467 302.267 424.134 302 425.2C300.933 427.867 298 424.934 294.4 417.6C288.267 405.334 269.6 389.734 257.067 386.534L251.333 385.067L262 374.267C270 366 274 360.667 277.867 352.8L282.933 342.267L285.333 349.467C286.667 353.467 289.333 358 291.333 359.6ZM347.6 349.067C348.4 349.6 349.6 353.2 350.133 356.934C350.933 363.6 350.933 363.867 347.467 364.8C339.467 366.8 332.133 360.934 333.867 354C335.067 349.2 343.333 346.267 347.6 349.067ZM274.4 353.6C274 354.534 272.4 356 270.8 356.8C268.667 357.867 268.267 358.534 269.6 359.2C270.933 359.734 270.8 359.867 269.333 359.734C266.4 359.467 262.533 361.467 263.333 362.8C263.733 363.334 265.067 363.467 266.267 363.067C268.267 362.267 268.4 362.4 266.667 364.267C264.933 366.134 264.533 366 262.667 363.467C261.6 362 260.8 360.267 261.067 359.6C261.2 359.067 260 358.667 258.4 358.667C254.533 358.667 255.733 357.867 261.333 356.8C264.133 356.4 265.333 356.4 264.133 357.2C263.067 357.867 262.933 358.667 263.733 359.2C264.4 359.6 265.733 359.067 266.667 358C267.6 356.934 267.867 356 267.2 356C265.733 355.867 272.133 352.134 273.733 352C274.4 352 274.667 352.8 274.4 353.6ZM381.333 360.534C379.867 364.534 373.2 373.334 371.733 373.334C370.533 373.334 372.933 368 377.2 360.267C380.667 354.267 383.733 354.4 381.333 360.534ZM429.867 365.6C430.533 366.134 429.333 365.867 427.067 365.067C424.667 364.134 422.133 362 421.333 360.134C419.733 356.667 419.867 356.667 424.267 360.667C426.667 362.8 429.2 365.067 429.867 365.6ZM446.4 364.267C447.733 369.334 447.333 370.134 444.533 368.267C442.667 367.067 440.933 360.267 442.133 358.534C443.333 356.534 444.933 358.534 446.4 364.267ZM256.4 359.734C257.6 360.267 254.933 360.8 250.4 360.8C244.267 360.934 243.067 360.667 246 360C251.2 358.667 253.467 358.667 256.4 359.734ZM332 360C332 360.8 333.467 362.934 335.333 364.667C339.067 368.534 347.2 369.2 350.8 365.867C352.133 364.667 353.333 364.4 353.867 365.067C354.267 365.867 352.8 368 350.533 369.867C343.2 376.134 331.6 373.734 329.067 365.6C328.8 364.534 327.2 365.867 325.333 368.934C320.8 375.867 312.533 378.934 307.467 375.6C304.8 373.867 304 372.134 304 368.8C304 360.534 305.2 359.467 309.467 364.134C312.933 367.867 314 368.267 318.4 367.6C321.733 367.067 324.4 365.467 326.667 362.8C330.133 358.534 332 357.6 332 360ZM233.733 368.534C234.267 369.867 233.867 370.267 232.667 369.734C231.6 369.334 231.067 368.534 231.467 367.867C232.4 366.267 232.933 366.4 233.733 368.534ZM256.4 367.6C255.467 367.867 253.6 367.867 252.4 367.6C251.067 367.2 251.867 366.934 254 366.934C256.267 366.934 257.2 367.2 256.4 367.6ZM256.667 370.667C256.267 371.334 253.867 371.867 251.6 371.867L247.333 371.6L252 370.667C254.533 370.134 256.8 369.6 257.067 369.467C257.333 369.467 257.067 369.867 256.667 370.667ZM358.933 373.2C360.8 376.534 360.8 377.467 359.333 378.667C356.133 381.334 347.733 394.8 345.333 401.067L343.067 406.934L340.133 400.8C337.333 395.2 332.8 390.267 328.933 388.934C327.867 388.667 327.867 386.534 329.2 381.067L330.8 373.467L335.467 375.467C341.067 377.734 348.8 376.267 352.667 372C355.867 368.534 356.267 368.667 358.933 373.2ZM458.667 371.867C460.4 375.2 460.4 385.734 458.667 384.667C458 384.267 457.333 382.134 457.333 379.867C457.333 377.734 456.133 374.8 454.8 373.467C453.333 372 452.533 370.534 453.067 370.134C454.533 368.534 457.333 369.467 458.667 371.867ZM246.267 371.467C245.867 371.867 244.667 372 243.733 371.6C242.667 371.2 243.067 370.8 244.533 370.8C246 370.667 246.8 371.067 246.267 371.467ZM223.333 374.934C222.133 375.734 220.8 375.867 220.4 375.467C219.867 375.067 220.267 374.667 221.2 374.667C222.133 374.667 222.4 374.134 222 373.334C221.467 372.534 222.133 372.4 223.467 372.934C225.467 373.734 225.467 373.867 223.333 374.934ZM238.267 372.8C237.867 373.2 236.667 373.334 235.733 372.934C234.667 372.534 235.067 372.134 236.533 372.134C238 372 238.8 372.4 238.267 372.8ZM467.733 377.334C470.533 381.6 471.467 388.267 469.867 392.534C468.4 396.267 466.667 393.334 466.667 387.334C466.667 383.734 465.6 379.6 463.733 376.534C460 370.267 463.333 370.934 467.733 377.334ZM258.533 375.067C258.267 375.334 255.2 377.734 251.867 380.4C244.8 386 242.533 386.534 243.733 382.4C244.133 380.534 244 379.867 242.933 380.534C242 381.067 241.333 382.667 241.333 384C241.333 388.534 234.667 394.534 221.333 402.134C206.933 410.267 198.667 411.867 210.4 404.267C217.467 399.734 225.333 391.334 225.333 388.4C225.333 386 220.4 388.134 211.733 394.134C197.2 404.134 193.467 409.334 192.133 421.2C191.733 425.334 190.533 428.667 189.6 429.067C188.267 429.467 188 428 188.667 422.4C190.533 407.867 191.733 405.067 201.067 395.467C206 390.534 208.8 386.934 207.333 387.734C202.667 390.134 190.933 403.2 188.8 408C187.733 410.667 186.4 417.067 186 422.4C185.067 430.934 183.6 434.8 181.867 433.067C180.533 431.6 184.267 410.934 186.8 406.134C190.267 399.2 199.067 390 206.133 385.867C214 381.2 222.533 378.934 240.667 376.534C249.467 375.334 256.933 374.134 257.2 373.867C257.467 373.6 258.133 373.6 258.4 374C258.8 374.4 258.8 374.8 258.533 375.067ZM438 374.667C438.4 375.467 437.867 375.6 436.8 375.2C434.4 374.267 434 373.334 435.867 373.334C436.667 373.334 437.6 373.867 438 374.667ZM445.6 381.067C445.333 383.067 443.867 386.267 442.533 388L439.867 391.334L442 386.934C443.067 384.667 443.733 382.667 443.333 382.667C442.933 382.667 443.2 381.467 444 380C445.867 376.4 446.267 376.667 445.6 381.067ZM451.2 378.934C450.533 380 450.933 380.134 452.4 379.6C454.133 378.934 454.667 379.467 454.8 381.734C454.933 383.334 455.2 386.267 455.467 388.4C455.6 390.534 455.333 391.734 454.533 391.2C453.867 390.8 453.6 389.2 454.133 387.6C454.933 385.067 454.8 384.934 452.8 386.534C451.6 387.6 450.667 387.734 450.667 386.934C450.667 386.134 451.333 385.067 452 384.667C452.8 384.267 453.333 383.2 453.333 382.4C453.333 381.467 452.8 381.467 451.733 382.4C450.4 383.467 450 382.934 449.867 380.534C449.733 378.8 450.133 377.334 450.933 377.334C451.6 377.334 451.733 378 451.2 378.934ZM367.333 388.934C366.933 390.667 366.933 392 367.333 392C367.733 392 368.667 390.667 369.333 388.934C370.533 386.134 370.533 386.134 370.533 389.467C370.667 391.467 369.733 393.334 368.667 393.867C367.6 394.267 366.667 395.867 366.667 397.467C366.667 399.2 365.6 401.6 364.4 402.934C362.667 404.934 362.4 406.134 363.467 409.067C364.267 411.067 365.6 412.534 366.4 412.267C367.333 412.134 368 412.534 368 413.067C368 413.734 369.467 414.934 371.2 415.734C373.067 416.534 374.267 418.134 374.267 419.6C374.133 421.067 374.8 421.867 376 421.6C377.067 421.334 377.6 421.6 376.933 422.134C375.467 423.6 370.667 423.734 370.667 422.4C370.667 421.734 368.8 421.467 366.667 422C360.267 423.334 358.4 420.934 358.933 411.734C359.067 407.2 359.867 404 360.8 404C363.6 404 365.867 397.2 365.467 389.6C365.333 387.067 365.067 386.8 363.467 388.267C362.533 389.2 362 390.934 362.267 392C362.8 393.734 362.667 393.734 361.6 392.134C360.667 390.8 360.8 389.334 362.133 387.334C363.2 385.734 363.733 383.2 363.2 381.867C362.667 380 363.067 380.134 365.2 382.667C366.933 384.8 367.733 387.067 367.333 388.934ZM476.133 383.2C477.2 385.334 477.2 387.734 476.4 390.134C474.267 396.534 472.4 395.2 472.533 387.334C472.667 379.467 473.867 378.134 476.133 383.2ZM485.333 385.334C488.133 388.134 489.067 396 486.667 396C486 396 485.333 394.534 485.333 392.667C485.333 390.667 483.867 387.867 481.867 386C479.067 383.467 478.8 382.667 480.533 382.667C481.733 382.667 483.867 383.867 485.333 385.334ZM360.667 386.534C360.267 387.334 359.2 388 358.533 388C357.867 388 358 387.2 358.933 386.134C360.8 384 362.133 384.4 360.667 386.534ZM463.6 387.6C462.533 393.334 465.067 397.334 469.867 397.334C473.067 397.334 473.467 397.734 472 398.667C470.933 399.334 468.933 399.6 467.733 399.2C465.867 398.667 465.6 399.067 466.267 400.934C466.667 402.267 466.667 402.934 466.133 402.4C465.6 402 465.067 400.8 464.8 399.734C464.267 395.734 462.533 394.4 460.267 396.267C458.667 397.467 458.667 397.067 460.533 395.067C463.067 392.134 462.933 392 459.867 390.8C456.667 389.467 456.667 389.467 459.733 389.467C461.733 389.334 462.667 388.534 462.667 386.667C462.667 385.2 463.067 384 463.467 384C464 384 464 385.6 463.6 387.6ZM359.2 391.467C359.867 393.334 359.733 393.467 358 392C355.733 390.134 355.467 389.334 357.2 389.334C357.867 389.334 358.8 390.267 359.2 391.467ZM449.333 389.867C449.333 390.134 448.4 390.8 447.2 391.2C446.133 391.6 445.6 391.467 446 390.667C446.8 389.334 449.333 388.8 449.333 389.867ZM357.867 399.734C358.267 400.4 357.733 401.867 356.533 402.8C354.8 404.267 354.533 404.134 354.933 402C355.067 400.667 354.533 399.334 353.467 398.934C352.133 398.534 351.867 399.067 352.4 401.2C352.8 402.934 352.533 403.734 351.733 403.2C350.933 402.667 350.667 403.334 351.333 405.2C351.867 406.8 351.333 409.2 350.133 410.934C347.6 414.534 347.333 416.534 349.733 415.2C351.067 414.4 351.067 414.667 349.733 416.134C348.8 417.067 348 419.734 347.867 421.867C347.867 425.467 347.6 425.6 346.667 423.334C345.6 420.8 345.467 420.8 345.467 423.6C345.333 425.334 344.667 426.667 343.867 426.667C342.933 426.667 342.667 425.334 343.2 423.2C343.733 421.2 344.533 418 344.933 415.867C345.333 413.734 346.267 412.4 347.067 412.934C347.867 413.467 348.133 412.934 347.6 411.6C346.8 409.467 351.067 396.667 353.733 393.467C354.933 392 355.467 392.4 356.133 395.067C356.667 396.934 357.467 399.067 357.867 399.734ZM374.533 406.267C376.533 412.134 379.467 419.067 380.933 421.734C383.333 425.734 383.467 426.4 381.6 426C380.267 425.734 378.8 425.467 378 425.467C377.333 425.334 377.467 424.8 378.4 424.134C379.867 423.334 379.733 422.267 377.6 418.8C376.267 416.534 374.667 415.067 374.133 415.734C373.6 416.267 373.2 416 373.333 415.334C374 412.134 373.2 409.2 371.867 410C371.067 410.534 370.8 411.867 371.333 413.067C372 414.8 371.6 414.667 369.467 412.8C366 409.6 364.667 405.6 366.533 403.467C367.333 402.534 368.133 400.134 368.267 398.134C368.8 392.267 370.8 394.8 374.533 406.267ZM442 396C441.6 396.667 440.4 397.334 439.6 397.334C438.667 397.334 438.8 396.8 440 396C442.533 394.4 443.067 394.4 442 396ZM211.333 399.334C209.2 401.067 206.8 402.534 206.133 402.667C205.333 402.667 206.8 401.2 209.333 399.334C215.2 395.067 216.533 395.067 211.333 399.334ZM442.667 400C439.467 402 437.867 401.467 440.8 399.467C442.133 398.4 443.6 397.867 444 398.134C444.267 398.534 443.733 399.334 442.667 400ZM431.067 404.534C429.733 406.267 427.733 407.734 426.667 407.6C425.6 407.467 424.533 407.867 424.533 408.667C424.4 409.334 424.933 409.867 425.733 409.6C426.667 409.334 426.533 409.867 425.6 411.067C424.4 412.4 424.4 413.334 425.733 414.667C426.533 415.734 426 415.467 424.267 414C422 412.134 420.933 411.867 419.733 413.067C418.667 414.134 418.667 415.067 419.733 416.4C420.933 417.734 420.8 418.8 419.333 420.8C417.467 423.2 417.2 423.2 415.6 421.067C414.533 419.734 413.467 419.067 413.067 419.467C412.667 419.734 412 419.2 411.467 418C411.067 416.8 411.6 415.6 412.667 415.2C413.733 414.667 414.267 413.867 413.867 413.2C413.467 412.534 413.733 412.134 414.4 412.267C415.067 412.534 417.733 410.8 420.133 408.667C422.667 406.4 425.733 404.8 426.933 405.067C428.133 405.334 430 404.267 430.933 402.8C431.867 401.334 432.8 400.4 433.067 400.667C433.333 400.934 432.533 402.667 431.067 404.534ZM436.533 402C435.867 403.467 436.267 403.867 438.133 403.2C439.6 402.667 440.267 402.667 439.867 403.2C439.333 403.734 437.733 404.267 436.133 404.667C433.733 405.067 433.467 404.8 434.667 402.534C436.4 399.467 437.6 399.067 436.533 402ZM481.333 401.867C481.333 402.134 480.4 402.8 479.2 403.2C478.133 403.6 477.6 403.467 478 402.667C478.8 401.334 481.333 400.8 481.333 401.867ZM485.333 401.867C485.333 402.267 484.8 402.934 484 403.334C483.333 403.734 482.667 403.467 482.667 402.8C482.667 402 483.333 401.334 484 401.334C484.8 401.334 485.333 401.6 485.333 401.867ZM490.267 402.134C489.867 402.534 488.667 402.667 487.733 402.267C486.667 401.867 487.067 401.467 488.533 401.467C490 401.334 490.8 401.734 490.267 402.134ZM249.067 408.667C250.667 412 251.467 414.667 250.8 414.667C248.933 414.667 245.333 410.667 245.333 408.667C245.333 407.734 244.933 406 244.533 404.8C242.667 400 246.4 403.067 249.067 408.667ZM470.667 403.2C470.667 403.467 469.733 404.134 468.533 404.534C467.467 404.934 466.933 404.8 467.333 404C468.133 402.667 470.667 402.134 470.667 403.2ZM507.867 413.867C509.067 415.334 509.067 416 507.867 416.8C506.933 417.334 506.667 417.2 507.2 416.267C508.133 414.667 503.6 411.6 502.267 412.934C501.733 413.334 500.933 412.534 500.533 411.2C500 409.867 498.667 407.467 497.467 406C496.267 404.667 497.733 405.334 500.8 407.734C503.733 410 506.933 412.8 507.867 413.867ZM412.267 408.667C407.467 412.667 396.667 423.734 393.733 428C392.667 429.467 391.333 430.667 390.667 430.667C389.733 430.667 378.667 409.6 378.667 407.734C378.667 407.2 382.933 406.667 388.267 406.4C393.467 406.134 402 405.867 407.2 405.6L416.667 405.2L412.267 408.667ZM455.6 406.134C455.2 406.534 454 406.667 453.067 406.267C452 405.867 452.4 405.467 453.867 405.467C455.333 405.334 456.133 405.734 455.6 406.134ZM440.667 409.067C440.267 409.467 439.2 409.067 438.267 408.134C437.067 406.8 437.2 406.667 439.067 407.467C440.4 407.867 441.067 408.667 440.667 409.067ZM471.333 408C473.067 408.667 473.2 409.2 472 409.2C470.933 409.2 468.8 408.667 467.333 408C465.6 407.334 465.467 406.8 466.667 406.8C467.733 406.8 469.867 407.334 471.333 408ZM455.733 409.067C456.8 409.867 455.867 410.667 452.667 411.6C447.467 413.2 446.267 412.534 451.067 410.667L454 409.467H450.933C448.8 409.334 447.467 410.267 447.067 412C446.133 415.334 444.667 415.467 444.4 412.134C444.133 408.667 451.867 406.667 455.733 409.067ZM463.6 408.8C463.2 409.2 462 409.334 461.067 408.934C460 408.534 460.4 408.134 461.867 408.134C463.333 408 464.133 408.4 463.6 408.8ZM243.333 411.734C242.933 412.134 241.867 411.734 240.933 410.8C239.733 409.467 239.867 409.334 241.733 410.134C243.067 410.534 243.733 411.334 243.333 411.734ZM439.333 421.067C436.8 423.734 434.667 426.667 434.667 427.6C434.667 428.534 434 429.334 433.2 429.334C432.533 429.334 432.267 428.667 432.667 428C433.2 427.2 432 427.334 430.133 428.267C428.267 429.067 426.667 430.267 426.667 430.934C426.667 431.467 426 432 425.067 432C424.267 432 424.533 431.067 425.733 429.6C428.667 426.267 428.533 425.334 425.2 426C423.467 426.4 422.667 426 423.067 424.934C423.333 424 424.4 423.334 425.467 423.334C426.533 423.334 427.733 422.667 428.267 422C428.8 421.2 429.333 421.734 429.333 422.934C429.333 424.4 430.4 425.334 432 425.334C433.467 425.334 434.667 424.4 434.667 423.334C434.667 422.267 435.467 421.334 436.533 421.334C437.6 421.334 438.667 420.4 439.2 419.334C439.6 418.267 439.333 417.334 438.8 417.334C438.133 417.334 437.333 418.134 436.933 418.934C436.667 419.867 435.867 420.134 435.2 419.6C433.733 418.267 437.467 415.867 439.733 416.667C440.667 417.067 441.067 416.667 440.667 415.867C440.133 415.2 440.133 413.467 440.667 412.267C441.467 410.267 441.733 410.4 442.8 413.2C443.867 415.734 443.333 417.067 439.333 421.067ZM485.333 417.334C501.067 422.667 501.067 424.8 485.333 420C475.467 416.934 469.733 416.667 460 418.8C450.133 420.934 452.933 422.4 464.267 420.934C472.933 419.867 475.2 420.134 487.333 423.334C504.933 428.134 505.6 428.534 499.067 429.067C496 429.334 488.533 428.267 482.4 426.8C473.333 424.667 470.133 424.4 464.667 425.6C454 427.734 454 429.6 464.667 428.667C471.333 428 476.267 428.267 482.133 429.867C486.667 431.067 492.533 432 495.2 432C497.867 432 500 432.534 500 433.334C500 435.067 489.6 435.067 479.467 433.2C471.067 431.6 459.333 432.934 459.333 435.334C459.333 436.134 463.2 437.067 468 437.467C476.133 438.134 488.4 442.667 490.133 445.6C491.2 447.2 486.4 445.867 480.667 442.934C478.267 441.6 473.733 440.934 468.933 441.067C462.8 441.2 460.133 442 455.333 445.334C441.2 455.067 432.533 456.934 428.133 451.2C426.267 448.8 425.333 448.267 425.333 449.734C425.333 450.8 426.8 453.6 428.667 455.734L431.867 459.6L421.2 467.334C407.067 477.6 382.267 491.6 374.133 494C366 496.4 356.533 496.667 355.733 494.267C355.333 493.467 354.933 489.334 354.8 485.2L354.533 477.734L362.267 470.667C376.267 457.867 381.6 455.067 398.133 452.134C420 448.4 428.667 442.934 439.733 426.534C442 423.2 444.8 419.734 445.867 418.667C448.267 416.8 463.067 412.267 467.333 412.134C468.8 412.134 476.933 414.4 485.333 417.334ZM492.933 415.467C492.533 415.867 491.333 416 490.4 415.6C489.333 415.2 489.733 414.8 491.2 414.8C492.667 414.667 493.467 415.067 492.933 415.467ZM506.8 421.334C507.6 421.334 507.733 421.867 507.333 422.667C506.933 423.334 505.6 424 504.533 424C503.2 424 502.8 423.067 503.467 420.667C504.133 418 503.867 417.467 502.267 418.134C501.2 418.534 499.867 418.267 499.333 417.467C498.933 416.667 499.333 416.267 500.4 416.8C501.467 417.2 502.933 416.667 503.467 415.734C504.267 414.534 504.8 415.067 505.067 417.6C505.333 419.734 506.133 421.334 506.8 421.334ZM252.533 418.8C257.733 420.267 263.467 422.934 265.067 424.4C266.8 426 270.533 432.267 273.467 438.134C277.867 447.467 280.4 450.667 290.267 459.867C298.933 467.734 301.333 470.667 299.333 470.667C297.867 470.667 295.2 469.734 293.467 468.534C291.6 467.067 286.667 466.134 280.8 465.734C266.933 464.934 266 464.534 258.133 457.467C254.133 453.867 249.733 450.534 248.133 450C246.667 449.6 241.467 450.4 236.533 451.867C227.333 454.8 221.333 455.467 221.333 453.6C221.333 451.467 241.333 446.667 250.267 446.667C260.267 446.667 264.8 444.934 261.333 442.667C257.467 440.134 244.667 438.4 236.667 439.2C214 441.6 212.667 441.6 214 440.267C216.933 437.467 239.733 434.267 251.067 435.2C258 435.734 261.333 435.6 260.133 434.8C259.067 434.134 253.067 433.2 246.8 432.667C237.067 432 233.467 432.4 222.933 435.067C216.267 436.934 210.4 437.867 210 437.334C209.733 436.8 215.467 434.667 223.067 432.667C233.867 429.867 238.933 429.2 247.733 429.6C253.733 429.734 258.667 429.6 258.667 429.2C258.667 427.2 254.133 424.934 245.333 422.667C236.133 420.267 235.6 420.267 226.933 422.8C209.733 427.734 205.733 424.8 222.4 419.467C235.067 415.334 240.4 415.2 252.533 418.8ZM407.867 420.934C406.267 422.934 406.267 423.067 408.533 422.267C410.667 421.467 410.8 421.6 409.333 423.334C407.867 425.067 407.333 425.067 406.533 423.734C405.333 421.867 404.933 423.067 404.933 428.4C404.933 429.734 404.667 430.534 404.4 430.134C404 429.734 401.6 431.867 399.2 434.8C396.667 437.867 394.667 439.867 394.667 439.467C394.667 438.134 397.867 432.8 399.6 431.334C400.533 430.667 401.333 429.2 401.6 428.134C401.867 427.067 403.467 424.534 405.2 422.4C408.667 418.4 410.933 417.067 407.867 420.934ZM433.333 420.667C433.333 421.734 432.8 422.667 432 422.667C431.333 422.667 430.667 421.734 430.667 420.667C430.667 419.6 431.333 418.667 432 418.667C432.8 418.667 433.333 419.6 433.333 420.667ZM356.8 423.6C356.4 426.267 353.867 427.334 352.667 425.334C351.6 423.6 354.4 419.734 356 420.667C356.667 421.067 356.933 422.4 356.8 423.6ZM412.133 424.934C410.533 427.6 410.267 426.8 411.467 423.334C412 422.134 412.667 421.467 412.933 421.867C413.333 422.134 412.933 423.6 412.133 424.934ZM229.333 427.334C215.733 431.2 210.4 432.134 211.467 430.534C211.867 429.867 213.2 429.334 214.4 429.334C215.6 429.334 220.267 428.134 224.667 426.667C229.067 425.334 234.533 424.134 236.667 424.134C239.067 424.134 236.267 425.467 229.333 427.334ZM510.667 427.334C512.133 429.067 512 429.2 510.133 428.534C508.933 428.134 508 427.2 508 426.534C508 424.8 508.8 425.067 510.667 427.334ZM517.6 432.8C516.8 434.4 516.4 433.734 516.4 430.667C516.4 427.6 516.8 426.934 517.6 428.534C518.267 429.734 518.267 431.6 517.6 432.8ZM344.533 430C344 431.067 343.467 432 343.2 432C342.933 432 342.667 431.067 342.667 430C342.667 428.934 343.2 428 344 428C344.667 428 344.933 428.934 344.533 430ZM387.6 436.4C384.667 441.734 381.467 445.867 380.533 445.067C379.333 443.734 383.333 438.534 384.667 439.734C385.2 440.267 385.333 439.2 384.933 437.467C384.533 435.6 384.8 433.334 385.6 432.4C386.533 431.2 386.533 430.667 385.467 430.667C384.667 430.667 384 429.867 384 428.934C384.133 428.134 385.2 428.667 386.667 430.4C388.667 432.934 388.933 433.867 387.6 436.4ZM432.667 430.667C433.2 431.467 432.8 431.867 431.867 431.734C430.933 431.467 430.133 432.267 430 433.334C430 434.4 429.2 435.2 428.267 434.934C427.333 434.8 426.8 435.467 427.067 436.267C427.2 437.2 426.533 437.867 425.733 437.6C424.8 437.467 424 437.867 424 438.667C424 440.667 417.867 444.134 415.733 443.334C414.667 442.934 413.733 441.6 413.733 440.534C413.733 439.067 414.8 438.8 418.267 439.334C420.667 439.734 422.8 439.467 422.8 438.667C422.933 437.867 423.067 436.8 423.2 436.134C423.333 434.8 429.467 429.467 430.933 429.334C431.467 429.334 432.267 430 432.667 430.667ZM509.467 433.334C510.267 433.334 510.4 432.534 509.867 431.6C509.2 430.534 509.6 430.534 511.067 431.867C513.6 433.867 514.133 435.334 511.733 433.867C510.667 433.2 510.533 433.6 511.067 435.067C511.467 436.267 511.2 437.6 510.4 438.134C509.6 438.667 509.333 438.534 509.733 437.734C510.267 436.934 509.733 435.6 508.667 434.667C507.6 433.734 506.8 432 506.8 430.8C506.933 429.067 507.067 429.067 507.6 430.934C507.867 432.267 508.8 433.334 509.467 433.334ZM209.333 432.534C209.333 432.8 208.4 433.467 207.2 433.867C206.133 434.267 205.6 434.134 206 433.334C206.8 432 209.333 431.467 209.333 432.534ZM344.667 440.534C344.667 444.667 344.133 446.134 343.067 445.734C342.133 445.334 341.333 443.6 341.333 441.867C341.333 440 342.133 437.734 343.067 436.667C343.867 435.6 344.667 434.8 344.667 434.667C344.667 434.667 344.667 437.334 344.667 440.534ZM402.133 435.867C401.733 436.534 402.667 437.334 404.133 437.734C405.867 438.267 406.533 439.067 406 440.134C405.2 441.334 405.867 441.467 408.533 440.8C412.533 439.867 413.067 440.934 409.733 443.6C407.6 445.2 407.733 445.334 411.333 444.667C414.533 444.134 414.8 444.267 412.667 445.2C409.2 446.934 404.933 447.067 406 445.467C406.4 444.8 405.2 442.534 403.333 440.534C400.533 437.467 399.867 434.667 402.133 434.667C402.533 434.667 402.533 435.2 402.133 435.867ZM500.267 437.6C497.6 440.267 498.533 441.867 501.333 439.334C503.867 436.934 504 437.067 504 439.734C504 441.734 503.333 442.4 502 441.867C500.933 441.334 500 441.6 500 442.4C500 444.4 494.267 443.2 488.533 440.134C485.067 438.134 484.4 437.467 486.667 438C488.533 438.534 490.667 438.934 491.6 438.934C492.533 439.067 492.933 439.6 492.667 440.134C492.267 440.667 492.933 441.467 494 441.867C495.333 442.267 496.4 441.734 496.933 440.267C497.467 439.067 498.4 437.6 499.2 437.067C501.467 435.467 502 435.867 500.267 437.6ZM517.2 440.534C516.8 440.934 515.733 439.867 514.8 438.267C513.067 435.467 513.2 435.467 515.467 437.6C516.8 438.934 517.6 440.267 517.2 440.534ZM522.667 442.534C525.2 453.2 525.467 455.2 526.133 464C526.533 469.334 526.267 472 525.6 470.934C524.933 469.867 523.867 469.2 523.2 469.2C522.533 469.334 521.867 467.867 521.6 466C521.2 463.334 521.6 462.8 523.6 463.6C525.733 464.4 525.867 464.267 524 462C522.4 460 522.4 459.734 523.867 460.667C525.333 461.467 525.6 461.2 524.933 459.467C524.4 458.134 523.6 454.8 523.2 451.867C522.667 449.067 521.867 447.067 521.2 447.467C520.533 447.867 520.4 447.067 520.933 445.734C521.733 443.6 521.6 443.6 519.6 445.2C517.6 446.8 517.333 446.667 517.333 444.934C517.333 443.734 518 442.4 518.667 442C519.467 441.467 519.6 440.267 518.8 438.8C517.867 437.067 518 436.4 519.333 436.4C520.4 436.4 521.733 438.934 522.667 442.534ZM392.4 440.934C391.733 442.534 392 442.8 393.333 442C394.4 441.334 394.8 441.467 394.133 442.4C393.6 443.2 392.4 443.6 391.2 443.067C389.733 442.534 389.6 441.867 390.8 440.534C392.8 438 393.467 438.134 392.4 440.934ZM512.533 441.867C511.733 443.867 509.333 444.934 509.333 443.334C509.333 442.267 512.533 438.8 513.067 439.334C513.2 439.467 513.067 440.667 512.533 441.867ZM374 441.334L378 442.4L374.267 442.534C372.133 442.667 370.8 443.2 371.333 444C371.867 444.8 372.8 444.934 373.6 444.534C374.533 444 374.667 444.267 374.133 445.067C372.933 447.067 369.333 447.2 369.333 445.334C369.333 444.534 367.733 444 365.733 444C362.267 444 362.267 444.134 364.8 446.134C366.133 447.2 366.533 447.734 365.6 447.334C364.533 446.8 362.133 445.867 360.267 445.334C357.067 444.4 357.6 444.134 364 443.2C370.667 442.267 370.933 442 367.333 441.2C363.867 440.4 363.733 440.267 366.667 440.267C368.533 440.267 371.867 440.8 374 441.334ZM234 444.134C232.8 445.867 228.8 447.467 222.667 448.4C218 449.2 218 449.2 223.333 447.334L228.667 445.467L222 446C216.133 446.534 215.867 446.534 219.333 445.334C221.6 444.534 224.933 444.267 227.067 444.534C229.067 444.934 230.667 444.667 230.667 444C230.667 443.2 231.6 442.667 232.8 442.667C233.867 442.667 234.4 443.334 234 444.134ZM240.4 443.6C239.467 443.867 237.867 443.867 237.067 443.6C236.133 443.2 236.8 442.934 238.667 442.934C240.533 442.934 241.2 443.2 240.4 443.6ZM392 446.267C392 446.667 391.2 446.667 390.133 446.267C388.8 445.734 388.533 446.4 388.933 448.4C389.6 450.667 389.333 451.067 388 449.734C385.733 447.734 387.333 443.867 390 444.8C391.067 445.2 392 445.867 392 446.267ZM470.4 445.6C470 446.534 468.667 447.467 467.2 447.734C465.333 448 465.067 447.867 466.533 446.934C467.867 446 467.333 445.6 464.8 445.6C462.933 445.6 460.667 446.667 459.733 447.867C458.133 449.734 458.267 449.867 460.4 448.134C461.6 447.067 463.067 446.667 463.6 447.2C464.133 447.6 463.333 448.934 461.867 449.867C460.533 450.934 459.2 451.334 458.933 450.667C458.667 450 457.467 449.867 456.267 450.267C455.067 450.667 455.867 449.467 458 447.6C462.267 443.734 471.467 442.4 470.4 445.6ZM480 447.2C480 448.134 479.067 448.934 478 448.934C476.933 448.934 476.4 448.4 476.8 447.734C477.2 447.2 476.8 446.667 476.133 446.667C475.333 446.667 474.667 446.134 474.667 445.467C474.667 444.8 475.867 444.534 477.333 444.934C478.8 445.334 480 446.4 480 447.2ZM504.133 454.134C503.467 459.2 502.133 465.067 501.2 467.334L499.6 471.334L498.667 467.334C498.133 465.067 497.6 462.134 497.6 460.667C497.467 458.267 497.6 458.4 499.2 461.2C501.333 465.067 502.933 462.4 501.2 457.734C499.867 454 501.2 444.4 502.8 446.934C503.733 448.267 504 448 504 446.134C504 444.667 504.267 443.867 504.667 444.267C505.067 444.534 504.8 449.067 504.133 454.134ZM404 446.667C404 447.334 402.4 448 400.4 448C398.267 448 395.2 448.4 393.333 448.667C391.2 449.067 391.733 448.667 394.667 447.467C400.267 445.2 404 444.8 404 446.667ZM512.8 449.334C512.667 451.467 511.867 453.6 511.067 454C508.933 454.667 508.933 453.334 510.667 448.8C512.4 444.267 512.933 444.4 512.8 449.334ZM286 448C286.4 448.667 285.867 449.334 284.8 449.334C283.733 449.334 282.4 448.667 282 448C281.6 447.2 282.133 446.667 283.2 446.667C284.267 446.667 285.6 447.2 286 448ZM494.133 450.267C492.8 451.6 491.6 449.6 492.8 447.867C493.6 446.4 493.867 446.4 494.4 447.867C494.667 448.8 494.533 449.867 494.133 450.267ZM346 449.334C346.4 450 346.133 450.667 345.467 450.667C344.667 450.667 344 450 344 449.334C344 448.534 344.267 448 344.533 448C344.933 448 345.6 448.534 346 449.334ZM474.133 451.467C473.6 452.667 472.933 453.467 472.667 453.067C472.267 452.667 472.267 451.334 472.8 450.134C473.333 448.934 474 448.134 474.267 448.534C474.667 448.934 474.667 450.267 474.133 451.467ZM294 451.734C293.6 452.134 292.533 451.734 291.6 450.8C290.4 449.467 290.533 449.334 292.4 450.134C293.733 450.534 294.4 451.334 294 451.734ZM356.133 450.534C356.933 449.334 357.333 449.2 357.333 450.267C357.333 452.267 350.933 456.667 349.733 455.467C349.333 455.067 349.6 454.667 350.4 454.667C351.2 454.667 351.6 453.467 351.333 451.867C350.8 449.467 351.067 449.334 352.8 450.8C354.533 452.134 355.067 452.134 356.133 450.534ZM490.667 449.867C490.667 450.134 489.733 450.667 488.667 451.2C487.6 451.6 486.667 451.334 486.667 450.667C486.667 449.867 487.6 449.334 488.667 449.334C489.733 449.334 490.667 449.6 490.667 449.867ZM381.6 452.267C380.533 453.334 379.333 453.334 377.067 452.267C374.133 450.934 374.267 450.8 378.667 450.8C382.133 450.667 382.8 451.067 381.6 452.267ZM456 452.667C456 452.934 454.8 453.067 453.467 452.934C452 452.934 451.067 452.267 451.467 451.734C452 450.934 456 451.734 456 452.667ZM484.4 454C483.467 456.8 482.667 456.534 482.667 453.2C482.667 451.734 483.2 450.8 484 451.334C484.667 451.734 484.933 452.934 484.4 454ZM344.8 454C344.4 455.067 345.067 456.4 346.267 457.067C347.333 457.734 347.867 458.667 347.2 459.067C346.533 459.467 344.533 458.667 342.8 457.2C340.933 455.734 340.4 454.667 341.467 454.667C342.933 454.667 342.933 454.4 341.333 453.334C339.733 452.267 340 452 342.533 452C344.667 452 345.333 452.534 344.8 454ZM218.667 455.334C219.6 456.534 219.733 457.334 218.933 457.334C218.267 457.334 217.333 456.4 216.8 455.334C216.4 454.267 216.267 453.334 216.533 453.334C216.8 453.334 217.733 454.267 218.667 455.334ZM246.267 454.134C245.867 454.534 244.667 454.667 243.733 454.267C242.667 453.867 243.067 453.467 244.533 453.467C246 453.334 246.8 453.734 246.267 454.134ZM297.6 460C298.133 460 298.667 460.667 298.667 461.6C298.667 464.267 295.067 459.734 294.133 456C293.467 452.934 293.6 452.934 294.933 456.267C295.867 458.4 296.933 460 297.6 460ZM449.333 454.667C449.333 455.334 448.667 456 447.867 456C447.2 456 446.933 455.334 447.333 454.667C447.733 453.867 448.4 453.334 448.8 453.334C449.067 453.334 449.333 453.867 449.333 454.667ZM464.4 456.534C463.067 458.267 461.733 459.2 461.467 458.4C461.333 457.734 462.133 456.267 463.467 455.334C466.933 452.667 467.2 452.934 464.4 456.534ZM239.333 456C237.867 456.667 235.733 457.2 234.667 457.2C233.467 457.2 233.6 456.667 235.333 456C236.8 455.334 238.933 454.8 240 454.8C241.2 454.8 241.067 455.334 239.333 456ZM446.667 458.267C446.667 458.667 445.733 458.667 444.667 458.134C443.6 457.734 442.667 458 442.667 458.667C442.667 459.467 441.333 460 439.733 460C436.667 459.867 436.667 459.867 439.867 458.134C442.933 456.534 446.667 456.534 446.667 458.267ZM473.333 460.4C473.333 461.067 472.8 461.067 472 460.667C471.333 460.267 470.667 458.8 470.667 457.6C470.667 455.6 470.933 455.6 472 457.334C472.667 458.4 473.333 459.867 473.333 460.4ZM475.6 460.267C475.2 461.2 474.933 460.534 474.933 458.667C474.933 456.8 475.2 456.134 475.6 456.934C475.867 457.867 475.867 459.467 475.6 460.267ZM510.667 460C509.867 461.467 509.6 463.867 510 465.2C510.4 466.8 510 468 508.667 468.534C506.933 469.2 506.667 468.667 507.333 466.267C508.933 460.8 511.067 455.867 511.6 456.534C512 456.8 511.6 458.4 510.667 460ZM489.733 459.334C489.333 460.534 488.667 461.2 488.4 460.8C488 460.4 488.133 459.6 488.667 458.8C489.867 456.667 490.667 457.067 489.733 459.334ZM310 460C309.6 460.8 310.667 461.334 312.533 461.334C316.933 461.334 320.133 462.667 319.2 464.134C318.8 464.8 317.467 465.334 316.267 465.334C314.267 465.334 314.267 465.067 316 464C317.467 463.067 316.933 462.667 313.733 462.667C309.6 462.667 307.333 461.2 308.933 459.467C310.267 458.267 310.933 458.534 310 460ZM353.333 461.334C351.467 462.8 349.6 464 349.067 464C348.533 464 348.533 464.934 348.933 466.267C349.467 467.734 349.333 468.134 348.267 467.467C345.733 465.867 346.4 464.4 351.067 461.467C356.4 458 357.733 457.867 353.333 461.334ZM483.6 462.934C483.2 463.867 482.933 463.2 482.933 461.334C482.933 459.467 483.2 458.8 483.6 459.6C483.867 460.534 483.867 462.134 483.6 462.934ZM460.667 461.2C461.067 461.867 459.867 464.134 458 466.267C456 468.534 454.933 469.067 455.467 467.6C455.867 466.4 456.8 465.334 457.467 465.334C458.133 465.334 458.667 464.8 458.667 464C458.667 463.334 457.6 463.2 456.4 463.6C454.267 464.4 454.267 464.267 455.867 462.267C457.867 459.734 459.467 459.334 460.667 461.2ZM438.4 464.134C437.467 464.8 436.533 464.667 436.267 463.867C435.867 463.067 434.933 463.2 433.6 464.267C431.6 465.734 431.6 465.734 433.067 463.867C434.133 462.534 435.867 461.867 437.467 462.267C439.6 462.8 439.733 463.334 438.4 464.134ZM444 462.667C444 463.334 443.333 464 442.533 464C441.867 464 441.6 463.334 442 462.667C442.4 461.867 443.067 461.334 443.467 461.334C443.733 461.334 444 461.867 444 462.667ZM469.467 465.2C468.533 466.934 468.4 468.134 469.333 468.667C471.467 470 470.933 472 468.667 471.067C467.467 470.667 465.733 471.334 464.667 472.8C463.6 474.267 462.667 474.667 462.667 473.734C462.667 472.934 464 471.2 465.6 470.134C468.267 468.267 468 467.334 465.067 467.867C464.533 467.867 464.4 467.067 464.933 465.867C465.467 464.267 466 464.267 466.667 465.334C467.333 466.534 468 466.134 468.667 464.134C469.2 462.4 469.867 461.467 470.267 461.734C470.533 462.134 470.267 463.6 469.467 465.2ZM217.6 467.067C218.933 469.6 218.8 469.734 217.067 468.4C216 467.467 214.8 466.934 214.533 467.334C214.133 467.6 213.867 466.8 213.867 465.334C213.867 462.4 215.467 463.067 217.6 467.067ZM258.8 464.934C260.533 467.067 260.4 467.2 258.4 465.467C257.067 464.534 256 463.467 256 463.2C256 462.134 257.067 462.8 258.8 464.934ZM325.733 463.6C324.8 463.867 323.2 463.867 322.4 463.6C321.467 463.2 322.133 462.934 324 462.934C325.867 462.934 326.533 463.2 325.733 463.6ZM476 465.334C476 466 475.067 466.667 473.867 466.667C472.8 466.667 472.267 466 472.667 465.334C473.067 464.534 474 464 474.8 464C475.467 464 476 464.534 476 465.334ZM512.933 468.267C512.533 469.2 512.267 468.534 512.267 466.667C512.267 464.8 512.533 464.134 512.933 464.934C513.2 465.867 513.2 467.467 512.933 468.267ZM304.933 467.2C304.933 468.267 304.133 468.8 302.933 468.4C301.467 467.734 301.467 467.467 302.933 466.534C303.867 465.867 304.667 465.334 304.8 465.334C304.8 465.334 304.933 466.134 304.933 467.2ZM430.533 468.267C429.2 469.2 429.467 469.334 431.333 468.667C434.667 467.6 441.333 466.534 439.067 467.467C438.133 467.867 437.067 468.134 436.667 468C436.267 468 434.933 468.8 433.867 469.867C431.2 472.534 425.867 469.867 428.267 467.067C428.933 466.134 430.267 465.734 430.933 466.134C431.733 466.667 431.6 467.467 430.533 468.267ZM449.333 466.667C449.333 467.334 449.067 468 448.8 468C448.4 468 447.733 467.334 447.333 466.667C446.933 465.867 447.2 465.334 447.867 465.334C448.667 465.334 449.333 465.867 449.333 466.667ZM264.667 469.6C263.467 470.4 262.133 470.534 261.733 470.134C261.2 469.734 261.6 469.334 262.533 469.334C263.467 469.334 263.733 468.8 263.333 468C262.8 467.2 263.467 467.067 264.8 467.6C266.8 468.4 266.8 468.534 264.667 469.6ZM485.867 475.067C486.267 480.934 486 482.667 484.533 482.667C483.2 482.667 483.067 481.867 483.867 479.6C484.4 478 484.667 474.267 484.267 471.334C484 468.4 484 466.267 484.4 466.667C484.8 467.067 485.467 470.8 485.867 475.067ZM341.467 470.4C340 470.934 340 471.2 341.467 472.267C342.933 473.334 342.933 473.467 341.333 472.934C340.267 472.667 338.133 473.334 336.667 474.534C335.2 475.6 335.733 474.667 337.867 472.267C340 470 342.133 468.4 342.533 468.8C342.933 469.334 342.533 470 341.467 470.4ZM444.4 470.934C445.467 474.534 445.467 474.534 441.067 473.734C437.733 473.067 437.733 472.934 439.733 470.534C442.533 467.2 443.467 467.334 444.4 470.934ZM475.067 470.667C474.667 472.267 474 473.2 473.6 472.8C472.933 472 474.267 468 475.2 468C475.467 468 475.467 469.2 475.067 470.667ZM488.4 470C488 471.2 487.333 471.867 487.067 471.467C486.667 471.067 486.8 470.267 487.333 469.467C488.533 467.334 489.333 467.734 488.4 470ZM291.867 471.467C292.133 471.734 290.267 472 287.6 472C284.933 472 282.533 471.467 282 470.8C281.333 469.6 290.533 470.267 291.867 471.467ZM450.8 472.4C449.067 474.134 447.333 472.8 448.667 470.8C449.067 470 450.133 469.734 450.933 470.134C451.733 470.667 451.733 471.467 450.8 472.4ZM498.533 473.6C499.467 476.4 499.467 479.467 498.8 482C497.733 485.734 497.6 485.734 497.6 480.267C497.6 477.067 496.933 473.734 496.133 472.934C495.067 471.867 494.667 472 494.667 473.334C494.667 474.267 494.4 474.8 494 474.4C493.067 473.467 494.667 469.334 496 469.334C496.667 469.334 497.733 471.334 498.533 473.6ZM482.133 474.134C481.6 475.334 480.933 476.134 480.667 475.734C480.267 475.334 480.267 474 480.8 472.8C481.333 471.6 482 470.8 482.267 471.2C482.667 471.6 482.667 472.934 482.133 474.134ZM509.333 472.934C509.333 474.267 509.733 476.8 510.133 478.667C510.667 481.067 510.533 481.467 509.6 480C507.6 476.667 506.533 470.667 508 470.667C508.667 470.667 509.333 471.734 509.333 472.934ZM460.933 473.867C460.533 474.934 460.8 476.134 461.733 476.4C462.933 476.8 462.933 477.467 461.733 478.8C460.267 480.267 459.733 480.267 458.4 478.8C456.933 477.334 457.067 477.2 458.533 478C460 478.8 460.267 478.534 459.6 476.8C459.067 475.467 458.933 473.867 459.467 473.2C460.533 471.334 461.733 471.867 460.933 473.867ZM524.933 473.067C526 473.734 525.733 474.8 524.133 476.934L521.733 479.867L521.6 475.867C521.467 471.867 522.133 471.334 524.933 473.067ZM226 474.667C226.4 475.467 225.867 475.6 224.8 475.2C222.4 474.267 222 473.334 223.867 473.334C224.667 473.334 225.6 473.867 226 474.667ZM240.4 474.267C239.467 474.534 237.867 474.534 237.067 474.267C236.133 473.867 236.8 473.6 238.667 473.6C240.533 473.6 241.2 473.867 240.4 474.267ZM307.6 474.134C307.2 474.534 306 474.667 305.067 474.267C304 473.867 304.4 473.467 305.867 473.467C307.333 473.334 308.133 473.734 307.6 474.134ZM418.667 475.334C417.6 476.534 417.467 477.334 418.4 477.334C419.2 477.334 420.267 476.667 420.667 476C421.067 475.2 422.133 474.667 422.8 474.667C423.6 474.667 423.733 475.2 423.333 476C422.933 476.667 423.067 477.334 423.867 477.334C424.533 477.334 425.333 476.534 425.733 475.6C426.133 474.8 426.4 475.2 426.267 476.667C426.133 478.667 425.2 479.334 422.133 479.467C416.667 479.467 414.267 477.334 417.2 475.067C420.133 472.8 420.667 472.934 418.667 475.334ZM452.133 475.2C450.533 477.067 441.6 478.8 440.667 477.334C440.4 476.934 442.4 476.4 445.067 476.267C447.733 476 450.533 475.334 451.2 474.667C453.2 472.667 453.867 473.067 452.133 475.2ZM506.133 479.867C506.133 482.8 505.6 484.8 505.067 484.534C504.4 484.134 504 484.4 504 485.2C504 485.867 503.6 487.6 503.067 488.934C502.267 491.067 502.4 491.2 504.667 489.334C506.933 487.467 507.067 487.6 506.267 489.6C505.6 491.6 506 491.734 508.667 490.667C511.733 489.467 511.867 489.6 510.4 491.867C509.6 493.334 508.133 494.134 507.2 493.734C506.4 493.467 504 495.2 502 497.6C500 500 498.8 500.934 499.2 499.6C499.6 498.267 500 496.267 500 495.2C500 494.134 500.4 493.467 501.067 493.467C503.467 493.867 504.533 493.2 502.933 492.134C501.467 491.334 501.6 489.467 503.467 482.934C504.8 478.4 505.867 474.667 506 474.667C506.267 474.667 506.267 477.067 506.133 479.867ZM296.4 476.934C294.667 477.2 292 477.2 290.4 476.934C288.667 476.667 290 476.4 293.333 476.4C296.667 476.4 298 476.667 296.4 476.934ZM308.933 476.8C308.533 477.2 307.333 477.334 306.4 476.934C305.333 476.534 305.733 476.134 307.2 476.134C308.667 476 309.467 476.4 308.933 476.8ZM492.933 480.267C492.533 481.2 492.267 480.534 492.267 478.667C492.267 476.8 492.533 476.134 492.933 476.934C493.2 477.867 493.2 479.467 492.933 480.267ZM226.267 478.134C225.867 478.534 224.667 478.667 223.733 478.267C222.667 477.867 223.067 477.467 224.533 477.467C226 477.334 226.8 477.734 226.267 478.134ZM333.333 480.667C331.6 482.534 329.867 483.734 329.6 483.334C329.2 482.934 328 483.467 326.8 484.267C325.467 485.334 325.6 484.8 327.2 483.067C328.533 481.334 330.133 480.4 330.667 480.667C331.2 481.067 332.4 480.4 333.333 479.334C334.267 478.267 335.333 477.334 335.733 477.334C336.133 477.334 335.067 478.8 333.333 480.667ZM414.667 480.134C414.667 480.8 414.133 481.334 413.6 481.334C412.933 481.334 412.4 480.4 412.4 479.334C412.4 478.267 412.933 477.734 413.6 478.134C414.133 478.534 414.667 479.334 414.667 480.134ZM466.667 479.334C465.733 480.534 464.667 481.067 464.133 480.667C463.733 480.267 464.267 479.334 465.333 478.667C468.133 476.8 468.533 477.067 466.667 479.334ZM495.6 481.6C495.2 482.534 494.933 481.867 494.933 480C494.933 478.134 495.2 477.467 495.6 478.267C495.867 479.2 495.867 480.8 495.6 481.6ZM320 479.467C320 480.534 317.467 481.2 316.8 480.267C316.4 479.6 316.933 479.067 318 479.067C319.067 479.067 320 479.334 320 479.467ZM441.867 481.734C442.4 481.2 443.733 480.667 444.933 480.534C446.933 480.267 446.933 480.4 444.933 482.4C441.467 485.734 438 485.334 437.733 481.467C437.6 478.4 437.733 478.267 439.2 480.267C440.133 481.6 441.333 482.267 441.867 481.734ZM473.067 482C472.667 482.4 471.867 481.734 471.467 480.4C470.667 478.534 470.8 478.4 472.133 479.6C473.067 480.534 473.467 481.6 473.067 482ZM246.4 480.934C245.067 481.2 242.667 481.2 241.067 480.934C239.333 480.667 240.4 480.4 243.333 480.4C246.267 480.267 247.6 480.534 246.4 480.934ZM460 483.867C460 485.067 459.467 486.8 458.8 487.867C457.333 490.134 453.333 491.067 453.333 489.067C453.333 488.267 452.533 488.267 451.467 489.334C449.733 490.667 449.467 490.267 449.733 487.067C450 484.4 450.8 483.334 452.533 483.334C454 483.334 455.333 482.667 455.6 481.734C456.4 479.467 460 481.2 460 483.867ZM412.267 483.6C413.6 484.8 414.667 485.2 414.667 484.4C414.667 482 418.133 483.067 418.267 485.467C418.533 488.4 416.533 490 415.333 488C414.933 487.334 413.867 486.667 413.067 486.667C412.267 486.667 412.267 487.467 413.333 488.667C414.8 490.4 414.667 490.534 412.8 489.867C411.467 489.334 410.8 488.134 411.2 487.2C411.6 486.267 410.933 484.534 409.867 483.334C407.067 480.667 409.2 480.8 412.267 483.6ZM479.333 487.467C479.333 489.734 478.533 491.334 476.667 492.134C474 493.467 474 493.467 476.533 491.467C478 490.267 478.533 489.334 477.733 489.334C476.933 489.334 476.667 487.867 477.067 486C477.733 481.867 479.067 482.667 479.333 487.467ZM402.667 485.867C402.667 486.134 401.733 486.8 400.533 487.2C399.467 487.6 398.933 487.467 399.333 486.667C400.133 485.334 402.667 484.8 402.667 485.867ZM470.667 490C469.867 492 468.933 493.334 468.533 493.067C468.267 492.667 468.667 490.8 469.467 488.8C471.6 484.267 472.533 485.2 470.667 490ZM311.067 488.4C310.667 488.934 310 489.2 309.6 488.8C309.2 488.4 308.133 488.667 307.067 489.6C305.6 490.667 305.467 490.534 306.133 488.934C306.533 487.734 308 486.934 309.333 487.067C310.667 487.2 311.467 487.734 311.067 488.4ZM408.8 490.4C408.267 490.8 406.933 490.134 405.6 488.8C403.467 486.4 403.467 486.4 406.4 488C408.133 488.8 409.2 489.867 408.8 490.4ZM439.333 488.134C438.8 488.8 436.933 490 435.067 490.8C433.067 491.6 432.133 492.667 432.8 493.6C433.333 494.534 433.333 494.934 432.8 494.4C432.133 493.867 430.267 495.067 428.533 497.067C426.8 499.067 425.333 499.867 425.333 498.934C425.333 498.134 424.667 497.334 423.867 497.334C423.067 497.334 422.667 498.134 423.067 499.2C423.467 500.267 422.8 502 421.467 503.2C419.6 504.934 418.8 504.934 417.333 503.6C416 502.267 415.733 502.4 416.4 504.267C416.933 505.867 416.667 506.267 415.067 505.734C413.467 505.067 413.867 504.134 417.2 501.067C419.733 498.667 420.933 496.534 420.533 494.934C420 493.467 420.133 493.2 420.933 494.267C422.4 496.267 427.733 496 428.533 493.734C428.933 492.934 431.467 490.934 434.267 489.467C440.267 486.267 440.4 486.267 439.333 488.134ZM497.333 488C497.333 488.667 497.067 489.334 496.8 489.334C496.4 489.334 495.733 488.667 495.333 488C494.933 487.2 495.2 486.667 495.867 486.667C496.667 486.667 497.333 487.2 497.333 488ZM402.667 489.334C402.667 490 402 490.667 401.2 490.667C400.533 490.667 400.267 490 400.667 489.334C401.067 488.534 401.733 488 402.133 488C402.4 488 402.667 488.534 402.667 489.334ZM429.333 490C429.333 492.934 425.733 494 422.267 492.134L419.333 490.667L422.4 491.467C424.4 491.867 425.6 491.467 426.133 490.134C427.2 487.467 429.333 487.334 429.333 490ZM398 491.467C397.2 491.6 394.933 492.134 392.667 492.667L388.667 493.6L392 495.6C393.867 496.667 394.267 497.2 392.933 496.8C391.6 496.4 389.6 496 388.533 496C385.6 496 386.4 494.134 390.4 491.867C392.4 490.8 395.2 490.134 396.667 490.534C398.133 490.8 398.667 491.334 398 491.467ZM445.867 492.8C445.467 495.067 445.733 495.867 446.8 495.334C447.867 494.534 447.867 495.067 446.8 496.934C446 498.4 445.733 499.867 446 500.267C446.267 500.534 445.2 500.8 443.333 500.667C441.6 500.667 439.733 500.134 439.2 499.6C438.533 499.067 439.2 498.934 440.667 499.467C443.067 500.4 443.067 500.267 441.467 498.267C439.2 495.467 435.733 497.6 436.933 501.067C437.467 503.067 437.333 503.067 436.133 501.334C434.933 499.734 435.733 498.267 440 494.267C442.8 491.6 445.467 489.334 445.867 489.334C446.267 489.334 446.267 490.934 445.867 492.8ZM461.333 494.667C461.333 496.8 461.067 498.667 460.8 498.667C460.533 498.667 460 496.8 459.733 494.667C459.333 492.4 459.6 490.667 460.267 490.667C460.8 490.667 461.333 492.4 461.333 494.667ZM464.4 493.334C464.8 494.8 464.533 496 463.867 496C463.2 496 462.667 494.8 462.667 493.334C462.667 491.867 462.933 490.667 463.2 490.667C463.467 490.667 464 491.867 464.4 493.334ZM284.8 494.4C283.467 494.667 281.867 494.4 281.067 493.6C280.267 492.8 281.067 492.667 283.6 493.067C286.4 493.734 286.667 494 284.8 494.4ZM318.267 494C318.267 495.067 317.733 495.6 317.067 495.2C316.4 494.8 316.267 493.867 316.667 493.2C317.867 491.467 318.267 491.734 318.267 494ZM405.333 493.334C405.333 494 404.667 494.667 403.867 494.667C403.2 494.667 402.933 494 403.333 493.334C403.733 492.534 404.4 492 404.8 492C405.067 492 405.333 492.534 405.333 493.334ZM224.4 496.4C224.933 496 225.333 496.267 225.333 497.067C225.333 499.734 222.8 498.8 221.333 495.6C220 492.934 220 492.934 221.733 494.934C222.8 496.267 224 496.934 224.4 496.4ZM417.733 494.267C416.8 494.534 416 495.467 416 496.134C416 496.934 416.667 497.067 417.6 496.534C418.533 495.867 418.667 496.134 418 497.2C417.333 498.4 416.533 498.4 415.733 497.6C414.133 496 415.467 493.334 417.733 493.467C418.933 493.467 418.933 493.734 417.733 494.267ZM297.333 496.667C296.4 497.734 294.933 498.667 294.133 498.667C293.333 498.667 293.867 497.734 295.2 496.667C298.533 494.134 299.467 494.134 297.333 496.667ZM328 495.2C328 495.467 326.933 496.534 325.733 497.467C323.6 499.2 323.467 499.067 325.2 496.934C326.933 494.8 328 494.134 328 495.2ZM382.667 497.734C382.667 498.667 381.6 499.467 380.4 499.6C379.067 499.734 376.533 500.134 374.667 500.667C372.267 501.2 379.467 497.067 382.4 496.134C382.533 496 382.667 496.8 382.667 497.734ZM388 497.334C389.733 498.4 389.733 498.667 387.733 498.667C386.533 498.667 385.067 498 384.667 497.334C383.6 495.6 385.333 495.6 388 497.334ZM478 498.8C479.467 500.934 478.133 501.334 476.267 499.2C475.333 498.134 475.2 497.334 475.867 497.334C476.533 497.334 477.6 498 478 498.8ZM473.733 502C472.8 504.8 472.133 504.534 472.4 501.467C472.4 500 473.067 499.067 473.6 499.467C474.133 499.867 474.267 500.934 473.733 502ZM230.133 505.6L234 510L229.733 506.134C225.6 502.4 224.667 501.334 225.733 501.334C226 501.334 227.867 503.334 230.133 505.6ZM372 502.667C373.333 503.6 371.733 503.734 366.667 503.2C362.667 502.667 359.067 502.134 358.8 501.867C357.467 500.667 370.133 501.467 372 502.667ZM410.667 502.667C411.733 503.334 412.133 504 411.333 504C410.667 504 409.067 503.334 408 502.667C406.933 502 406.667 501.334 407.333 501.334C408.133 501.334 409.6 502 410.667 502.667ZM450.533 506.667C450.533 508 450.133 507.734 449.333 506C447.733 502.4 447.733 500.267 449.333 502.667C450 503.734 450.533 505.6 450.533 506.667ZM459.333 502.667C459.733 503.334 459.467 504 458.8 504C458 504 457.333 503.334 457.333 502.667C457.333 501.867 457.6 501.334 457.867 501.334C458.267 501.334 458.933 501.867 459.333 502.667ZM430.667 504C430.667 504.667 430 505.334 429.2 505.334C428.533 505.334 428.267 504.667 428.667 504C429.067 503.2 429.733 502.667 430.133 502.667C430.4 502.667 430.667 503.2 430.667 504ZM382.4 506.934C381.733 508.934 379.333 508.4 378.933 506.134C378.667 504.667 379.2 504.267 380.667 504.8C381.867 505.334 382.533 506.267 382.4 506.934ZM406 505.2C405.6 506 406.4 507.067 407.6 507.867C408.933 508.667 409.467 509.2 408.667 509.334C406.133 509.334 403.6 506.934 404.533 505.467C405.067 504.667 405.733 504 406.133 504C406.533 504 406.533 504.534 406 505.2ZM464 507.067C464 508 463.467 507.867 462.533 506.667C461.333 505.067 461.2 505.334 461.733 507.734C462.133 509.334 461.6 512.534 460.4 514.667C458.4 518.934 456.8 520.134 458.267 516.4C458.8 515.067 458.533 514.534 457.733 515.067C456.933 515.6 455.6 515.067 454.667 514C453.6 512.8 453.6 512 454.4 512C455.2 512 456 512.667 456.267 513.467C456.8 514.934 458.933 511.067 460.533 506.267C461.333 503.734 464 504.4 464 507.067ZM311.333 507.867C310.933 508.667 309.867 509.334 309.2 509.334C308.533 509.334 308.667 508.534 309.6 507.467C311.467 505.334 312.8 505.734 311.333 507.867ZM413.467 506.667C415.2 506.667 413.333 510.4 411.067 511.2C409.333 511.867 409.2 511.734 410.533 510.134C411.867 508.667 411.6 507.867 409.733 506.667C407.467 505.2 407.467 505.2 409.733 505.867C411.067 506.267 412.8 506.667 413.467 506.667ZM425.067 508C424.133 509.334 423.2 510.267 422.8 510C422.267 509.467 425.2 505.334 426.133 505.334C426.4 505.334 426 506.534 425.067 508ZM387.6 507.467C387.2 507.867 386 508 385.067 507.6C384 507.2 384.4 506.8 385.867 506.8C387.333 506.667 388.133 507.067 387.6 507.467ZM430.667 507.2C430.667 507.6 430.133 508.267 429.333 508.667C428.667 509.067 428 508.8 428 508.134C428 507.334 428.667 506.667 429.333 506.667C430.133 506.667 430.667 506.934 430.667 507.2ZM386 510.534C383.6 511.467 383.6 511.6 385.867 512.934C388.133 514.134 388.133 514.4 386.133 515.067C384.8 515.6 384.133 515.467 384.667 514.667C385.067 513.867 384.8 513.334 384.133 513.334C383.333 513.334 382.667 512.4 382.667 511.334C382.667 510.134 383.867 509.334 385.733 509.467C388.4 509.467 388.533 509.6 386 510.534ZM407.333 512C407.867 512.8 407.467 513.2 406.4 513.067C405.467 512.8 404.8 513.334 404.933 514.267C405.2 515.2 404.4 515.6 403.333 515.067C401.6 514.4 401.6 514.134 403.6 512.534C406.533 510.4 406.267 510.4 407.333 512ZM381.333 513.334C381.333 514 380 514.667 378.4 514.667C375.867 514.667 375.733 514.4 377.333 513.334C379.867 511.6 381.333 511.6 381.333 513.334ZM452.533 514.134C452.933 515.2 452.8 515.734 452 515.334C451.2 514.934 450.667 515.2 450.667 516.134C450.667 517.067 450.4 517.467 450 517.067C449.333 516.4 450.533 512 451.333 512C451.6 512 452.133 512.934 452.533 514.134ZM243.6 514.134C243.2 514.534 242 514.667 241.067 514.267C240 513.867 240.4 513.467 241.867 513.467C243.333 513.334 244.133 513.734 243.6 514.134ZM400.267 515.2C402.267 516.667 401.733 517.334 395.067 520.667C390.933 522.8 386.533 524.4 385.467 524.4C384.267 524.4 382.533 525.2 381.6 526.267C379.467 528.4 377.733 528.534 376.667 526.667C376.133 525.867 376.8 525.734 378.133 526.267C379.467 526.8 380.133 526.534 379.6 525.867C379.2 525.2 380.4 524 382.133 523.067C383.867 522.267 385.333 522.134 385.333 522.8C385.333 523.334 386.267 523.6 387.467 523.067C388.667 522.667 389.067 521.867 388.4 521.467C387.867 521.067 387.067 519.467 386.933 518.134C386.533 515.867 386.667 515.734 388.533 517.2C389.733 518.134 390.267 519.6 389.733 520.4C389.2 521.334 389.733 521.467 391.2 520.934C392.533 520.4 393.867 520 394.267 520C394.8 520 394 518.8 392.667 517.334C391.333 515.867 390.933 514.667 391.733 514.667C392.667 514.667 393.333 515.334 393.333 516.134C393.333 516.8 394 517.067 394.933 516.534C395.867 515.867 396 516.134 395.333 517.334C394.533 518.667 394.8 518.934 396.533 518.267C397.867 517.734 399.2 517.334 399.733 517.334C400.133 517.334 399.333 516.4 397.867 515.334C396.533 514.267 396 513.467 396.667 513.467C397.467 513.467 399.067 514.134 400.267 515.2ZM297.333 516C296.267 516.667 294.8 517.334 294 517.334C293.333 517.334 293.6 516.667 294.667 516C295.733 515.334 297.333 514.667 298 514.667C298.8 514.667 298.4 515.334 297.333 516ZM372 516.134C372 516.534 373.6 516.667 375.733 516.4L379.333 515.867L376 518.667C373.2 521.2 372.667 521.334 371.2 519.467C370.4 518.267 369.467 517.734 369.067 518C368.667 518.4 367.733 518 366.933 516.934C365.733 515.6 366.133 515.2 368.667 515.2C370.533 515.2 372 515.6 372 516.134ZM414 516C413.6 516.667 414 517.334 414.933 517.334C416.267 517.334 416.267 517.6 414.8 518.534C413.867 519.2 413.333 520.267 413.733 520.8C414.133 521.467 413.067 522 411.333 522C409.6 522 408.533 521.467 409.067 520.8C409.467 520.134 408.667 520 407.333 520.534C405.333 521.2 405.2 521.067 406.667 519.334C408.133 517.6 408.667 517.6 409.467 518.934C410.4 520.267 410.933 520.267 412.267 518.934C413.467 517.734 413.467 517.334 412 517.334C410.267 517.334 410.267 517.067 412 516C414.533 514.4 415.067 514.4 414 516ZM289.333 518.667C289.333 519.334 288.267 520 287.067 520C285.067 520 284.933 519.734 286.667 518.667C289.2 517.067 289.333 517.067 289.333 518.667ZM453.867 524.667C451.6 528.134 445.333 532.667 447.333 529.2C448 528.267 447.6 526.934 446.267 526C444.4 524.667 444.533 524.267 446.933 522.8C449.333 521.334 449.6 521.334 448.933 522.934C448.533 524 449.067 524.934 450 524.934C451.067 524.934 451.733 524.267 451.6 523.467C451.467 522.667 452.133 522.134 453.067 522.267C453.867 522.534 454.8 521.334 454.8 519.6C454.933 517.6 455.2 517.334 455.6 518.934C455.867 520.134 455.2 522.8 453.867 524.667ZM261.867 522.534C261.6 522.934 260.267 522.134 258.933 520.8C256.8 518.534 256.8 518.4 259.6 520.134C261.2 521.067 262.267 522.134 261.867 522.534ZM425.333 519.867C425.333 520.534 426.4 520.8 427.867 520.4C430.8 519.6 432.8 522 430.133 523.067C427.333 524.134 422.667 522.534 422.667 520.534C422.667 519.467 423.333 518.667 424 518.667C424.8 518.667 425.333 519.2 425.333 519.867ZM420 521.334C420 522 419.333 522.667 418.533 522.667C417.867 522.667 417.6 522 418 521.334C418.4 520.534 419.067 520 419.467 520C419.733 520 420 520.534 420 521.334ZM380 522.667C377.333 524.4 375.6 524.4 376.667 522.667C377.067 521.867 378.533 521.334 379.733 521.334C381.733 521.334 381.733 521.6 380 522.667ZM404.8 522.934C405.333 523.734 405.2 524 404.4 523.6C403.6 523.067 401.867 523.6 400.533 524.667C398.533 526.134 398.4 526.534 400 526.667C401.733 526.667 401.733 526.8 400 528C398.933 528.667 397.467 529.334 396.667 529.334C396 529.334 396.267 528.667 397.333 528C398.933 526.934 398.933 526.667 396.667 526.667C394.667 526.534 395.067 526 398.667 524C404.267 520.934 403.6 521.067 404.8 522.934ZM393.467 530.4C392.533 530.667 391.067 530.267 390.4 529.6C389.333 528.534 389.867 528.4 392.133 528.934C393.867 529.467 394.533 530 393.467 530.4ZM389.733 531.2C391.067 532.267 393.467 532.8 395.067 532.534C397.867 532 397.867 532 395.333 533.2C393.467 534.134 394.8 534.4 400.533 534C407.467 533.6 408 533.734 405.867 535.334C403.733 536.934 404.4 536.934 409.867 535.334C416.667 533.2 420 533.734 414.533 535.867C412.133 536.8 413.467 537.067 420 536.667C426.667 536.4 427.867 536.534 425.333 537.6C419.867 539.734 400.267 538.134 391.733 534.667C387.467 533.067 384.4 531.067 384.8 530.534C385.733 528.934 386.933 529.067 389.733 531.2ZM443.333 530.667C443.733 531.467 443.2 531.6 442.133 531.2C439.733 530.267 439.333 529.334 441.2 529.334C442 529.334 442.933 529.867 443.333 530.667ZM440 532C441.067 532.667 441.467 533.334 440.667 533.334C440 533.334 438.4 532.667 437.333 532C436.267 531.334 436 530.667 436.667 530.667C437.467 530.667 438.933 531.334 440 532ZM423.333 534.667C422.933 535.334 421.467 536 420.267 536C418.267 536 418.267 535.734 420 534.667C422.667 532.934 424.4 532.934 423.333 534.667ZM270.4 567.2C278.533 569.867 288 578.267 288 582.934C288 585.734 287.733 585.734 285.467 582C282.133 576.534 279.067 574 272 570.934C253.2 562.934 227.2 565.067 211.333 576C208 578.267 205.333 579.467 205.333 578.667C205.333 575.067 221.6 567.467 234.667 564.934C241.333 563.6 263.467 565.067 270.4 567.2ZM429.067 568.934C427.733 569.2 425.333 569.2 423.733 568.934C422 568.667 423.067 568.4 426 568.4C428.933 568.267 430.267 568.534 429.067 568.934ZM240.4 575.6C239.467 575.867 237.867 575.867 237.067 575.6C236.133 575.2 236.8 574.934 238.667 574.934C240.533 574.934 241.2 575.2 240.4 575.6ZM225.333 579.334C216.933 582.534 213.467 583.334 214.933 582C216.133 580.8 229.867 576.134 232 576.134C233.067 576.134 230.133 577.6 225.333 579.334Z" fill="#1D361F"/>
<path d="M370.8 295.6C366.8 299.6 363.867 307.333 364.133 313.333C364.267 315.6 364.933 314.533 366.533 309.6C367.867 305.733 369.067 302.533 369.467 302.4C369.733 302.4 372.533 303.067 375.733 304C380 305.333 382.133 305.333 384.667 304.267C390.933 301.333 387.467 294.267 378.933 292.533C375.467 291.867 374.133 292.4 370.8 295.6ZM374.667 299.333C376.533 301.467 376 301.733 372.8 300.533C371.6 300.133 370.667 299.2 370.667 298.533C370.667 296.667 372.8 297.067 374.667 299.333ZM386.667 300C386.667 300.667 385.467 301.867 384 302.667C382 303.733 381.333 303.733 381.333 302.267C381.333 301.2 381.733 300 382.267 299.6C383.6 298.267 386.667 298.533 386.667 300Z" fill="#1D361F"/>
<path d="M308.667 308.267C307.2 309.067 304.4 311.2 302.267 313.067C297.867 317.333 299.333 318.667 308.667 318.667C313.467 318.667 314.8 319.067 313.333 320C312.267 320.667 308.533 320.933 305.067 320.533C292.533 318.8 288.4 322.8 292.533 332.667C295.2 338.933 296.4 338.267 294.4 331.733C292 323.6 293.333 322.133 303.067 322.933C307.6 323.333 312.133 323.467 312.933 323.067C313.867 322.8 316.533 319.733 318.8 316.267C322.667 310.533 322.8 310 320.533 308.4C317.6 306.267 312.267 306.267 308.667 308.267ZM320.667 310.667C321.067 311.333 320.8 312 320.133 312C319.333 312 318.667 311.333 318.667 310.667C318.667 309.867 318.933 309.333 319.2 309.333C319.6 309.333 320.267 309.867 320.667 310.667ZM311.2 312.8C312.4 316 312.4 316 307.067 316H302L305.333 313.333C309.467 310.133 310.133 310.133 311.2 312.8Z" fill="#1D361F"/>
<path d="M402.8 375.2C395.067 392.934 390.667 395.867 383.6 387.734L379.867 383.334L382 387.6C383.067 390 385.6 392.934 387.333 394.134C390.4 396.134 390.933 396.134 394 394.134C398.267 391.334 401.867 385.6 405.467 376.134C409.733 364.667 407.733 363.867 402.8 375.2Z" fill="#1D361F"/>
<path d="M407.333 377.333C406.8 378.133 407.467 380.267 408.667 382.133C410.8 385.467 411.067 385.6 422.4 384.667C428.8 384.133 434.267 383.467 434.533 383.2C436.133 381.733 432.667 380.933 426.933 381.2C423.467 381.333 418.533 381.6 416 381.733C412.4 382 411.067 381.333 409.867 378.933C408.933 376.933 408 376.267 407.333 377.333Z" fill="#1D361F"/>
<path d="M282.133 359.067C280.4 362.8 282 373.733 284.933 379.467C286.8 383.2 289.067 385.2 292.8 386.667C300.267 389.467 301.067 390.267 302 394.667C302.533 396.933 303.467 398.667 304.133 398.667C304.8 398.667 304.933 397.067 304.533 394.933C302.533 386.8 301.6 385.733 295.467 384.133C288 382.267 285.2 377.867 284 365.333C283.467 359.333 282.8 357.467 282.133 359.067Z" fill="#1D361F"/>
<path d="M270.667 354.667C269.467 355.467 269.333 356 270.267 356C271.067 356 272.267 355.333 272.667 354.667C273.733 353.067 273.2 353.067 270.667 354.667Z" fill="#1D361F"/>
<path d="M348.8 407.333C347.6 410.8 347.867 411.6 349.467 408.933C350.267 407.6 350.667 406.133 350.267 405.867C350 405.467 349.333 406.133 348.8 407.333Z" fill="#1D361F"/>
<path d="M368 406.133C368 408 368.4 408 370 406.667C371.067 405.733 372 404.8 372 404.533C372 404.267 371.067 404 370 404C368.933 404 368 404.933 368 406.133Z" fill="#1D361F"/>
<path d="M416.267 413.333C413.867 415.6 412.4 417.333 413.067 417.333C413.733 417.333 415.6 415.867 417.333 414C419.067 412.133 421.333 410.933 422.4 411.333C423.333 411.6 423.733 411.333 423.333 410.667C422.133 408.667 421.067 409.067 416.267 413.333Z" fill="#1D361F"/>
<path d="M414.533 455.467C401.733 468.8 380.267 482 362 488.133C359.067 489.067 357.6 490.133 358.8 490.267C361.733 490.933 377.467 484.933 388 479.067C398.267 473.467 410.933 463.467 417.2 455.867C423.333 448.4 421.733 448.133 414.533 455.467Z" fill="#1D361F"/>
<path d="M385.333 434.8C385.333 435.467 386 435.734 386.667 435.334C387.467 434.934 388 434.267 388 433.867C388 433.6 387.467 433.334 386.667 433.334C386 433.334 385.333 434 385.333 434.8Z" fill="#1D361F"/>
<path d="M416 441.333C416 442 416.667 442.667 417.467 442.667C418.133 442.667 418.4 442 418 441.333C417.6 440.533 416.933 440 416.533 440C416.267 440 416 440.533 416 441.333Z" fill="#1D361F"/>
<path d="M523.333 466.667C523.733 467.333 524.4 468 524.8 468C525.067 468 525.333 467.333 525.333 466.667C525.333 465.867 524.667 465.333 523.867 465.333C523.2 465.333 522.933 465.867 523.333 466.667Z" fill="#1D361F"/>
<path d="M456 483.867C456 484.933 455.067 485.2 453.333 484.667C451.733 484.133 450.667 484.4 450.667 485.333C450.667 486.133 451.333 486.4 452 486C452.8 485.6 453.333 485.867 453.333 486.667C453.333 487.467 454 487.733 454.667 487.333C455.467 486.933 456 487.333 456 488.267C456 489.333 456.667 488.933 457.467 487.6C458.533 485.733 458.533 484.667 457.467 483.6C456.4 482.533 456 482.533 456 483.867Z" fill="#1D361F"/>
<path d="M419.333 501.333C418.933 502 419.067 502.667 419.867 502.667C420.533 502.667 421.6 502 422 501.333C422.4 500.533 422.267 500 421.467 500C420.8 500 419.733 500.533 419.333 501.333Z" fill="#1D361F"/>
<path d="M442 496.8C443.2 498 444.533 498.533 445.067 498.133C445.467 497.6 445.067 496.667 444 496C440.8 494 439.6 494.533 442 496.8Z" fill="#1D361F"/>
<path d="M399.734 535.6C400.667 536 401.867 535.867 402.267 535.467C402.8 535.067 402 534.667 400.534 534.8C399.067 534.8 398.667 535.2 399.734 535.6Z" fill="#1D361F"/>
<path d="M221.067 89.6C223.467 92 223.067 106 220.533 108.533C214.933 114.133 209.333 107.867 209.333 96.1333C209.333 90.4 208.933 89.3333 206.933 89.3333C204.667 89.3333 204.533 90 205.733 98.2667C207.067 108.4 209.733 112 216 112C221.733 112 223.733 108.533 224.267 97.6C224.667 88.8 224.4 88 222.133 88C220 88 219.867 88.4 221.067 89.6Z" fill="#1D361F"/>
<path d="M231.067 95.3335C230.4 96.1335 230.133 99.2001 230.533 102.533C231.467 109.067 234.8 112.4 237.6 109.6C238.8 108.4 238.667 108 236.933 108C235.6 108 234.667 106.933 234.667 105.467C234.667 104 234.267 102 233.867 100.8C233.333 99.4668 234 98.2668 235.733 97.7335C238.533 96.6668 238.533 96.6668 235.467 95.2001C233.333 94.2668 232.133 94.2668 231.067 95.3335Z" fill="#1D361F"/>
<path d="M250.667 101.867C250.667 108.667 252.267 110.267 258.667 110C263.333 109.733 263.333 109.733 263.733 102.933C264.133 96.9335 263.733 96.0001 261.733 96.0001C259.733 96.0001 259.333 96.9335 259.867 102.133C260.267 107.867 260.133 108.133 257.2 107.733C254.4 107.333 254 106.667 254.4 101.6C254.667 97.3335 254.267 96.0001 252.667 96.0001C251.2 96.0001 250.667 97.4668 250.667 101.867Z" fill="#1D361F"/>
<path d="M271.067 96.9334C270.267 97.2001 269.867 98.6667 270.267 100C270.667 101.467 270.267 104.4 269.6 106.667C268.267 110.133 268.4 110.667 270.667 110.667C272.667 110.667 273.2 109.467 273.6 105.067C273.867 100.933 274.667 99.2001 276.4 98.9334C279.467 98.2667 280.8 102.133 279.067 106.8C277.733 110.267 277.867 110.667 280.133 110.667C282.533 110.667 282.8 109.867 282.4 104.4C282 98.2667 281.867 98.0001 277.2 97.3334C274.667 96.8001 271.867 96.6667 271.067 96.9334Z" fill="#1D361F"/>
<path d="M289.2 97.6002C289.2 97.8669 288.933 100.8 288.533 104.4C287.867 111.334 287.867 111.334 296.4 112.534L301.333 113.2V105.867C301.333 100.267 300.933 98.6669 299.2 98.6669C297.733 98.6669 297.467 99.4669 298 101.2C299.333 105.334 297.333 110.667 294.533 110.667C292.4 110.667 292 109.6 292 104.8C292 101.467 291.467 98.4002 290.667 98.0002C290 97.6002 289.333 97.3335 289.2 97.6002Z" fill="#1D361F"/>
<path d="M308.8 100.933C308.4 101.467 308 103.333 308 105.2C308 107.067 307.467 109.6 306.667 110.667C305.867 111.867 306 112.933 307.067 113.6C309.867 115.467 310.667 114.8 310.667 110.267C310.667 104.667 312.4 102 315.333 103.2C317.6 104 317.6 105.067 315.733 113.333C315.467 114.4 316.4 115.467 317.867 115.733C319.2 116 320 115.733 319.467 114.933C319.067 114.267 319.333 111.733 320 109.2C320.933 106 320.933 104.267 319.6 103.2C317.733 101.333 310 99.7335 308.8 100.933Z" fill="#1D361F"/>
<path d="M429.6 104C429.6 105.867 429.867 106.534 430.267 105.6C430.533 104.8 430.533 103.2 430.267 102.267C429.867 101.467 429.6 102.134 429.6 104Z" fill="#1D361F"/>
<path d="M324.533 104.4C326.8 106 326.933 106.933 325.733 111.867C324.4 116.667 324.533 117.333 326.667 117.333C328.533 117.333 328.933 116.133 328.8 110.267C328.667 103.867 328.4 103.333 325.333 102.933C322.133 102.533 322.133 102.533 324.533 104.4Z" fill="#1D361F"/>
<path d="M360.267 104.133C360.533 104.933 361.333 105.467 362 105.467C362.667 105.467 363.467 104.933 363.733 104.133C364 103.333 363.2 102.667 362 102.667C360.8 102.667 360 103.333 360.267 104.133Z" fill="#1D361F"/>
<path d="M345.734 108.933C343.334 109.867 343.6 113.333 346.134 116.133C349.2 119.6 347.067 122.133 343.734 119.067C341.734 117.333 341.067 117.2 341.6 118.533C342.4 121.333 346 123.2 348.534 122.267C351.2 121.2 351.334 115.6 348.667 113.333C347.067 112 346.934 111.2 348 110.133C349.067 109.067 349.734 109.2 350.667 110.667C351.334 111.733 352.267 112.133 352.934 111.6C354.934 109.467 349.334 107.467 345.734 108.933Z" fill="#1D361F"/>
<path d="M356.667 115.6C356.133 118.4 355.2 121.333 354.533 122.133C353.733 123.2 354.133 123.867 355.867 124.4C357.867 124.933 358.533 124.133 359.2 120C359.6 117.2 360.4 114 360.8 112.8C361.333 111.467 360.933 110.667 359.6 110.667C358.4 110.667 357.333 112.533 356.667 115.6Z" fill="#1D361F"/>
<path d="M365.2 120C363.467 125.6 363.467 126.667 365.067 127.333C367.867 128.4 368 128.267 368 125.2C368 121.467 370.4 117.333 372.667 117.333C375.733 117.333 376.133 119.6 374.133 124.533C373.067 127.067 372.533 129.467 373.067 129.867C374.533 131.467 376.8 130.533 376.933 128.267C376.933 127.067 377.467 124 378 121.733C378.8 118 378.533 117.2 375.867 116.267C367.333 113.067 367.467 112.933 365.2 120Z" fill="#1D361F"/>
<path d="M386 119.733C384.533 120.8 383.867 123.6 383.6 130C383.333 132.933 384 134 386 134.4C388 134.667 388.267 134.533 386.8 133.6C385.333 132.533 385.333 131.467 386.667 127.467C387.467 124.8 389.067 122.667 390.133 122.667C392 122.667 392 122.4 390.133 120.667C387.867 118.4 387.867 118.4 386 119.733Z" fill="#1D361F"/>
<path d="M428.533 134.667C428.533 141.6 428.667 144.534 428.933 140.934C429.2 137.467 429.2 131.867 428.933 128.267C428.667 124.8 428.533 127.734 428.533 134.667Z" fill="#1D361F"/>
<path d="M444.933 140.934C443.333 142.534 444 143.867 446 143.2C447.067 142.667 448 141.867 448 141.2C448 139.734 446.133 139.6 444.933 140.934Z" fill="#1D361F"/>
<path d="M447.067 145.6C443.2 148.4 437.333 157.067 437.333 159.867C437.333 160.667 438.267 161.333 439.467 161.333C440.533 161.333 441.2 160.8 440.8 160.133C439.333 157.867 446.667 146.933 450.267 145.733C452.267 145.067 453.2 144.133 452.533 143.6C451.733 143.2 449.333 144.133 447.067 145.6Z" fill="#1D361F"/>
<path d="M449.867 152.667C450.267 153.733 449.733 157.067 448.667 160.133C447.467 163.2 446.933 166 447.2 166.4C448.133 167.2 461.333 159.733 461.333 158.4C461.333 156.533 459.867 157.2 455.733 160.667C450.667 164.933 448.933 163.867 451.467 158C453.733 152.267 453.733 152.4 451.2 151.467C449.6 150.933 449.2 151.2 449.867 152.667Z" fill="#1D361F"/>
<path d="M460 165.333C456.267 169.067 456.533 174.4 460.533 176C462.267 176.667 464.133 177.867 464.667 178.533C465.067 179.333 466.133 180 466.933 180C467.867 180 467.733 179.333 466.8 178.133C465.467 176.667 466.133 175.467 470.133 172.533C473.333 170 474.4 168.533 473.2 168.133C472.133 167.867 470.533 166.533 469.6 165.067C467.333 161.867 463.333 162 460 165.333ZM468.533 166C470 170 465.867 174.667 460.8 174.667C457.733 174.667 458.267 171.6 462 167.467C465.6 163.467 467.333 163.067 468.533 166Z" fill="#1D361F"/>
<path d="M495.733 174.267C497.867 175.067 497.733 177.067 495.333 179.6C494.133 180.667 493.6 182 494 182.4C494.4 182.8 495.467 182.4 496.267 181.6C497.2 180.667 498.933 180 500.4 180C502.667 180 502.667 179.867 500.8 177.867C499.6 176.8 498.667 175.2 498.667 174.534C498.667 173.867 497.6 173.334 496.4 173.467C494.933 173.467 494.667 173.867 495.733 174.267Z" fill="#1D361F"/>
<path d="M479.333 183.334C477.467 185.067 476 187.067 476 187.867C476 188.534 478 191.334 480.533 194C486 199.734 489.733 199.867 493.733 194.534C495.6 191.867 496 190.4 495.067 188.667C493.867 186.667 493.6 186.934 492.933 190.4C492.133 194.534 487.733 198.134 485.333 196.667C483.067 195.2 483.867 192.4 487.333 190.134C489.2 188.934 490.4 187.2 489.867 186.534C489.333 185.6 487.6 186.534 485.467 188.534C481.2 192.667 478.667 192.934 478.667 189.6C478.667 186.267 482.8 182.667 486.533 182.667C488.133 182.667 489.067 182.134 488.667 181.334C487.2 178.934 482.667 179.867 479.333 183.334Z" fill="#1D361F"/>
<path d="M497.733 197.467C491.6 199.733 490.667 207.867 496.133 210.8C499.867 212.667 503.867 211.067 504.8 207.2C505.6 204 505.733 204 508.133 206.133C511.467 209.2 511.333 207.333 507.867 202.533C504.4 197.6 501.333 196 497.733 197.467ZM502.667 200C505.867 202 502.8 208.533 498.267 209.067C494.667 209.467 494 208.533 494.667 204C494.8 202.133 498.267 198.667 499.867 198.667C500.267 198.667 501.6 199.2 502.667 200Z" fill="#1D361F"/>
<path d="M510.533 212C509.467 213.2 507.067 215.2 505.467 216.267C502.4 218.4 502.267 222.667 505.2 222.667C506 222.667 506.267 221.867 505.867 220.8C505.467 219.733 507.067 217.867 509.867 216C512.533 214.4 514.667 212.667 514.667 212C514.667 209.733 512.667 209.733 510.533 212Z" fill="#1D361F"/>
<path d="M515.733 219.733C514.4 221.733 512.4 224.667 511.2 226.267L509.067 229.333H515.467C521.867 229.333 526.667 227.6 525.067 226C524.667 225.467 522.933 225.867 521.333 226.667C519.867 227.467 517.333 228 515.733 227.733C513.067 227.333 513.067 227.2 516.667 222.933C518.8 220.267 519.867 218 519.2 217.333C518.533 216.667 517.067 217.6 515.733 219.733Z" fill="#1D361F"/>
<path d="M535.6 236.933C535.067 237.733 535.6 238.8 536.8 239.2C538.4 239.867 538.667 240.933 538 243.6C537.333 246.667 537.467 246.933 539.2 245.467C541.867 243.2 541.867 242.267 538.933 238.533C537.333 236.8 536.133 236.133 535.6 236.933Z" fill="#1D361F"/>
<path d="M527.333 241.333C526.933 242 525.067 242.667 523.2 242.667C521.333 242.667 519.6 243.6 519.067 244.8C518 247.733 520.933 253.333 523.6 253.333C525.6 253.333 525.467 252.8 522.8 250.8C519.467 248.267 520 245.333 523.867 245.333C525.067 245.333 526.8 244.667 527.6 243.867C530 241.467 533.733 243.467 532.667 246.667C532.133 248.133 532.4 249.333 533.2 249.333C535.333 249.333 534.933 244.533 532.533 242.133C530.133 239.733 528.533 239.467 527.333 241.333Z" fill="#1D361F"/>
<path d="M530.133 257.333C527.333 260.133 525.6 262.667 526.133 263.067C528.4 264.4 539.333 264.667 539.6 263.333C539.867 262.667 537.467 262.267 534.267 262.4L528.667 262.667L533.067 258.933C535.333 256.8 537.333 254.4 537.333 253.6C537.333 251.067 535.733 252 530.133 257.333Z" fill="#1D361F"/>
<path d="M476.667 576.8C457.067 581.467 447.333 585.733 435.6 594.533C431.467 597.733 428 600.533 428 600.8C428 600.933 433.2 598.8 439.733 596C456.267 588.667 468.267 586.133 483.867 586.933C494.933 587.6 499.467 588.533 516.667 594.667C543.2 603.867 549.2 605.333 562.667 605.333C583.333 605.333 601.067 599.6 612.533 589.067L618 584L608 588.667C595.867 594.267 587.333 596 571.867 596C557.6 596 549.6 594.267 521.6 584.667C504.667 578.933 497.467 577.067 489.6 576.667C484 576.4 478.133 576.4 476.667 576.8Z" fill="#1D361F"/>
<path d="M313.067 595.333C307.6 596.8 284.267 607.867 280.667 610.667C280 611.333 277.2 612.4 274.667 613.067L270 614.4L276.133 614.533C279.6 614.667 289.467 612.8 298.133 610.533C321.2 604.533 331.733 604.667 367.067 611.467C384.133 614.667 398.933 615.733 396.533 613.467C394.133 611.2 361.867 598.933 350.667 596.133C338 592.933 322.8 592.667 313.067 595.333Z" fill="#1D361F"/>
<path d="M233.333 624.667C225.6 626.267 214.533 628.933 208.667 630.667C202.8 632.267 194 633.6 188.933 633.733C181.733 634 180.4 634.267 182.133 635.6C188.4 640.267 210 640.4 233.2 636C243.467 634.133 259.867 634.4 275.333 636.667C315.2 642.8 324.4 644 325.067 643.333C326.8 641.6 294 628.8 280 625.733C258.8 621.2 250.133 621.067 233.333 624.667Z" fill="#1D361F"/>
<path d="M398.667 623.6C389.2 625.067 377.6 629.067 360.533 636.8C358.267 637.733 354.933 639.2 353.2 640C348.133 642.267 363.6 640.8 383.2 637.2L400 634.133L427.067 638.533C457.067 643.6 464 643.467 475.333 638L482 634.933L472 634.8C461.6 634.667 453.467 633.067 432 627.333C420 624 405.867 622.533 398.667 623.6Z" fill="#1D361F"/>
</svg>
