<svg width="654" height="679" viewBox="0 0 654 679" fill="none" xmlns="http://www.w3.org/2000/svg">
<path d="M436.801 24.1331C436.401 25.1997 434.001 37.3331 431.468 51.0664C429.068 64.7997 426.801 76.3997 426.401 76.6664C425.868 77.1997 418.001 75.0664 359.868 58.6664C341.868 53.4664 326.001 49.3331 324.801 49.3331C323.601 49.3331 322.668 50.1331 322.668 51.0664C322.668 52.1331 327.868 54.2664 336.401 56.533C347.868 59.733 392.801 72.3997 416.801 79.3331C420.668 80.3997 424.001 82.2664 424.535 83.3331C425.068 84.933 416.401 134.8 408.801 173.333C407.601 178.8 405.468 190.266 404.001 198.666C402.535 207.066 400.668 216.933 400.001 220.666C399.335 224.266 397.868 232.8 396.668 239.466L394.401 251.6L387.601 252.4C373.468 253.866 365.735 261.066 366.935 271.466C367.201 274.266 366.935 275.866 366.135 275.6C364.401 275.066 363.468 268.8 364.535 264.8C364.935 263.333 367.335 259.733 370.001 257.066C374.935 251.866 375.868 249.333 372.801 249.333C368.135 249.333 356.935 261.066 353.868 269.333C350.801 277.333 350.401 277.733 345.868 275.733C342.268 274.133 342.001 273.466 342.135 267.2C342.135 260.4 344.001 255.866 374.268 192C378.268 183.6 386.001 167.066 391.335 155.333C396.668 143.6 404.135 127.466 407.868 119.466C411.601 111.466 414.535 104.666 414.268 104.533C414.001 104.266 408.668 114.933 402.401 128.4C396.001 141.733 382.668 170 372.668 191.333C352.135 234.8 347.601 244.4 343.468 254L340.401 260.666L331.868 260.4C324.801 260.266 323.735 260.533 325.601 261.866C327.068 262.933 327.468 264.133 326.535 265.466C325.601 267.066 325.335 266.933 325.335 265.066C325.335 261.2 320.135 258.666 314.135 259.466C308.268 260.4 304.401 262.666 308.668 262.666C310.668 262.666 310.801 263.066 309.601 264.266C308.668 265.2 308.001 268.133 308.001 270.8C308.001 274.133 307.202 276.4 305.602 277.6C302.535 279.733 299.602 284.933 300.668 286.533C301.602 288.133 295.202 295.6 292.001 296.666C284.935 298.933 280.801 289.066 286.935 284.8C291.068 281.866 294.668 282.133 294.668 285.2C294.668 287.066 293.602 288 291.068 288.266C287.735 288.8 287.602 288.933 289.868 290C293.068 291.333 296.535 289.333 297.068 285.6C297.335 284 299.602 280.666 302.135 278.133C305.602 274.666 306.668 272.533 306.668 268.933C306.668 258.533 294.001 255.466 286.401 264C284.401 266.133 282.135 268 281.335 268C279.068 268 264.268 278.533 263.468 280.8C263.068 282 262.668 285.2 262.668 288C262.668 292.266 262.135 293.2 259.335 293.866C252.935 295.466 248.001 308.8 252.135 312.933C253.335 314.133 253.201 315.333 251.468 317.866C248.935 321.866 248.668 328.4 251.068 330.4C251.868 331.066 253.868 332 255.335 332.266C256.801 332.533 258.135 333.466 258.135 334.4C258.268 335.2 258.401 336.666 258.535 337.466C258.535 338.133 260.401 339.333 262.401 340.133C266.401 341.466 270.668 350 268.535 352C267.868 352.533 260.535 354.266 252.135 355.866C234.668 359.2 232.268 360.266 222.801 368.8C217.468 373.6 216.268 375.333 217.601 376.266C218.935 377.333 218.801 377.466 217.068 376.933C215.868 376.533 213.868 377.333 212.535 378.8C211.335 380.133 207.735 382.8 204.668 384.533C194.268 390.666 181.335 408.266 181.335 416.266C181.335 417.6 179.201 422.933 176.535 428.133C170.001 440.933 168.001 449.066 168.001 464C167.868 475.866 167.735 476.533 165.868 474C161.201 468.133 147.868 438.666 145.335 428.666C143.868 422.8 142.001 412.266 141.068 405.333C140.268 398.4 139.201 392.266 138.668 391.6C135.868 388.4 115.601 409.6 102.935 429.066C88.2682 451.6 82.2681 470.533 82.1348 494C82.0015 512.266 84.4015 521.6 93.0681 535.866C102.535 551.466 119.335 567.6 136.001 576.933C139.601 578.933 142.668 581.066 142.668 581.466C142.668 582.8 126.401 586.533 114.668 588C100.935 589.733 80.0015 589.6 69.4681 587.866C58.4015 585.866 48.1348 581.466 38.8015 574.4C32.1348 569.333 31.7348 569.2 34.2681 572.8C38.2681 578.266 47.8681 587.066 53.3348 590.4C64.1348 596.8 78.5348 600.4 96.0015 601.066C115.068 601.733 125.868 600.133 152.001 592.533C173.335 586.4 192.268 585.066 207.068 588.666C225.068 593.066 237.201 598.533 244.268 605.466C255.335 616.266 261.335 615.866 290.668 602C312.935 591.333 322.535 589.333 339.068 591.733C350.935 593.466 365.335 598 384.401 605.866C397.601 611.333 399.068 611.333 414.268 604.266C422.001 600.8 445.068 585.466 445.201 583.866C445.335 583.466 440.935 581.6 435.735 579.866C427.335 577.066 423.468 576.666 408.001 576.666C391.068 576.8 389.335 577.066 378.801 581.066C368.135 585.066 364.535 585.6 367.468 582.666C368.135 582 373.468 579.866 379.335 577.866C394.801 572.8 414.135 572 429.201 576C435.468 577.6 442.268 579.733 444.401 580.933C447.602 582.533 449.068 582.666 451.735 581.333C456.268 579.333 454.535 577.866 441.735 573.2C436.001 571.2 432.135 569.466 433.068 569.466C435.735 569.333 450.668 574.533 454.135 576.933C457.068 578.8 458.001 578.8 465.068 576.933C482.001 572.133 495.602 573.066 516.268 580.133L524.001 582.8L532.268 578.4C537.868 575.466 545.068 569.6 554.135 560.666C565.201 549.6 568.401 545.466 573.068 536C580.535 520.666 584.002 506.666 584.002 491.466C583.868 465.2 571.468 428.133 558.401 414.933C555.335 411.866 552.535 409.333 552.001 409.333C551.468 409.333 550.668 413.066 550.268 417.6C548.535 433.733 544.935 446.933 538.801 459.066C535.468 465.733 532.001 471.333 531.201 471.6C530.268 471.866 529.468 468.133 528.935 460.8C526.935 432 514.668 409.2 496.535 400.666C489.468 397.333 489.335 397.2 489.335 391.333C489.335 384.533 487.735 383.066 476.401 379.466C472.668 378.133 469.201 376.4 468.801 375.333C467.735 372.266 454.668 366.133 452.935 367.866C450.535 370.266 449.602 369.6 448.668 364.133C447.735 358.266 445.335 355.6 441.735 356.266C439.868 356.666 439.468 357.733 439.735 361.066C440.001 363.466 439.601 365.333 438.801 365.333C436.401 365.333 422.935 356.133 420.801 353.066C419.601 351.466 418.668 348.8 418.801 347.333C418.801 344.8 418.935 344.8 420.935 347.733C424.135 352.266 425.335 351.333 425.335 344.4C425.335 340.4 426.668 335.466 429.335 329.866C432.668 322.8 433.335 319.733 433.468 310.4C433.601 298.666 432.135 293.466 426.401 285.866C423.335 281.733 423.335 281.066 424.268 265.2C425.735 239.733 428.001 170.8 427.735 160.533C427.468 145.866 425.868 173.333 424.001 230C423.068 257.066 422.135 279.466 421.868 279.733C421.735 280 419.735 279.2 417.468 278C411.868 275.2 412.268 276.266 419.335 282.8C424.668 287.733 432.001 300 432.001 304.133C432.001 304.933 429.468 302.933 426.535 299.466C423.468 296 420.668 293.6 420.268 294C419.868 294.4 420.801 296 422.268 297.733C430.801 306.933 432.935 317.6 428.135 326.533L425.735 331.066L424.001 323.866C422.001 315.466 417.201 305.333 413.868 302.533C412.668 301.466 411.868 301.2 412.135 302C412.535 302.666 414.401 306.666 416.268 310.666C420.535 320 423.068 330.933 422.401 338.666C422.001 344.4 421.868 344.533 420.268 341.466C419.201 339.866 417.335 332.666 415.868 325.733C413.468 313.733 410.801 305.866 410.668 310.666C410.668 314.4 414.401 337.2 415.335 338.666C415.868 339.466 416.401 342.8 416.535 346C416.801 351.066 416.535 351.733 414.935 350.266C411.868 347.733 409.601 341.333 408.535 332C407.335 321.2 406.135 317.6 401.735 313.066C399.201 310.533 397.868 307.2 397.335 302.533L396.401 295.733L404.001 296.266C409.068 296.666 412.935 297.866 415.868 299.866C421.335 303.866 422.401 302.8 417.601 298.266C414.801 295.466 410.935 294.133 400.801 292.133C384.535 288.8 381.601 286.8 394.535 287.733C400.401 288.133 404.001 287.866 404.001 287.066C404.001 286.266 399.335 285.333 393.735 284.8C377.601 283.466 369.335 278.133 369.335 268.933C369.335 256 392.268 251.066 406.935 260.8C409.868 262.666 413.735 267.2 416.268 271.6C421.201 280.266 422.801 279.2 418.535 270.133C415.468 263.466 409.735 258 403.201 255.2L399.068 253.466L405.468 219.066C409.068 200.133 412.535 180.133 413.335 174.666C415.335 161.466 426.401 98.3997 428.135 90.2664C429.201 85.8664 430.268 83.9997 431.735 83.9997C433.068 83.9997 457.602 90.6664 486.401 98.7997C532.935 112 546.001 114.8 541.868 110.666C541.201 110 529.602 106.4 516.001 102.666C495.468 96.933 441.468 81.733 432.935 79.1997C430.135 78.3997 430.135 78.2664 436.135 45.3331C438.268 33.0664 439.335 24.1331 438.668 23.4664C437.868 22.6664 437.201 22.933 436.801 24.1331ZM366.268 258.4C359.601 265.333 358.668 275.733 364.401 278.4C367.068 279.6 366.935 279.733 362.401 280.666C356.535 281.733 354.668 280.8 354.668 276.8C354.668 272.533 361.068 260.4 364.935 257.333C369.868 253.466 370.401 254 366.268 258.4ZM301.202 264.533C304.135 268 302.401 275.066 298.268 277.333C294.801 279.2 294.401 279.2 292.668 276.8C290.135 273.466 292.535 270.266 296.935 271.066C301.202 271.866 300.801 269.6 296.535 268.533C292.001 267.333 288.935 270.533 289.068 276.266C289.202 280.4 289.068 280.533 287.201 278.133C282.668 272 287.602 262.666 295.335 262.666C297.735 262.666 300.401 263.466 301.202 264.533ZM321.335 264.666C322.135 265.733 322.535 267.733 322.001 269.333C320.935 272.533 316.001 272.933 316.001 269.866C316.001 268.533 316.801 268 318.001 268.533C320.268 269.333 320.801 267.333 318.668 266C316.401 264.666 313.201 268.133 313.601 271.2C313.868 273.066 315.335 274.266 318.001 274.933C321.468 275.733 321.335 275.733 316.668 275.6C311.868 275.333 311.335 274.933 310.935 271.6C310.135 264.8 317.468 260 321.335 264.666ZM337.601 264.933C340.401 267.466 340.668 270.8 338.401 273.066C336.135 275.333 332.935 275.066 333.868 272.666C334.801 270.266 333.201 270 330.935 272.266C329.735 273.466 329.335 272.933 329.335 269.866C329.335 263.2 333.201 260.933 337.601 264.933ZM326.135 271.466C325.601 272.666 324.935 273.466 324.668 273.066C324.268 272.666 324.268 271.333 324.801 270.133C325.335 268.933 326.001 268.133 326.268 268.533C326.668 268.933 326.668 270.266 326.135 271.466ZM282.668 271.2C282.668 272.4 281.735 272.8 280.001 272.4C278.535 272 277.735 271.2 278.135 270.533C279.201 268.666 282.668 269.2 282.668 271.2ZM284.001 278C285.735 279.866 286.401 281.333 285.468 281.333C284.535 281.333 282.935 283.466 281.868 286C280.668 288.8 279.068 290.666 277.602 290.666C276.268 290.666 274.001 291.6 272.535 292.666C266.268 296.933 261.868 286.133 267.335 280C269.468 277.6 275.201 275.2 279.468 274.8C280.268 274.666 282.268 276.133 284.001 278ZM328.001 275.466C328.001 276 327.068 277.066 325.868 278C323.601 279.6 324.268 285.333 326.801 285.333C327.601 285.333 327.735 284.133 327.335 282.666C326.668 280.533 327.068 280 329.201 280C333.068 280 332.668 283.733 328.668 285.6C325.868 286.8 324.935 286.666 322.668 284.666C319.335 281.6 319.335 280.666 322.668 277.333C325.201 274.8 328.001 273.866 328.001 275.466ZM345.335 278.666C347.468 280 346.401 280.4 341.735 280C340.001 279.866 338.668 280.4 338.668 281.2C338.668 282 339.868 282.666 341.335 282.666C344.401 282.666 344.935 285.066 342.001 286.133C339.601 287.066 336.001 284.4 336.001 281.733C336.001 280.8 337.335 279.333 339.068 278.666C342.935 277.2 342.935 277.2 345.335 278.666ZM317.735 283.066C316.535 287.466 314.668 289.333 311.335 289.333C306.268 289.333 304.001 287.866 304.001 284.666C304.001 281.733 306.268 280 310.135 280C311.201 280 312.001 280.533 312.001 281.333C312.001 282 311.068 282.666 310.001 282.666C308.935 282.666 308.001 283.2 308.001 284C308.001 286.8 312.935 285.2 314.401 281.866C316.268 277.866 318.801 278.666 317.735 283.066ZM348.801 283.733C346.668 285.733 345.468 286.4 346.001 285.333C347.735 282 351.068 278.666 351.868 279.333C352.268 279.733 350.801 281.733 348.801 283.733ZM376.268 283.866C379.601 286 382.801 288.4 383.201 289.2C383.735 290 386.535 291.866 389.468 293.333C394.268 295.866 394.668 296.4 394.668 301.733C394.668 307.466 394.535 307.466 390.535 306.933C387.601 306.533 385.601 307.2 383.335 309.333C378.801 313.6 378.001 318.8 380.668 326.8C383.601 335.333 384.401 334.666 382.401 325.2C380.535 316 382.668 310.266 388.268 309.6C393.201 309.066 397.335 311.466 397.335 315.066C397.335 316.8 398.001 318.8 398.935 319.733C400.135 320.933 400.001 321.733 398.401 322.933C397.335 323.866 395.601 325.866 394.535 327.466C393.468 328.933 390.535 332.133 387.735 334.533L382.935 338.8L381.335 333.733C379.468 328 369.335 317.333 365.735 317.333C363.468 317.466 363.468 317.6 365.868 319.333C367.335 320.4 368.268 321.466 367.868 321.866C366.001 323.466 360.935 325.466 360.401 324.8C360.001 324.4 360.401 318.666 361.335 312C362.935 300.4 362.935 299.733 360.401 296.266C357.601 292.533 356.001 292.266 351.335 294.133C349.201 294.933 349.468 294.266 352.668 290.4C354.935 287.733 357.601 285.466 358.668 285.466C359.735 285.333 362.535 284.133 364.668 282.8C369.868 279.466 369.201 279.333 376.268 283.866ZM353.335 286.666C352.535 288.133 351.068 289.333 349.868 289.333C348.268 289.333 348.268 288.8 349.335 286.666C350.135 285.2 351.601 284 352.801 284C354.401 284 354.401 284.533 353.335 286.666ZM339.335 289.333C341.201 289.333 343.868 290.533 345.335 292C347.868 294.533 347.868 294.533 344.001 293.733C339.601 292.933 334.401 295.6 332.135 299.866C330.935 301.866 332.001 305.066 336.668 315.066C343.335 329.066 343.868 332 340.001 332C338.535 332 337.335 331.333 337.335 330.533C337.335 329.466 336.801 329.466 335.468 330.533C334.135 331.6 333.335 331.733 332.668 330.666C331.601 328.933 333.068 326.666 335.468 326.666C338.001 326.666 337.868 326.133 333.068 317.2C325.468 302.8 318.268 299.066 305.202 302.666C300.268 304 289.335 312.533 289.335 315.066C289.335 315.866 290.935 314.933 293.068 312.933C298.135 308 305.468 305.333 313.735 305.333C321.601 305.333 322.801 306.133 330.535 317.6C334.668 323.866 334.668 323.866 331.868 325.333C329.601 326.533 329.201 327.733 329.868 330.8C330.401 333.6 330.135 334.666 328.801 334.666C327.735 334.666 324.668 338.133 321.868 342.266C319.068 346.533 315.201 351.333 313.468 353.066L310.135 356.133L308.668 350.4C307.468 345.333 306.535 344.266 300.135 341.066C290.135 336 288.668 334.266 286.135 325.466C284.935 321.333 282.801 316.533 281.335 314.933C278.001 311.333 278.001 311.066 281.735 310.133C283.468 309.733 286.001 307.333 287.335 304.8C288.801 302.266 291.202 299.866 292.935 299.333C294.535 298.933 297.202 296.933 298.801 294.8C301.335 291.466 302.135 291.066 307.468 291.733C311.335 292.133 314.268 291.733 316.268 290.4C318.135 289.2 321.468 288.666 324.801 289.066C328.668 289.466 330.668 288.933 332.001 287.333C333.601 285.333 333.868 285.333 334.935 287.2C335.601 288.4 337.601 289.333 339.335 289.333ZM280.535 294.533C280.935 295.2 280.001 296.133 278.268 296.666C275.868 297.466 276.268 297.733 280.935 298.533C284.135 299.066 286.935 299.866 287.468 300.4C288.935 301.733 281.602 308 278.535 308C274.801 308 270.668 304.4 270.668 301.066C270.668 296.4 278.535 291.2 280.535 294.533ZM266.935 295.333C268.135 295.866 268.668 297.6 268.268 300.666C268.001 303.333 268.401 306.266 269.335 307.333C271.068 309.333 270.135 312 267.735 312C266.935 312 265.201 312.933 263.868 314.133C261.868 316 261.201 316 257.601 314.133C255.468 313.066 253.335 310.666 252.801 308.8C250.935 301.066 259.868 292.666 266.935 295.333ZM348.535 297.2C348.935 297.866 346.801 298.666 343.868 299.066C340.935 299.466 337.601 300.933 336.668 302.266C334.801 304.533 334.801 304.533 334.668 301.733C334.668 300.133 335.735 298.133 337.068 297.466C339.868 295.733 347.601 295.6 348.535 297.2ZM356.401 296.933C355.468 297.2 353.868 297.2 353.068 296.933C352.135 296.533 352.801 296.266 354.668 296.266C356.535 296.266 357.201 296.533 356.401 296.933ZM359.201 302C358.668 303.066 358.135 304 357.868 304C357.601 304 357.335 303.066 357.335 302C357.335 300.933 357.868 300 358.668 300C359.335 300 359.601 300.933 359.201 302ZM349.335 302.533C349.335 303.333 348.801 304.266 348.001 304.666C347.335 305.066 346.668 304.533 346.668 303.466C346.668 302.266 347.335 301.333 348.001 301.333C348.801 301.333 349.335 301.866 349.335 302.533ZM338.668 306C337.201 307.733 337.468 308 340.135 308.266C341.868 308.266 344.401 308.4 345.735 308.266C347.335 308.133 348.001 309.066 348.001 311.733C348.001 313.733 349.335 319.066 350.935 323.6C352.535 328.133 353.601 332.266 353.201 332.666C352.001 333.733 345.335 330.533 345.335 328.8C345.335 328.133 343.201 322.8 340.535 317.066C336.401 308.4 335.868 306.4 337.335 304.666C338.268 303.466 339.335 302.933 339.735 303.333C340.135 303.6 339.601 304.8 338.668 306ZM359.468 308.266C359.068 310 358.268 315.066 357.735 319.6C357.335 324.266 356.535 328 356.001 328C354.935 328 350.668 313.866 350.668 310.533C350.668 309.466 352.268 307.866 354.401 307.066C359.868 304.933 360.401 305.066 359.468 308.266ZM278.535 315.333C279.468 316.266 281.868 321.733 283.868 327.466C287.335 337.866 287.335 337.866 295.868 342.666C306.801 348.8 308.668 352.4 303.602 356.8C301.468 358.533 298.935 360 297.868 360C293.868 360 289.468 353.466 285.868 342C282.668 331.866 281.735 330.133 278.401 328.8C275.468 327.733 274.668 326.533 274.668 323.333C274.668 321.066 273.735 318 272.668 316.533C271.601 315.2 270.668 313.466 270.668 312.933C270.668 311.466 276.268 313.2 278.535 315.333ZM270.401 317.6C271.335 318.533 272.001 321.466 272.001 324.133C272.001 328.266 272.535 329.2 276.001 330.666C280.135 332.4 282.268 336.933 280.801 340.8C279.602 344 276.935 342.4 273.335 335.866C271.468 332.666 268.401 328.4 266.401 326.4C264.268 324.4 262.668 322 262.668 320.933C262.668 318.8 265.335 316 267.335 316C268.135 316 269.468 316.666 270.401 317.6ZM404.001 323.466C404.001 326.533 400.668 328.8 399.201 326.533C398.801 325.733 399.468 324 400.668 322.666C402.135 321.066 402.401 320 401.468 319.333C400.668 318.933 400.001 317.733 400.001 316.933C400.135 314 404.001 320.4 404.001 323.466ZM260.001 320.533C260.001 322.4 260.668 324.266 261.335 324.666C262.135 325.066 262.668 326.4 262.668 327.466C262.668 330.266 253.468 329.466 251.601 326.4C249.335 322.933 252.535 317.333 256.668 317.333C259.335 317.333 260.001 318 260.001 320.533ZM374.268 327.333C380.801 331.866 381.601 348.933 375.868 358.266C372.135 364.266 371.601 363.2 374.001 355.2C376.135 348.266 376.668 337.333 375.068 337.333C374.401 337.333 373.868 339.866 373.735 343.066C373.601 346.133 372.535 351.6 371.335 355.2C370.135 358.666 369.201 364.4 369.335 367.733C369.468 371.2 369.468 375.466 369.468 377.333C369.201 380.533 369.201 380.533 367.335 378.133C364.668 374.666 364.801 363.466 367.468 355.466C368.801 351.466 369.335 346.8 368.935 343.066C368.668 339.866 368.668 336 368.935 334.533C369.601 332 369.868 332 372.135 334.133C373.601 335.333 374.668 335.866 374.668 335.066C374.668 334.4 373.468 332.666 372.135 331.466C368.801 328.533 360.268 329.333 357.735 332.8C356.135 334.933 356.268 335.333 358.668 336.266C360.935 337.066 361.201 337.733 360.001 339.866C357.601 344.533 358.935 353.2 362.535 356C363.068 356.4 363.068 360.533 362.668 365.333L362.001 374L357.735 365.733C352.001 354.8 351.201 349.066 354.001 338.8C356.535 330.133 356.935 329.6 363.335 327.2C368.935 325.066 371.068 325.066 374.268 327.333ZM400.935 336.4C402.268 348.133 393.201 360.666 386.801 355.733C380.135 350.533 380.935 345.6 390.268 335.866C394.935 330.933 398.268 328.4 399.068 329.2C399.735 329.866 400.668 333.066 400.935 336.4ZM406.801 339.733C407.868 344.666 409.601 348.4 412.668 351.733C415.068 354.533 417.468 358.533 417.868 360.933C418.401 363.2 420.801 367.2 423.201 369.6C427.201 373.733 430.268 375.466 437.735 377.866C441.068 378.933 440.535 382.666 436.135 389.733C430.001 399.2 425.735 400.8 400.135 402.533C383.201 403.6 377.868 403.6 377.201 402.4C375.868 400.266 373.335 385.6 373.335 380.133C373.335 376.933 374.801 374.133 378.668 369.733C381.601 366.4 384.001 362.666 384.001 361.333C384.001 359.6 384.935 359.2 388.001 359.733C397.068 361.066 404.935 349.466 403.601 336.533C402.935 330 404.135 324.666 405.068 330.266C405.335 331.6 406.135 335.866 406.801 339.733ZM268.535 332.266C270.401 334.933 270.401 335.333 268.001 336.933C262.401 340.8 257.068 335.2 262.401 331.2C265.468 328.8 266.268 328.933 268.535 332.266ZM365.601 334.933C364.668 335.866 364.001 336 364.001 335.2C364.001 334.4 364.401 333.333 364.935 332.933C365.335 332.4 366.135 332.266 366.535 332.666C366.801 333.066 366.401 334.133 365.601 334.933ZM351.735 337.066C352.401 339.2 350.535 339.066 345.201 336.8C341.601 335.333 341.335 334.8 343.468 334.4C346.668 333.733 351.068 335.066 351.735 337.066ZM329.735 342.133C326.535 345.6 324.001 348.933 324.001 349.466C324.001 351.466 326.535 350.8 327.868 348.266C331.468 342 331.735 341.866 333.735 344.533C335.335 346.666 335.335 347.333 333.468 349.333C332.268 350.533 329.468 354.266 327.068 357.733C322.135 364.933 317.601 366.666 312.668 363.466C309.068 361.066 308.135 357.333 311.201 357.333C312.935 357.333 317.201 352.8 326.401 341.466C328.801 338.533 331.868 336 333.201 336C334.935 336 334.001 337.6 329.735 342.133ZM275.068 342.133C278.268 345.866 278.535 346.8 276.935 347.466C272.401 349.2 270.001 347.466 269.601 342.266C269.068 336.266 270.268 336.133 275.068 342.133ZM337.335 341.333C337.335 342 338.001 342.666 338.801 342.666C339.468 342.666 339.735 342.133 339.335 341.333C338.935 340.533 339.468 340.4 340.668 340.8C343.868 342.133 340.801 344.4 337.468 343.333C334.668 342.533 333.601 340 336.001 340C336.801 340 337.335 340.533 337.335 341.333ZM349.601 343.333C348.935 346.8 348.801 346.933 346.135 345.866C344.935 345.466 344.001 343.866 344.001 342.4C344.001 340.533 344.801 339.866 347.068 340.266C349.201 340.533 349.868 341.466 349.601 343.333ZM366.401 344.8C366.668 346.933 366.268 350.266 365.601 352L364.268 355.333L362.801 351.466C361.068 346.933 362.135 339.6 364.401 340.4C365.335 340.666 366.135 342.666 366.401 344.8ZM291.335 359.6C293.202 361.333 296.268 362.666 298.135 362.666C301.068 362.666 301.335 363.2 301.335 368.266C301.335 381.6 316.001 384.266 325.201 372.533C330.535 365.733 329.335 370.266 323.868 377.466C317.735 385.733 309.602 402 305.468 414.666C303.868 419.466 302.268 424.133 302.001 425.2C300.935 427.866 298.001 424.933 294.401 417.6C288.268 405.333 269.601 389.733 257.068 386.533L251.335 385.066L262.001 374.266C270.001 366 274.001 360.666 277.868 352.8L282.935 342.266L285.335 349.466C286.668 353.466 289.335 358 291.335 359.6ZM347.601 349.066C348.401 349.6 349.601 353.2 350.135 356.933C350.935 363.6 350.935 363.866 347.468 364.8C339.468 366.8 332.135 360.933 333.868 354C335.068 349.2 343.335 346.266 347.601 349.066ZM274.401 353.6C274.001 354.533 272.401 356 270.801 356.8C268.668 357.866 268.268 358.533 269.601 359.2C270.935 359.733 270.801 359.866 269.335 359.733C266.401 359.466 262.535 361.466 263.335 362.8C263.735 363.333 265.068 363.466 266.268 363.066C268.268 362.266 268.401 362.4 266.668 364.266C264.935 366.133 264.535 366 262.668 363.466C261.601 362 260.801 360.266 261.068 359.6C261.201 359.066 260.001 358.666 258.401 358.666C254.535 358.666 255.735 357.866 261.335 356.8C264.135 356.4 265.335 356.4 264.135 357.2C263.068 357.866 262.935 358.666 263.735 359.2C264.401 359.6 265.735 359.066 266.668 358C267.601 356.933 267.868 356 267.201 356C265.735 355.866 272.135 352.133 273.735 352C274.401 352 274.668 352.8 274.401 353.6ZM381.335 360.533C379.868 364.533 373.201 373.333 371.735 373.333C370.535 373.333 372.935 368 377.201 360.266C380.668 354.266 383.735 354.4 381.335 360.533ZM429.868 365.6C430.535 366.133 429.335 365.866 427.068 365.066C424.668 364.133 422.135 362 421.335 360.133C419.735 356.666 419.868 356.666 424.268 360.666C426.668 362.8 429.201 365.066 429.868 365.6ZM446.401 364.266C447.735 369.333 447.335 370.133 444.535 368.266C442.668 367.066 440.935 360.266 442.135 358.533C443.335 356.533 444.935 358.533 446.401 364.266ZM256.401 359.733C257.601 360.266 254.935 360.8 250.401 360.8C244.268 360.933 243.068 360.666 246.001 360C251.201 358.666 253.468 358.666 256.401 359.733ZM332.001 360C332.001 360.8 333.468 362.933 335.335 364.666C339.068 368.533 347.201 369.2 350.801 365.866C352.135 364.666 353.335 364.4 353.868 365.066C354.268 365.866 352.801 368 350.535 369.866C343.201 376.133 331.601 373.733 329.068 365.6C328.801 364.533 327.201 365.866 325.335 368.933C320.801 375.866 312.535 378.933 307.468 375.6C304.801 373.866 304.001 372.133 304.001 368.8C304.001 360.533 305.201 359.466 309.468 364.133C312.935 367.866 314.001 368.266 318.401 367.6C321.735 367.066 324.401 365.466 326.668 362.8C330.135 358.533 332.001 357.6 332.001 360ZM233.735 368.533C234.268 369.866 233.868 370.266 232.668 369.733C231.601 369.333 231.068 368.533 231.468 367.866C232.401 366.266 232.935 366.4 233.735 368.533ZM256.401 367.6C255.468 367.866 253.601 367.866 252.401 367.6C251.068 367.2 251.868 366.933 254.001 366.933C256.268 366.933 257.201 367.2 256.401 367.6ZM256.668 370.666C256.268 371.333 253.868 371.866 251.601 371.866L247.335 371.6L252.001 370.666C254.535 370.133 256.801 369.6 257.068 369.466C257.335 369.466 257.068 369.866 256.668 370.666ZM358.935 373.2C360.801 376.533 360.801 377.466 359.335 378.666C356.135 381.333 347.735 394.8 345.335 401.066L343.068 406.933L340.135 400.8C337.335 395.2 332.801 390.266 328.935 388.933C327.868 388.666 327.868 386.533 329.201 381.066L330.801 373.466L335.468 375.466C341.068 377.733 348.801 376.266 352.668 372C355.868 368.533 356.268 368.666 358.935 373.2ZM458.668 371.866C460.401 375.2 460.401 385.733 458.668 384.666C458.001 384.266 457.335 382.133 457.335 379.866C457.335 377.733 456.135 374.8 454.801 373.466C453.335 372 452.535 370.533 453.068 370.133C454.535 368.533 457.335 369.466 458.668 371.866ZM246.268 371.466C245.868 371.866 244.668 372 243.735 371.6C242.668 371.2 243.068 370.8 244.535 370.8C246.001 370.666 246.801 371.066 246.268 371.466ZM223.335 374.933C222.135 375.733 220.801 375.866 220.401 375.466C219.868 375.066 220.268 374.666 221.201 374.666C222.135 374.666 222.401 374.133 222.001 373.333C221.468 372.533 222.135 372.4 223.468 372.933C225.468 373.733 225.468 373.866 223.335 374.933ZM238.268 372.8C237.868 373.2 236.668 373.333 235.735 372.933C234.668 372.533 235.068 372.133 236.535 372.133C238.001 372 238.801 372.4 238.268 372.8ZM467.735 377.333C470.535 381.6 471.468 388.266 469.868 392.533C468.401 396.266 466.668 393.333 466.668 387.333C466.668 383.733 465.602 379.6 463.735 376.533C460.001 370.266 463.335 370.933 467.735 377.333ZM258.535 375.066C258.268 375.333 255.201 377.733 251.868 380.4C244.801 386 242.535 386.533 243.735 382.4C244.135 380.533 244.001 379.866 242.935 380.533C242.001 381.066 241.335 382.666 241.335 384C241.335 388.533 234.668 394.533 221.335 402.133C206.935 410.266 198.668 411.866 210.401 404.266C217.468 399.733 225.335 391.333 225.335 388.4C225.335 386 220.401 388.133 211.735 394.133C197.201 404.133 193.468 409.333 192.135 421.2C191.735 425.333 190.535 428.666 189.601 429.066C188.268 429.466 188.001 428 188.668 422.4C190.535 407.866 191.735 405.066 201.068 395.466C206.001 390.533 208.801 386.933 207.335 387.733C202.668 390.133 190.935 403.2 188.801 408C187.735 410.666 186.401 417.066 186.001 422.4C185.068 430.933 183.601 434.8 181.868 433.066C180.535 431.6 184.268 410.933 186.801 406.133C190.268 399.2 199.068 390 206.135 385.866C214.001 381.2 222.535 378.933 240.668 376.533C249.468 375.333 256.935 374.133 257.201 373.866C257.468 373.6 258.135 373.6 258.401 374C258.801 374.4 258.801 374.8 258.535 375.066ZM438.001 374.666C438.401 375.466 437.868 375.6 436.801 375.2C434.401 374.266 434.001 373.333 435.868 373.333C436.668 373.333 437.601 373.866 438.001 374.666ZM445.602 381.066C445.335 383.066 443.868 386.266 442.535 388L439.868 391.333L442.001 386.933C443.068 384.666 443.735 382.666 443.335 382.666C442.935 382.666 443.201 381.466 444.001 380C445.868 376.4 446.268 376.666 445.602 381.066ZM451.201 378.933C450.535 380 450.935 380.133 452.401 379.6C454.135 378.933 454.668 379.466 454.801 381.733C454.935 383.333 455.201 386.266 455.468 388.4C455.602 390.533 455.335 391.733 454.535 391.2C453.868 390.8 453.602 389.2 454.135 387.6C454.935 385.066 454.801 384.933 452.801 386.533C451.602 387.6 450.668 387.733 450.668 386.933C450.668 386.133 451.335 385.066 452.001 384.666C452.801 384.266 453.335 383.2 453.335 382.4C453.335 381.466 452.801 381.466 451.735 382.4C450.401 383.466 450.001 382.933 449.868 380.533C449.735 378.8 450.135 377.333 450.935 377.333C451.602 377.333 451.735 378 451.201 378.933ZM367.335 388.933C366.935 390.666 366.935 392 367.335 392C367.735 392 368.668 390.666 369.335 388.933C370.535 386.133 370.535 386.133 370.535 389.466C370.668 391.466 369.735 393.333 368.668 393.866C367.601 394.266 366.668 395.866 366.668 397.466C366.668 399.2 365.601 401.6 364.401 402.933C362.668 404.933 362.401 406.133 363.468 409.066C364.268 411.066 365.601 412.533 366.401 412.266C367.335 412.133 368.001 412.533 368.001 413.066C368.001 413.733 369.468 414.933 371.201 415.733C373.068 416.533 374.268 418.133 374.268 419.6C374.135 421.066 374.801 421.866 376.001 421.6C377.068 421.333 377.601 421.6 376.935 422.133C375.468 423.6 370.668 423.733 370.668 422.4C370.668 421.733 368.801 421.466 366.668 422C360.268 423.333 358.401 420.933 358.935 411.733C359.068 407.2 359.868 404 360.801 404C363.601 404 365.868 397.2 365.468 389.6C365.335 387.066 365.068 386.8 363.468 388.266C362.535 389.2 362.001 390.933 362.268 392C362.801 393.733 362.668 393.733 361.601 392.133C360.668 390.8 360.801 389.333 362.135 387.333C363.201 385.733 363.735 383.2 363.201 381.866C362.668 380 363.068 380.133 365.201 382.666C366.935 384.8 367.735 387.066 367.335 388.933ZM476.135 383.2C477.201 385.333 477.201 387.733 476.401 390.133C474.268 396.533 472.401 395.2 472.535 387.333C472.668 379.466 473.868 378.133 476.135 383.2ZM485.335 385.333C488.135 388.133 489.068 396 486.668 396C486.001 396 485.335 394.533 485.335 392.666C485.335 390.666 483.868 387.866 481.868 386C479.068 383.466 478.801 382.666 480.535 382.666C481.735 382.666 483.868 383.866 485.335 385.333ZM360.668 386.533C360.268 387.333 359.201 388 358.535 388C357.868 388 358.001 387.2 358.935 386.133C360.801 384 362.135 384.4 360.668 386.533ZM463.602 387.6C462.535 393.333 465.068 397.333 469.868 397.333C473.068 397.333 473.468 397.733 472.001 398.666C470.935 399.333 468.935 399.6 467.735 399.2C465.868 398.666 465.602 399.066 466.268 400.933C466.668 402.266 466.668 402.933 466.135 402.4C465.602 402 465.068 400.8 464.801 399.733C464.268 395.733 462.535 394.4 460.268 396.266C458.668 397.466 458.668 397.066 460.535 395.066C463.068 392.133 462.935 392 459.868 390.8C456.668 389.466 456.668 389.466 459.735 389.466C461.735 389.333 462.668 388.533 462.668 386.666C462.668 385.2 463.068 384 463.468 384C464.001 384 464.001 385.6 463.602 387.6ZM359.201 391.466C359.868 393.333 359.735 393.466 358.001 392C355.735 390.133 355.468 389.333 357.201 389.333C357.868 389.333 358.801 390.266 359.201 391.466ZM449.335 389.866C449.335 390.133 448.401 390.8 447.201 391.2C446.135 391.6 445.602 391.466 446.001 390.666C446.801 389.333 449.335 388.8 449.335 389.866ZM357.868 399.733C358.268 400.4 357.735 401.866 356.535 402.8C354.801 404.266 354.535 404.133 354.935 402C355.068 400.666 354.535 399.333 353.468 398.933C352.135 398.533 351.868 399.066 352.401 401.2C352.801 402.933 352.535 403.733 351.735 403.2C350.935 402.666 350.668 403.333 351.335 405.2C351.868 406.8 351.335 409.2 350.135 410.933C347.601 414.533 347.335 416.533 349.735 415.2C351.068 414.4 351.068 414.666 349.735 416.133C348.801 417.066 348.001 419.733 347.868 421.866C347.868 425.466 347.601 425.6 346.668 423.333C345.601 420.8 345.468 420.8 345.468 423.6C345.335 425.333 344.668 426.666 343.868 426.666C342.935 426.666 342.668 425.333 343.201 423.2C343.735 421.2 344.535 418 344.935 415.866C345.335 413.733 346.268 412.4 347.068 412.933C347.868 413.466 348.135 412.933 347.601 411.6C346.801 409.466 351.068 396.666 353.735 393.466C354.935 392 355.468 392.4 356.135 395.066C356.668 396.933 357.468 399.066 357.868 399.733ZM374.535 406.266C376.535 412.133 379.468 419.066 380.935 421.733C383.335 425.733 383.468 426.4 381.601 426C380.268 425.733 378.801 425.466 378.001 425.466C377.335 425.333 377.468 424.8 378.401 424.133C379.868 423.333 379.735 422.266 377.601 418.8C376.268 416.533 374.668 415.066 374.135 415.733C373.601 416.266 373.201 416 373.335 415.333C374.001 412.133 373.201 409.2 371.868 410C371.068 410.533 370.801 411.866 371.335 413.066C372.001 414.8 371.601 414.666 369.468 412.8C366.001 409.6 364.668 405.6 366.535 403.466C367.335 402.533 368.135 400.133 368.268 398.133C368.801 392.266 370.801 394.8 374.535 406.266ZM442.001 396C441.601 396.666 440.401 397.333 439.601 397.333C438.668 397.333 438.801 396.8 440.001 396C442.535 394.4 443.068 394.4 442.001 396ZM211.335 399.333C209.201 401.066 206.801 402.533 206.135 402.666C205.335 402.666 206.801 401.2 209.335 399.333C215.201 395.066 216.535 395.066 211.335 399.333ZM442.668 400C439.468 402 437.868 401.466 440.801 399.466C442.135 398.4 443.602 397.866 444.001 398.133C444.268 398.533 443.735 399.333 442.668 400ZM431.068 404.533C429.735 406.266 427.735 407.733 426.668 407.6C425.601 407.466 424.535 407.866 424.535 408.666C424.401 409.333 424.935 409.866 425.735 409.6C426.668 409.333 426.535 409.866 425.601 411.066C424.401 412.4 424.401 413.333 425.735 414.666C426.535 415.733 426.001 415.466 424.268 414C422.001 412.133 420.935 411.866 419.735 413.066C418.668 414.133 418.668 415.066 419.735 416.4C420.935 417.733 420.801 418.8 419.335 420.8C417.468 423.2 417.201 423.2 415.601 421.066C414.535 419.733 413.468 419.066 413.068 419.466C412.668 419.733 412.001 419.2 411.468 418C411.068 416.8 411.601 415.6 412.668 415.2C413.735 414.666 414.268 413.866 413.868 413.2C413.468 412.533 413.735 412.133 414.401 412.266C415.068 412.533 417.735 410.8 420.135 408.666C422.668 406.4 425.735 404.8 426.935 405.066C428.135 405.333 430.001 404.266 430.935 402.8C431.868 401.333 432.801 400.4 433.068 400.666C433.335 400.933 432.535 402.666 431.068 404.533ZM436.535 402C435.868 403.466 436.268 403.866 438.135 403.2C439.601 402.666 440.268 402.666 439.868 403.2C439.335 403.733 437.735 404.266 436.135 404.666C433.735 405.066 433.468 404.8 434.668 402.533C436.401 399.466 437.601 399.066 436.535 402ZM481.335 401.866C481.335 402.133 480.401 402.8 479.201 403.2C478.135 403.6 477.602 403.466 478.001 402.666C478.801 401.333 481.335 400.8 481.335 401.866ZM485.335 401.866C485.335 402.266 484.801 402.933 484.001 403.333C483.335 403.733 482.668 403.466 482.668 402.8C482.668 402 483.335 401.333 484.001 401.333C484.801 401.333 485.335 401.6 485.335 401.866ZM490.268 402.133C489.868 402.533 488.668 402.666 487.735 402.266C486.668 401.866 487.068 401.466 488.535 401.466C490.001 401.333 490.801 401.733 490.268 402.133ZM249.068 408.666C250.668 412 251.468 414.666 250.801 414.666C248.935 414.666 245.335 410.666 245.335 408.666C245.335 407.733 244.935 406 244.535 404.8C242.668 400 246.401 403.066 249.068 408.666ZM470.668 403.2C470.668 403.466 469.735 404.133 468.535 404.533C467.468 404.933 466.935 404.8 467.335 404C468.135 402.666 470.668 402.133 470.668 403.2ZM507.868 413.866C509.068 415.333 509.068 416 507.868 416.8C506.935 417.333 506.668 417.2 507.201 416.266C508.135 414.666 503.602 411.6 502.268 412.933C501.735 413.333 500.935 412.533 500.535 411.2C500.001 409.866 498.668 407.466 497.468 406C496.268 404.666 497.735 405.333 500.801 407.733C503.735 410 506.935 412.8 507.868 413.866ZM412.268 408.666C407.468 412.666 396.668 423.733 393.735 428C392.668 429.466 391.335 430.666 390.668 430.666C389.735 430.666 378.668 409.6 378.668 407.733C378.668 407.2 382.935 406.666 388.268 406.4C393.468 406.133 402.001 405.866 407.201 405.6L416.668 405.2L412.268 408.666ZM455.602 406.133C455.201 406.533 454.001 406.666 453.068 406.266C452.001 405.866 452.401 405.466 453.868 405.466C455.335 405.333 456.135 405.733 455.602 406.133ZM440.668 409.066C440.268 409.466 439.201 409.066 438.268 408.133C437.068 406.8 437.201 406.666 439.068 407.466C440.401 407.866 441.068 408.666 440.668 409.066ZM471.335 408C473.068 408.666 473.201 409.2 472.001 409.2C470.935 409.2 468.801 408.666 467.335 408C465.602 407.333 465.468 406.8 466.668 406.8C467.735 406.8 469.868 407.333 471.335 408ZM455.735 409.066C456.801 409.866 455.868 410.666 452.668 411.6C447.468 413.2 446.268 412.533 451.068 410.666L454.001 409.466H450.935C448.801 409.333 447.468 410.266 447.068 412C446.135 415.333 444.668 415.466 444.401 412.133C444.135 408.666 451.868 406.666 455.735 409.066ZM463.602 408.8C463.201 409.2 462.001 409.333 461.068 408.933C460.001 408.533 460.401 408.133 461.868 408.133C463.335 408 464.135 408.4 463.602 408.8ZM243.335 411.733C242.935 412.133 241.868 411.733 240.935 410.8C239.735 409.466 239.868 409.333 241.735 410.133C243.068 410.533 243.735 411.333 243.335 411.733ZM439.335 421.066C436.801 423.733 434.668 426.666 434.668 427.6C434.668 428.533 434.001 429.333 433.201 429.333C432.535 429.333 432.268 428.666 432.668 428C433.201 427.2 432.001 427.333 430.135 428.266C428.268 429.066 426.668 430.266 426.668 430.933C426.668 431.466 426.001 432 425.068 432C424.268 432 424.535 431.066 425.735 429.6C428.668 426.266 428.535 425.333 425.201 426C423.468 426.4 422.668 426 423.068 424.933C423.335 424 424.401 423.333 425.468 423.333C426.535 423.333 427.735 422.666 428.268 422C428.801 421.2 429.335 421.733 429.335 422.933C429.335 424.4 430.401 425.333 432.001 425.333C433.468 425.333 434.668 424.4 434.668 423.333C434.668 422.266 435.468 421.333 436.535 421.333C437.601 421.333 438.668 420.4 439.201 419.333C439.601 418.266 439.335 417.333 438.801 417.333C438.135 417.333 437.335 418.133 436.935 418.933C436.668 419.866 435.868 420.133 435.201 419.6C433.735 418.266 437.468 415.866 439.735 416.666C440.668 417.066 441.068 416.666 440.668 415.866C440.135 415.2 440.135 413.466 440.668 412.266C441.468 410.266 441.735 410.4 442.801 413.2C443.868 415.733 443.335 417.066 439.335 421.066ZM485.335 417.333C501.068 422.666 501.068 424.8 485.335 420C475.468 416.933 469.735 416.666 460.001 418.8C450.135 420.933 452.935 422.4 464.268 420.933C472.935 419.866 475.201 420.133 487.335 423.333C504.935 428.133 505.602 428.533 499.068 429.066C496.001 429.333 488.535 428.266 482.401 426.8C473.335 424.666 470.135 424.4 464.668 425.6C454.001 427.733 454.001 429.6 464.668 428.666C471.335 428 476.268 428.266 482.135 429.866C486.668 431.066 492.535 432 495.201 432C497.868 432 500.001 432.533 500.001 433.333C500.001 435.066 489.602 435.066 479.468 433.2C471.068 431.6 459.335 432.933 459.335 435.333C459.335 436.133 463.201 437.066 468.001 437.466C476.135 438.133 488.401 442.666 490.135 445.6C491.201 447.2 486.401 445.866 480.668 442.933C478.268 441.6 473.735 440.933 468.935 441.066C462.801 441.2 460.135 442 455.335 445.333C441.201 455.066 432.535 456.933 428.135 451.2C426.268 448.8 425.335 448.266 425.335 449.733C425.335 450.8 426.801 453.6 428.668 455.733L431.868 459.6L421.201 467.333C407.068 477.6 382.268 491.6 374.135 494C366.001 496.4 356.535 496.666 355.735 494.266C355.335 493.466 354.935 489.333 354.801 485.2L354.535 477.733L362.268 470.666C376.268 457.866 381.601 455.066 398.135 452.133C420.001 448.4 428.668 442.933 439.735 426.533C442.001 423.2 444.801 419.733 445.868 418.666C448.268 416.8 463.068 412.266 467.335 412.133C468.801 412.133 476.935 414.4 485.335 417.333ZM492.935 415.466C492.535 415.866 491.335 416 490.401 415.6C489.335 415.2 489.735 414.8 491.201 414.8C492.668 414.666 493.468 415.066 492.935 415.466ZM506.801 421.333C507.602 421.333 507.735 421.866 507.335 422.666C506.935 423.333 505.602 424 504.535 424C503.201 424 502.801 423.066 503.468 420.666C504.135 418 503.868 417.466 502.268 418.133C501.201 418.533 499.868 418.266 499.335 417.466C498.935 416.666 499.335 416.266 500.401 416.8C501.468 417.2 502.935 416.666 503.468 415.733C504.268 414.533 504.801 415.066 505.068 417.6C505.335 419.733 506.135 421.333 506.801 421.333ZM252.535 418.8C257.735 420.266 263.468 422.933 265.068 424.4C266.801 426 270.535 432.266 273.468 438.133C277.868 447.466 280.401 450.666 290.268 459.866C298.935 467.733 301.335 470.666 299.335 470.666C297.868 470.666 295.202 469.733 293.468 468.533C291.602 467.066 286.668 466.133 280.801 465.733C266.935 464.933 266.001 464.533 258.135 457.466C254.135 453.866 249.735 450.533 248.135 450C246.668 449.6 241.468 450.4 236.535 451.866C227.335 454.8 221.335 455.466 221.335 453.6C221.335 451.466 241.335 446.666 250.268 446.666C260.268 446.666 264.801 444.933 261.335 442.666C257.468 440.133 244.668 438.4 236.668 439.2C214.001 441.6 212.668 441.6 214.001 440.266C216.935 437.466 239.735 434.266 251.068 435.2C258.001 435.733 261.335 435.6 260.135 434.8C259.068 434.133 253.068 433.2 246.801 432.666C237.068 432 233.468 432.4 222.935 435.066C216.268 436.933 210.401 437.866 210.001 437.333C209.735 436.8 215.468 434.666 223.068 432.666C233.868 429.866 238.935 429.2 247.735 429.6C253.735 429.733 258.668 429.6 258.668 429.2C258.668 427.2 254.135 424.933 245.335 422.666C236.135 420.266 235.601 420.266 226.935 422.8C209.735 427.733 205.735 424.8 222.401 419.466C235.068 415.333 240.401 415.2 252.535 418.8ZM407.868 420.933C406.268 422.933 406.268 423.066 408.535 422.266C410.668 421.466 410.801 421.6 409.335 423.333C407.868 425.066 407.335 425.066 406.535 423.733C405.335 421.866 404.935 423.066 404.935 428.4C404.935 429.733 404.668 430.533 404.401 430.133C404.001 429.733 401.601 431.866 399.201 434.8C396.668 437.866 394.668 439.866 394.668 439.466C394.668 438.133 397.868 432.8 399.601 431.333C400.535 430.666 401.335 429.2 401.601 428.133C401.868 427.066 403.468 424.533 405.201 422.4C408.668 418.4 410.935 417.066 407.868 420.933ZM433.335 420.666C433.335 421.733 432.801 422.666 432.001 422.666C431.335 422.666 430.668 421.733 430.668 420.666C430.668 419.6 431.335 418.666 432.001 418.666C432.801 418.666 433.335 419.6 433.335 420.666ZM356.801 423.6C356.401 426.266 353.868 427.333 352.668 425.333C351.601 423.6 354.401 419.733 356.001 420.666C356.668 421.066 356.935 422.4 356.801 423.6ZM412.135 424.933C410.535 427.6 410.268 426.8 411.468 423.333C412.001 422.133 412.668 421.466 412.935 421.866C413.335 422.133 412.935 423.6 412.135 424.933ZM229.335 427.333C215.735 431.2 210.401 432.133 211.468 430.533C211.868 429.866 213.201 429.333 214.401 429.333C215.601 429.333 220.268 428.133 224.668 426.666C229.068 425.333 234.535 424.133 236.668 424.133C239.068 424.133 236.268 425.466 229.335 427.333ZM510.668 427.333C512.135 429.066 512.001 429.2 510.135 428.533C508.935 428.133 508.001 427.2 508.001 426.533C508.001 424.8 508.801 425.066 510.668 427.333ZM517.602 432.8C516.801 434.4 516.401 433.733 516.401 430.666C516.401 427.6 516.801 426.933 517.602 428.533C518.268 429.733 518.268 431.6 517.602 432.8ZM344.535 430C344.001 431.066 343.468 432 343.201 432C342.935 432 342.668 431.066 342.668 430C342.668 428.933 343.201 428 344.001 428C344.668 428 344.935 428.933 344.535 430ZM387.601 436.4C384.668 441.733 381.468 445.866 380.535 445.066C379.335 443.733 383.335 438.533 384.668 439.733C385.201 440.266 385.335 439.2 384.935 437.466C384.535 435.6 384.801 433.333 385.601 432.4C386.535 431.2 386.535 430.666 385.468 430.666C384.668 430.666 384.001 429.866 384.001 428.933C384.135 428.133 385.201 428.666 386.668 430.4C388.668 432.933 388.935 433.866 387.601 436.4ZM432.668 430.666C433.201 431.466 432.801 431.866 431.868 431.733C430.935 431.466 430.135 432.266 430.001 433.333C430.001 434.4 429.201 435.2 428.268 434.933C427.335 434.8 426.801 435.466 427.068 436.266C427.201 437.2 426.535 437.866 425.735 437.6C424.801 437.466 424.001 437.866 424.001 438.666C424.001 440.666 417.868 444.133 415.735 443.333C414.668 442.933 413.735 441.6 413.735 440.533C413.735 439.066 414.801 438.8 418.268 439.333C420.668 439.733 422.801 439.466 422.801 438.666C422.935 437.866 423.068 436.8 423.201 436.133C423.335 434.8 429.468 429.466 430.935 429.333C431.468 429.333 432.268 430 432.668 430.666ZM509.468 433.333C510.268 433.333 510.401 432.533 509.868 431.6C509.201 430.533 509.602 430.533 511.068 431.866C513.602 433.866 514.135 435.333 511.735 433.866C510.668 433.2 510.535 433.6 511.068 435.066C511.468 436.266 511.201 437.6 510.401 438.133C509.602 438.666 509.335 438.533 509.735 437.733C510.268 436.933 509.735 435.6 508.668 434.666C507.602 433.733 506.801 432 506.801 430.8C506.935 429.066 507.068 429.066 507.602 430.933C507.868 432.266 508.801 433.333 509.468 433.333ZM209.335 432.533C209.335 432.8 208.401 433.466 207.201 433.866C206.135 434.266 205.601 434.133 206.001 433.333C206.801 432 209.335 431.466 209.335 432.533ZM344.668 440.533C344.668 444.666 344.135 446.133 343.068 445.733C342.135 445.333 341.335 443.6 341.335 441.866C341.335 440 342.135 437.733 343.068 436.666C343.868 435.6 344.668 434.8 344.668 434.666C344.668 434.666 344.668 437.333 344.668 440.533ZM402.135 435.866C401.735 436.533 402.668 437.333 404.135 437.733C405.868 438.266 406.535 439.066 406.001 440.133C405.201 441.333 405.868 441.466 408.535 440.8C412.535 439.866 413.068 440.933 409.735 443.6C407.601 445.2 407.735 445.333 411.335 444.666C414.535 444.133 414.801 444.266 412.668 445.2C409.201 446.933 404.935 447.066 406.001 445.466C406.401 444.8 405.201 442.533 403.335 440.533C400.535 437.466 399.868 434.666 402.135 434.666C402.535 434.666 402.535 435.2 402.135 435.866ZM500.268 437.6C497.602 440.266 498.535 441.866 501.335 439.333C503.868 436.933 504.001 437.066 504.001 439.733C504.001 441.733 503.335 442.4 502.001 441.866C500.935 441.333 500.001 441.6 500.001 442.4C500.001 444.4 494.268 443.2 488.535 440.133C485.068 438.133 484.401 437.466 486.668 438C488.535 438.533 490.668 438.933 491.602 438.933C492.535 439.066 492.935 439.6 492.668 440.133C492.268 440.666 492.935 441.466 494.001 441.866C495.335 442.266 496.401 441.733 496.935 440.266C497.468 439.066 498.401 437.6 499.201 437.066C501.468 435.466 502.001 435.866 500.268 437.6ZM517.201 440.533C516.801 440.933 515.735 439.866 514.801 438.266C513.068 435.466 513.201 435.466 515.468 437.6C516.801 438.933 517.602 440.266 517.201 440.533ZM522.668 442.533C525.201 453.2 525.468 455.2 526.135 464C526.535 469.333 526.268 472 525.602 470.933C524.935 469.866 523.868 469.2 523.201 469.2C522.535 469.333 521.868 467.866 521.602 466C521.201 463.333 521.602 462.8 523.602 463.6C525.735 464.4 525.868 464.266 524.001 462C522.401 460 522.401 459.733 523.868 460.666C525.335 461.466 525.602 461.2 524.935 459.466C524.401 458.133 523.602 454.8 523.201 451.866C522.668 449.066 521.868 447.066 521.201 447.466C520.535 447.866 520.401 447.066 520.935 445.733C521.735 443.6 521.602 443.6 519.602 445.2C517.602 446.8 517.335 446.666 517.335 444.933C517.335 443.733 518.001 442.4 518.668 442C519.468 441.466 519.602 440.266 518.801 438.8C517.868 437.066 518.001 436.4 519.335 436.4C520.401 436.4 521.735 438.933 522.668 442.533ZM392.401 440.933C391.735 442.533 392.001 442.8 393.335 442C394.401 441.333 394.801 441.466 394.135 442.4C393.601 443.2 392.401 443.6 391.201 443.066C389.735 442.533 389.601 441.866 390.801 440.533C392.801 438 393.468 438.133 392.401 440.933ZM512.535 441.866C511.735 443.866 509.335 444.933 509.335 443.333C509.335 442.266 512.535 438.8 513.068 439.333C513.201 439.466 513.068 440.666 512.535 441.866ZM374.001 441.333L378.001 442.4L374.268 442.533C372.135 442.666 370.801 443.2 371.335 444C371.868 444.8 372.801 444.933 373.601 444.533C374.535 444 374.668 444.266 374.135 445.066C372.935 447.066 369.335 447.2 369.335 445.333C369.335 444.533 367.735 444 365.735 444C362.268 444 362.268 444.133 364.801 446.133C366.135 447.2 366.535 447.733 365.601 447.333C364.535 446.8 362.135 445.866 360.268 445.333C357.068 444.4 357.601 444.133 364.001 443.2C370.668 442.266 370.935 442 367.335 441.2C363.868 440.4 363.735 440.266 366.668 440.266C368.535 440.266 371.868 440.8 374.001 441.333ZM234.001 444.133C232.801 445.866 228.801 447.466 222.668 448.4C218.001 449.2 218.001 449.2 223.335 447.333L228.668 445.466L222.001 446C216.135 446.533 215.868 446.533 219.335 445.333C221.601 444.533 224.935 444.266 227.068 444.533C229.068 444.933 230.668 444.666 230.668 444C230.668 443.2 231.601 442.666 232.801 442.666C233.868 442.666 234.401 443.333 234.001 444.133ZM240.401 443.6C239.468 443.866 237.868 443.866 237.068 443.6C236.135 443.2 236.801 442.933 238.668 442.933C240.535 442.933 241.201 443.2 240.401 443.6ZM392.001 446.266C392.001 446.666 391.201 446.666 390.135 446.266C388.801 445.733 388.535 446.4 388.935 448.4C389.601 450.666 389.335 451.066 388.001 449.733C385.735 447.733 387.335 443.866 390.001 444.8C391.068 445.2 392.001 445.866 392.001 446.266ZM470.401 445.6C470.001 446.533 468.668 447.466 467.201 447.733C465.335 448 465.068 447.866 466.535 446.933C467.868 446 467.335 445.6 464.801 445.6C462.935 445.6 460.668 446.666 459.735 447.866C458.135 449.733 458.268 449.866 460.401 448.133C461.602 447.066 463.068 446.666 463.602 447.2C464.135 447.6 463.335 448.933 461.868 449.866C460.535 450.933 459.201 451.333 458.935 450.666C458.668 450 457.468 449.866 456.268 450.266C455.068 450.666 455.868 449.466 458.001 447.6C462.268 443.733 471.468 442.4 470.401 445.6ZM480.001 447.2C480.001 448.133 479.068 448.933 478.001 448.933C476.935 448.933 476.401 448.4 476.801 447.733C477.201 447.2 476.801 446.666 476.135 446.666C475.335 446.666 474.668 446.133 474.668 445.466C474.668 444.8 475.868 444.533 477.335 444.933C478.801 445.333 480.001 446.4 480.001 447.2ZM504.135 454.133C503.468 459.2 502.135 465.066 501.201 467.333L499.602 471.333L498.668 467.333C498.135 465.066 497.602 462.133 497.602 460.666C497.468 458.266 497.602 458.4 499.201 461.2C501.335 465.066 502.935 462.4 501.201 457.733C499.868 454 501.201 444.4 502.801 446.933C503.735 448.266 504.001 448 504.001 446.133C504.001 444.666 504.268 443.866 504.668 444.266C505.068 444.533 504.801 449.066 504.135 454.133ZM404.001 446.666C404.001 447.333 402.401 448 400.401 448C398.268 448 395.201 448.4 393.335 448.666C391.201 449.066 391.735 448.666 394.668 447.466C400.268 445.2 404.001 444.8 404.001 446.666ZM512.801 449.333C512.668 451.466 511.868 453.6 511.068 454C508.935 454.666 508.935 453.333 510.668 448.8C512.401 444.266 512.935 444.4 512.801 449.333ZM286.001 448C286.401 448.666 285.868 449.333 284.801 449.333C283.735 449.333 282.401 448.666 282.001 448C281.602 447.2 282.135 446.666 283.201 446.666C284.268 446.666 285.602 447.2 286.001 448ZM494.135 450.266C492.801 451.6 491.602 449.6 492.801 447.866C493.602 446.4 493.868 446.4 494.401 447.866C494.668 448.8 494.535 449.866 494.135 450.266ZM346.001 449.333C346.401 450 346.135 450.666 345.468 450.666C344.668 450.666 344.001 450 344.001 449.333C344.001 448.533 344.268 448 344.535 448C344.935 448 345.601 448.533 346.001 449.333ZM474.135 451.466C473.602 452.666 472.935 453.466 472.668 453.066C472.268 452.666 472.268 451.333 472.801 450.133C473.335 448.933 474.001 448.133 474.268 448.533C474.668 448.933 474.668 450.266 474.135 451.466ZM294.001 451.733C293.602 452.133 292.535 451.733 291.602 450.8C290.401 449.466 290.535 449.333 292.401 450.133C293.735 450.533 294.401 451.333 294.001 451.733ZM356.135 450.533C356.935 449.333 357.335 449.2 357.335 450.266C357.335 452.266 350.935 456.666 349.735 455.466C349.335 455.066 349.601 454.666 350.401 454.666C351.201 454.666 351.601 453.466 351.335 451.866C350.801 449.466 351.068 449.333 352.801 450.8C354.535 452.133 355.068 452.133 356.135 450.533ZM490.668 449.866C490.668 450.133 489.735 450.666 488.668 451.2C487.602 451.6 486.668 451.333 486.668 450.666C486.668 449.866 487.602 449.333 488.668 449.333C489.735 449.333 490.668 449.6 490.668 449.866ZM381.601 452.266C380.535 453.333 379.335 453.333 377.068 452.266C374.135 450.933 374.268 450.8 378.668 450.8C382.135 450.666 382.801 451.066 381.601 452.266ZM456.001 452.666C456.001 452.933 454.801 453.066 453.468 452.933C452.001 452.933 451.068 452.266 451.468 451.733C452.001 450.933 456.001 451.733 456.001 452.666ZM484.401 454C483.468 456.8 482.668 456.533 482.668 453.2C482.668 451.733 483.201 450.8 484.001 451.333C484.668 451.733 484.935 452.933 484.401 454ZM344.801 454C344.401 455.066 345.068 456.4 346.268 457.066C347.335 457.733 347.868 458.666 347.201 459.066C346.535 459.466 344.535 458.666 342.801 457.2C340.935 455.733 340.401 454.666 341.468 454.666C342.935 454.666 342.935 454.4 341.335 453.333C339.735 452.266 340.001 452 342.535 452C344.668 452 345.335 452.533 344.801 454ZM218.668 455.333C219.601 456.533 219.735 457.333 218.935 457.333C218.268 457.333 217.335 456.4 216.801 455.333C216.401 454.266 216.268 453.333 216.535 453.333C216.801 453.333 217.735 454.266 218.668 455.333ZM246.268 454.133C245.868 454.533 244.668 454.666 243.735 454.266C242.668 453.866 243.068 453.466 244.535 453.466C246.001 453.333 246.801 453.733 246.268 454.133ZM297.602 460C298.135 460 298.668 460.666 298.668 461.6C298.668 464.266 295.068 459.733 294.135 456C293.468 452.933 293.602 452.933 294.935 456.266C295.868 458.4 296.935 460 297.602 460ZM449.335 454.666C449.335 455.333 448.668 456 447.868 456C447.201 456 446.935 455.333 447.335 454.666C447.735 453.866 448.401 453.333 448.801 453.333C449.068 453.333 449.335 453.866 449.335 454.666ZM464.401 456.533C463.068 458.266 461.735 459.2 461.468 458.4C461.335 457.733 462.135 456.266 463.468 455.333C466.935 452.666 467.201 452.933 464.401 456.533ZM239.335 456C237.868 456.666 235.735 457.2 234.668 457.2C233.468 457.2 233.601 456.666 235.335 456C236.801 455.333 238.935 454.8 240.001 454.8C241.201 454.8 241.068 455.333 239.335 456ZM446.668 458.266C446.668 458.666 445.735 458.666 444.668 458.133C443.602 457.733 442.668 458 442.668 458.666C442.668 459.466 441.335 460 439.735 460C436.668 459.866 436.668 459.866 439.868 458.133C442.935 456.533 446.668 456.533 446.668 458.266ZM473.335 460.4C473.335 461.066 472.801 461.066 472.001 460.666C471.335 460.266 470.668 458.8 470.668 457.6C470.668 455.6 470.935 455.6 472.001 457.333C472.668 458.4 473.335 459.866 473.335 460.4ZM475.602 460.266C475.201 461.2 474.935 460.533 474.935 458.666C474.935 456.8 475.201 456.133 475.602 456.933C475.868 457.866 475.868 459.466 475.602 460.266ZM510.668 460C509.868 461.466 509.602 463.866 510.001 465.2C510.401 466.8 510.001 468 508.668 468.533C506.935 469.2 506.668 468.666 507.335 466.266C508.935 460.8 511.068 455.866 511.602 456.533C512.001 456.8 511.602 458.4 510.668 460ZM489.735 459.333C489.335 460.533 488.668 461.2 488.401 460.8C488.001 460.4 488.135 459.6 488.668 458.8C489.868 456.666 490.668 457.066 489.735 459.333ZM310.001 460C309.601 460.8 310.668 461.333 312.535 461.333C316.935 461.333 320.135 462.666 319.201 464.133C318.801 464.8 317.468 465.333 316.268 465.333C314.268 465.333 314.268 465.066 316.001 464C317.468 463.066 316.935 462.666 313.735 462.666C309.601 462.666 307.335 461.2 308.935 459.466C310.268 458.266 310.935 458.533 310.001 460ZM353.335 461.333C351.468 462.8 349.601 464 349.068 464C348.535 464 348.535 464.933 348.935 466.266C349.468 467.733 349.335 468.133 348.268 467.466C345.735 465.866 346.401 464.4 351.068 461.466C356.401 458 357.735 457.866 353.335 461.333ZM483.602 462.933C483.201 463.866 482.935 463.2 482.935 461.333C482.935 459.466 483.201 458.8 483.602 459.6C483.868 460.533 483.868 462.133 483.602 462.933ZM460.668 461.2C461.068 461.866 459.868 464.133 458.001 466.266C456.001 468.533 454.935 469.066 455.468 467.6C455.868 466.4 456.801 465.333 457.468 465.333C458.135 465.333 458.668 464.8 458.668 464C458.668 463.333 457.602 463.2 456.401 463.6C454.268 464.4 454.268 464.266 455.868 462.266C457.868 459.733 459.468 459.333 460.668 461.2ZM438.401 464.133C437.468 464.8 436.535 464.666 436.268 463.866C435.868 463.066 434.935 463.2 433.601 464.266C431.601 465.733 431.601 465.733 433.068 463.866C434.135 462.533 435.868 461.866 437.468 462.266C439.601 462.8 439.735 463.333 438.401 464.133ZM444.001 462.666C444.001 463.333 443.335 464 442.535 464C441.868 464 441.601 463.333 442.001 462.666C442.401 461.866 443.068 461.333 443.468 461.333C443.735 461.333 444.001 461.866 444.001 462.666ZM469.468 465.2C468.535 466.933 468.401 468.133 469.335 468.666C471.468 470 470.935 472 468.668 471.066C467.468 470.666 465.735 471.333 464.668 472.8C463.602 474.266 462.668 474.666 462.668 473.733C462.668 472.933 464.001 471.2 465.602 470.133C468.268 468.266 468.001 467.333 465.068 467.866C464.535 467.866 464.401 467.066 464.935 465.866C465.468 464.266 466.001 464.266 466.668 465.333C467.335 466.533 468.001 466.133 468.668 464.133C469.201 462.4 469.868 461.466 470.268 461.733C470.535 462.133 470.268 463.6 469.468 465.2ZM217.601 467.066C218.935 469.6 218.801 469.733 217.068 468.4C216.001 467.466 214.801 466.933 214.535 467.333C214.135 467.6 213.868 466.8 213.868 465.333C213.868 462.4 215.468 463.066 217.601 467.066ZM258.801 464.933C260.535 467.066 260.401 467.2 258.401 465.466C257.068 464.533 256.001 463.466 256.001 463.2C256.001 462.133 257.068 462.8 258.801 464.933ZM325.735 463.6C324.801 463.866 323.201 463.866 322.401 463.6C321.468 463.2 322.135 462.933 324.001 462.933C325.868 462.933 326.535 463.2 325.735 463.6ZM476.001 465.333C476.001 466 475.068 466.666 473.868 466.666C472.801 466.666 472.268 466 472.668 465.333C473.068 464.533 474.001 464 474.801 464C475.468 464 476.001 464.533 476.001 465.333ZM512.935 468.266C512.535 469.2 512.268 468.533 512.268 466.666C512.268 464.8 512.535 464.133 512.935 464.933C513.201 465.866 513.201 467.466 512.935 468.266ZM304.935 467.2C304.935 468.266 304.135 468.8 302.935 468.4C301.468 467.733 301.468 467.466 302.935 466.533C303.868 465.866 304.668 465.333 304.801 465.333C304.801 465.333 304.935 466.133 304.935 467.2ZM430.535 468.266C429.201 469.2 429.468 469.333 431.335 468.666C434.668 467.6 441.335 466.533 439.068 467.466C438.135 467.866 437.068 468.133 436.668 468C436.268 468 434.935 468.8 433.868 469.866C431.201 472.533 425.868 469.866 428.268 467.066C428.935 466.133 430.268 465.733 430.935 466.133C431.735 466.666 431.601 467.466 430.535 468.266ZM449.335 466.666C449.335 467.333 449.068 468 448.801 468C448.401 468 447.735 467.333 447.335 466.666C446.935 465.866 447.201 465.333 447.868 465.333C448.668 465.333 449.335 465.866 449.335 466.666ZM264.668 469.6C263.468 470.4 262.135 470.533 261.735 470.133C261.201 469.733 261.601 469.333 262.535 469.333C263.468 469.333 263.735 468.8 263.335 468C262.801 467.2 263.468 467.066 264.801 467.6C266.801 468.4 266.801 468.533 264.668 469.6ZM485.868 475.066C486.268 480.933 486.001 482.666 484.535 482.666C483.201 482.666 483.068 481.866 483.868 479.6C484.401 478 484.668 474.266 484.268 471.333C484.001 468.4 484.001 466.266 484.401 466.666C484.801 467.066 485.468 470.8 485.868 475.066ZM341.468 470.4C340.001 470.933 340.001 471.2 341.468 472.266C342.935 473.333 342.935 473.466 341.335 472.933C340.268 472.666 338.135 473.333 336.668 474.533C335.201 475.6 335.735 474.666 337.868 472.266C340.001 470 342.135 468.4 342.535 468.8C342.935 469.333 342.535 470 341.468 470.4ZM444.401 470.933C445.468 474.533 445.468 474.533 441.068 473.733C437.735 473.066 437.735 472.933 439.735 470.533C442.535 467.2 443.468 467.333 444.401 470.933ZM475.068 470.666C474.668 472.266 474.001 473.2 473.602 472.8C472.935 472 474.268 468 475.201 468C475.468 468 475.468 469.2 475.068 470.666ZM488.401 470C488.001 471.2 487.335 471.866 487.068 471.466C486.668 471.066 486.801 470.266 487.335 469.466C488.535 467.333 489.335 467.733 488.401 470ZM291.868 471.466C292.135 471.733 290.268 472 287.602 472C284.935 472 282.535 471.466 282.001 470.8C281.335 469.6 290.535 470.266 291.868 471.466ZM450.801 472.4C449.068 474.133 447.335 472.8 448.668 470.8C449.068 470 450.135 469.733 450.935 470.133C451.735 470.666 451.735 471.466 450.801 472.4ZM498.535 473.6C499.468 476.4 499.468 479.466 498.801 482C497.735 485.733 497.602 485.733 497.602 480.266C497.602 477.066 496.935 473.733 496.135 472.933C495.068 471.866 494.668 472 494.668 473.333C494.668 474.266 494.401 474.8 494.001 474.4C493.068 473.466 494.668 469.333 496.001 469.333C496.668 469.333 497.735 471.333 498.535 473.6ZM482.135 474.133C481.602 475.333 480.935 476.133 480.668 475.733C480.268 475.333 480.268 474 480.801 472.8C481.335 471.6 482.001 470.8 482.268 471.2C482.668 471.6 482.668 472.933 482.135 474.133ZM509.335 472.933C509.335 474.266 509.735 476.8 510.135 478.666C510.668 481.066 510.535 481.466 509.602 480C507.602 476.666 506.535 470.666 508.001 470.666C508.668 470.666 509.335 471.733 509.335 472.933ZM460.935 473.866C460.535 474.933 460.801 476.133 461.735 476.4C462.935 476.8 462.935 477.466 461.735 478.8C460.268 480.266 459.735 480.266 458.401 478.8C456.935 477.333 457.068 477.2 458.535 478C460.001 478.8 460.268 478.533 459.602 476.8C459.068 475.466 458.935 473.866 459.468 473.2C460.535 471.333 461.735 471.866 460.935 473.866ZM524.935 473.066C526.001 473.733 525.735 474.8 524.135 476.933L521.735 479.866L521.602 475.866C521.468 471.866 522.135 471.333 524.935 473.066ZM226.001 474.666C226.401 475.466 225.868 475.6 224.801 475.2C222.401 474.266 222.001 473.333 223.868 473.333C224.668 473.333 225.601 473.866 226.001 474.666ZM240.401 474.266C239.468 474.533 237.868 474.533 237.068 474.266C236.135 473.866 236.801 473.6 238.668 473.6C240.535 473.6 241.201 473.866 240.401 474.266ZM307.601 474.133C307.201 474.533 306.001 474.666 305.068 474.266C304.001 473.866 304.401 473.466 305.868 473.466C307.335 473.333 308.135 473.733 307.601 474.133ZM418.668 475.333C417.601 476.533 417.468 477.333 418.401 477.333C419.201 477.333 420.268 476.666 420.668 476C421.068 475.2 422.135 474.666 422.801 474.666C423.601 474.666 423.735 475.2 423.335 476C422.935 476.666 423.068 477.333 423.868 477.333C424.535 477.333 425.335 476.533 425.735 475.6C426.135 474.8 426.401 475.2 426.268 476.666C426.135 478.666 425.201 479.333 422.135 479.466C416.668 479.466 414.268 477.333 417.201 475.066C420.135 472.8 420.668 472.933 418.668 475.333ZM452.135 475.2C450.535 477.066 441.601 478.8 440.668 477.333C440.401 476.933 442.401 476.4 445.068 476.266C447.735 476 450.535 475.333 451.201 474.666C453.201 472.666 453.868 473.066 452.135 475.2ZM506.135 479.866C506.135 482.8 505.602 484.8 505.068 484.533C504.401 484.133 504.001 484.4 504.001 485.2C504.001 485.866 503.602 487.6 503.068 488.933C502.268 491.066 502.401 491.2 504.668 489.333C506.935 487.466 507.068 487.6 506.268 489.6C505.602 491.6 506.001 491.733 508.668 490.666C511.735 489.466 511.868 489.6 510.401 491.866C509.602 493.333 508.135 494.133 507.201 493.733C506.401 493.466 504.001 495.2 502.001 497.6C500.001 500 498.801 500.933 499.201 499.6C499.602 498.266 500.001 496.266 500.001 495.2C500.001 494.133 500.401 493.466 501.068 493.466C503.468 493.866 504.535 493.2 502.935 492.133C501.468 491.333 501.602 489.466 503.468 482.933C504.801 478.4 505.868 474.666 506.001 474.666C506.268 474.666 506.268 477.066 506.135 479.866ZM296.401 476.933C294.668 477.2 292.001 477.2 290.401 476.933C288.668 476.666 290.001 476.4 293.335 476.4C296.668 476.4 298.001 476.666 296.401 476.933ZM308.935 476.8C308.535 477.2 307.335 477.333 306.401 476.933C305.335 476.533 305.735 476.133 307.201 476.133C308.668 476 309.468 476.4 308.935 476.8ZM492.935 480.266C492.535 481.2 492.268 480.533 492.268 478.666C492.268 476.8 492.535 476.133 492.935 476.933C493.201 477.866 493.201 479.466 492.935 480.266ZM226.268 478.133C225.868 478.533 224.668 478.666 223.735 478.266C222.668 477.866 223.068 477.466 224.535 477.466C226.001 477.333 226.801 477.733 226.268 478.133ZM333.335 480.666C331.601 482.533 329.868 483.733 329.601 483.333C329.201 482.933 328.001 483.466 326.801 484.266C325.468 485.333 325.601 484.8 327.201 483.066C328.535 481.333 330.135 480.4 330.668 480.666C331.201 481.066 332.401 480.4 333.335 479.333C334.268 478.266 335.335 477.333 335.735 477.333C336.135 477.333 335.068 478.8 333.335 480.666ZM414.668 480.133C414.668 480.8 414.135 481.333 413.601 481.333C412.935 481.333 412.401 480.4 412.401 479.333C412.401 478.266 412.935 477.733 413.601 478.133C414.135 478.533 414.668 479.333 414.668 480.133ZM466.668 479.333C465.735 480.533 464.668 481.066 464.135 480.666C463.735 480.266 464.268 479.333 465.335 478.666C468.135 476.8 468.535 477.066 466.668 479.333ZM495.602 481.6C495.201 482.533 494.935 481.866 494.935 480C494.935 478.133 495.201 477.466 495.602 478.266C495.868 479.2 495.868 480.8 495.602 481.6ZM320.001 479.466C320.001 480.533 317.468 481.2 316.801 480.266C316.401 479.6 316.935 479.066 318.001 479.066C319.068 479.066 320.001 479.333 320.001 479.466ZM441.868 481.733C442.401 481.2 443.735 480.666 444.935 480.533C446.935 480.266 446.935 480.4 444.935 482.4C441.468 485.733 438.001 485.333 437.735 481.466C437.601 478.4 437.735 478.266 439.201 480.266C440.135 481.6 441.335 482.266 441.868 481.733ZM473.068 482C472.668 482.4 471.868 481.733 471.468 480.4C470.668 478.533 470.801 478.4 472.135 479.6C473.068 480.533 473.468 481.6 473.068 482ZM246.401 480.933C245.068 481.2 242.668 481.2 241.068 480.933C239.335 480.666 240.401 480.4 243.335 480.4C246.268 480.266 247.601 480.533 246.401 480.933ZM460.001 483.866C460.001 485.066 459.468 486.8 458.801 487.866C457.335 490.133 453.335 491.066 453.335 489.066C453.335 488.266 452.535 488.266 451.468 489.333C449.735 490.666 449.468 490.266 449.735 487.066C450.001 484.4 450.801 483.333 452.535 483.333C454.001 483.333 455.335 482.666 455.602 481.733C456.401 479.466 460.001 481.2 460.001 483.866ZM412.268 483.6C413.601 484.8 414.668 485.2 414.668 484.4C414.668 482 418.135 483.066 418.268 485.466C418.535 488.4 416.535 490 415.335 488C414.935 487.333 413.868 486.666 413.068 486.666C412.268 486.666 412.268 487.466 413.335 488.666C414.801 490.4 414.668 490.533 412.801 489.866C411.468 489.333 410.801 488.133 411.201 487.2C411.601 486.266 410.935 484.533 409.868 483.333C407.068 480.666 409.201 480.8 412.268 483.6ZM479.335 487.466C479.335 489.733 478.535 491.333 476.668 492.133C474.001 493.466 474.001 493.466 476.535 491.466C478.001 490.266 478.535 489.333 477.735 489.333C476.935 489.333 476.668 487.866 477.068 486C477.735 481.866 479.068 482.666 479.335 487.466ZM402.668 485.866C402.668 486.133 401.735 486.8 400.535 487.2C399.468 487.6 398.935 487.466 399.335 486.666C400.135 485.333 402.668 484.8 402.668 485.866ZM470.668 490C469.868 492 468.935 493.333 468.535 493.066C468.268 492.666 468.668 490.8 469.468 488.8C471.602 484.266 472.535 485.2 470.668 490ZM311.068 488.4C310.668 488.933 310.001 489.2 309.601 488.8C309.201 488.4 308.135 488.666 307.068 489.6C305.601 490.666 305.468 490.533 306.135 488.933C306.535 487.733 308.001 486.933 309.335 487.066C310.668 487.2 311.468 487.733 311.068 488.4ZM408.801 490.4C408.268 490.8 406.935 490.133 405.601 488.8C403.468 486.4 403.468 486.4 406.401 488C408.135 488.8 409.201 489.866 408.801 490.4ZM439.335 488.133C438.801 488.8 436.935 490 435.068 490.8C433.068 491.6 432.135 492.666 432.801 493.6C433.335 494.533 433.335 494.933 432.801 494.4C432.135 493.866 430.268 495.066 428.535 497.066C426.801 499.066 425.335 499.866 425.335 498.933C425.335 498.133 424.668 497.333 423.868 497.333C423.068 497.333 422.668 498.133 423.068 499.2C423.468 500.266 422.801 502 421.468 503.2C419.601 504.933 418.801 504.933 417.335 503.6C416.001 502.266 415.735 502.4 416.401 504.266C416.935 505.866 416.668 506.266 415.068 505.733C413.468 505.066 413.868 504.133 417.201 501.066C419.735 498.666 420.935 496.533 420.535 494.933C420.001 493.466 420.135 493.2 420.935 494.266C422.401 496.266 427.735 496 428.535 493.733C428.935 492.933 431.468 490.933 434.268 489.466C440.268 486.266 440.401 486.266 439.335 488.133ZM497.335 488C497.335 488.666 497.068 489.333 496.801 489.333C496.401 489.333 495.735 488.666 495.335 488C494.935 487.2 495.201 486.666 495.868 486.666C496.668 486.666 497.335 487.2 497.335 488ZM402.668 489.333C402.668 490 402.001 490.666 401.201 490.666C400.535 490.666 400.268 490 400.668 489.333C401.068 488.533 401.735 488 402.135 488C402.401 488 402.668 488.533 402.668 489.333ZM429.335 490C429.335 492.933 425.735 494 422.268 492.133L419.335 490.666L422.401 491.466C424.401 491.866 425.601 491.466 426.135 490.133C427.201 487.466 429.335 487.333 429.335 490ZM398.001 491.466C397.201 491.6 394.935 492.133 392.668 492.666L388.668 493.6L392.001 495.6C393.868 496.666 394.268 497.2 392.935 496.8C391.601 496.4 389.601 496 388.535 496C385.601 496 386.401 494.133 390.401 491.866C392.401 490.8 395.201 490.133 396.668 490.533C398.135 490.8 398.668 491.333 398.001 491.466ZM445.868 492.8C445.468 495.066 445.735 495.866 446.801 495.333C447.868 494.533 447.868 495.066 446.801 496.933C446.001 498.4 445.735 499.866 446.001 500.266C446.268 500.533 445.201 500.8 443.335 500.666C441.601 500.666 439.735 500.133 439.201 499.6C438.535 499.066 439.201 498.933 440.668 499.466C443.068 500.4 443.068 500.266 441.468 498.266C439.201 495.466 435.735 497.6 436.935 501.066C437.468 503.066 437.335 503.066 436.135 501.333C434.935 499.733 435.735 498.266 440.001 494.266C442.801 491.6 445.468 489.333 445.868 489.333C446.268 489.333 446.268 490.933 445.868 492.8ZM461.335 494.666C461.335 496.8 461.068 498.666 460.801 498.666C460.535 498.666 460.001 496.8 459.735 494.666C459.335 492.4 459.602 490.666 460.268 490.666C460.801 490.666 461.335 492.4 461.335 494.666ZM464.401 493.333C464.801 494.8 464.535 496 463.868 496C463.201 496 462.668 494.8 462.668 493.333C462.668 491.866 462.935 490.666 463.201 490.666C463.468 490.666 464.001 491.866 464.401 493.333ZM284.801 494.4C283.468 494.666 281.868 494.4 281.068 493.6C280.268 492.8 281.068 492.666 283.602 493.066C286.401 493.733 286.668 494 284.801 494.4ZM318.268 494C318.268 495.066 317.735 495.6 317.068 495.2C316.401 494.8 316.268 493.866 316.668 493.2C317.868 491.466 318.268 491.733 318.268 494ZM405.335 493.333C405.335 494 404.668 494.666 403.868 494.666C403.201 494.666 402.935 494 403.335 493.333C403.735 492.533 404.401 492 404.801 492C405.068 492 405.335 492.533 405.335 493.333ZM224.401 496.4C224.935 496 225.335 496.266 225.335 497.066C225.335 499.733 222.801 498.8 221.335 495.6C220.001 492.933 220.001 492.933 221.735 494.933C222.801 496.266 224.001 496.933 224.401 496.4ZM417.735 494.266C416.801 494.533 416.001 495.466 416.001 496.133C416.001 496.933 416.668 497.066 417.601 496.533C418.535 495.866 418.668 496.133 418.001 497.2C417.335 498.4 416.535 498.4 415.735 497.6C414.135 496 415.468 493.333 417.735 493.466C418.935 493.466 418.935 493.733 417.735 494.266ZM297.335 496.666C296.401 497.733 294.935 498.666 294.135 498.666C293.335 498.666 293.868 497.733 295.202 496.666C298.535 494.133 299.468 494.133 297.335 496.666ZM328.001 495.2C328.001 495.466 326.935 496.533 325.735 497.466C323.601 499.2 323.468 499.066 325.201 496.933C326.935 494.8 328.001 494.133 328.001 495.2ZM382.668 497.733C382.668 498.666 381.601 499.466 380.401 499.6C379.068 499.733 376.535 500.133 374.668 500.666C372.268 501.2 379.468 497.066 382.401 496.133C382.535 496 382.668 496.8 382.668 497.733ZM388.001 497.333C389.735 498.4 389.735 498.666 387.735 498.666C386.535 498.666 385.068 498 384.668 497.333C383.601 495.6 385.335 495.6 388.001 497.333ZM478.001 498.8C479.468 500.933 478.135 501.333 476.268 499.2C475.335 498.133 475.201 497.333 475.868 497.333C476.535 497.333 477.602 498 478.001 498.8ZM473.735 502C472.801 504.8 472.135 504.533 472.401 501.466C472.401 500 473.068 499.066 473.602 499.466C474.135 499.866 474.268 500.933 473.735 502ZM230.135 505.6L234.001 510L229.735 506.133C225.601 502.4 224.668 501.333 225.735 501.333C226.001 501.333 227.868 503.333 230.135 505.6ZM372.001 502.666C373.335 503.6 371.735 503.733 366.668 503.2C362.668 502.666 359.068 502.133 358.801 501.866C357.468 500.666 370.135 501.466 372.001 502.666ZM410.668 502.666C411.735 503.333 412.135 504 411.335 504C410.668 504 409.068 503.333 408.001 502.666C406.935 502 406.668 501.333 407.335 501.333C408.135 501.333 409.601 502 410.668 502.666ZM450.535 506.666C450.535 508 450.135 507.733 449.335 506C447.735 502.4 447.735 500.266 449.335 502.666C450.001 503.733 450.535 505.6 450.535 506.666ZM459.335 502.666C459.735 503.333 459.468 504 458.801 504C458.001 504 457.335 503.333 457.335 502.666C457.335 501.866 457.602 501.333 457.868 501.333C458.268 501.333 458.935 501.866 459.335 502.666ZM430.668 504C430.668 504.666 430.001 505.333 429.201 505.333C428.535 505.333 428.268 504.666 428.668 504C429.068 503.2 429.735 502.666 430.135 502.666C430.401 502.666 430.668 503.2 430.668 504ZM382.401 506.933C381.735 508.933 379.335 508.4 378.935 506.133C378.668 504.666 379.201 504.266 380.668 504.8C381.868 505.333 382.535 506.266 382.401 506.933ZM406.001 505.2C405.601 506 406.401 507.066 407.601 507.866C408.935 508.666 409.468 509.2 408.668 509.333C406.135 509.333 403.601 506.933 404.535 505.466C405.068 504.666 405.735 504 406.135 504C406.535 504 406.535 504.533 406.001 505.2ZM464.001 507.066C464.001 508 463.468 507.866 462.535 506.666C461.335 505.066 461.201 505.333 461.735 507.733C462.135 509.333 461.602 512.533 460.401 514.666C458.401 518.933 456.801 520.133 458.268 516.4C458.801 515.066 458.535 514.533 457.735 515.066C456.935 515.6 455.602 515.066 454.668 514C453.602 512.8 453.602 512 454.401 512C455.201 512 456.001 512.666 456.268 513.466C456.801 514.933 458.935 511.066 460.535 506.266C461.335 503.733 464.001 504.4 464.001 507.066ZM311.335 507.866C310.935 508.666 309.868 509.333 309.201 509.333C308.535 509.333 308.668 508.533 309.601 507.466C311.468 505.333 312.801 505.733 311.335 507.866ZM413.468 506.666C415.201 506.666 413.335 510.4 411.068 511.2C409.335 511.866 409.201 511.733 410.535 510.133C411.868 508.666 411.601 507.866 409.735 506.666C407.468 505.2 407.468 505.2 409.735 505.866C411.068 506.266 412.801 506.666 413.468 506.666ZM425.068 508C424.135 509.333 423.201 510.266 422.801 510C422.268 509.466 425.201 505.333 426.135 505.333C426.401 505.333 426.001 506.533 425.068 508ZM387.601 507.466C387.201 507.866 386.001 508 385.068 507.6C384.001 507.2 384.401 506.8 385.868 506.8C387.335 506.666 388.135 507.066 387.601 507.466ZM430.668 507.2C430.668 507.6 430.135 508.266 429.335 508.666C428.668 509.066 428.001 508.8 428.001 508.133C428.001 507.333 428.668 506.666 429.335 506.666C430.135 506.666 430.668 506.933 430.668 507.2ZM386.001 510.533C383.601 511.466 383.601 511.6 385.868 512.933C388.135 514.133 388.135 514.4 386.135 515.066C384.801 515.6 384.135 515.466 384.668 514.666C385.068 513.866 384.801 513.333 384.135 513.333C383.335 513.333 382.668 512.4 382.668 511.333C382.668 510.133 383.868 509.333 385.735 509.466C388.401 509.466 388.535 509.6 386.001 510.533ZM407.335 512C407.868 512.8 407.468 513.2 406.401 513.066C405.468 512.8 404.801 513.333 404.935 514.266C405.201 515.2 404.401 515.6 403.335 515.066C401.601 514.4 401.601 514.133 403.601 512.533C406.535 510.4 406.268 510.4 407.335 512ZM381.335 513.333C381.335 514 380.001 514.666 378.401 514.666C375.868 514.666 375.735 514.4 377.335 513.333C379.868 511.6 381.335 511.6 381.335 513.333ZM452.535 514.133C452.935 515.2 452.801 515.733 452.001 515.333C451.201 514.933 450.668 515.2 450.668 516.133C450.668 517.066 450.401 517.466 450.001 517.066C449.335 516.4 450.535 512 451.335 512C451.602 512 452.135 512.933 452.535 514.133ZM243.601 514.133C243.201 514.533 242.001 514.666 241.068 514.266C240.001 513.866 240.401 513.466 241.868 513.466C243.335 513.333 244.135 513.733 243.601 514.133ZM400.268 515.2C402.268 516.666 401.735 517.333 395.068 520.666C390.935 522.8 386.535 524.4 385.468 524.4C384.268 524.4 382.535 525.2 381.601 526.266C379.468 528.4 377.735 528.533 376.668 526.666C376.135 525.866 376.801 525.733 378.135 526.266C379.468 526.8 380.135 526.533 379.601 525.866C379.201 525.2 380.401 524 382.135 523.066C383.868 522.266 385.335 522.133 385.335 522.8C385.335 523.333 386.268 523.6 387.468 523.066C388.668 522.666 389.068 521.866 388.401 521.466C387.868 521.066 387.068 519.466 386.935 518.133C386.535 515.866 386.668 515.733 388.535 517.2C389.735 518.133 390.268 519.6 389.735 520.4C389.201 521.333 389.735 521.466 391.201 520.933C392.535 520.4 393.868 520 394.268 520C394.801 520 394.001 518.8 392.668 517.333C391.335 515.866 390.935 514.666 391.735 514.666C392.668 514.666 393.335 515.333 393.335 516.133C393.335 516.8 394.001 517.066 394.935 516.533C395.868 515.866 396.001 516.133 395.335 517.333C394.535 518.666 394.801 518.933 396.535 518.266C397.868 517.733 399.201 517.333 399.735 517.333C400.135 517.333 399.335 516.4 397.868 515.333C396.535 514.266 396.001 513.466 396.668 513.466C397.468 513.466 399.068 514.133 400.268 515.2ZM297.335 516C296.268 516.666 294.801 517.333 294.001 517.333C293.335 517.333 293.602 516.666 294.668 516C295.735 515.333 297.335 514.666 298.001 514.666C298.801 514.666 298.401 515.333 297.335 516ZM372.001 516.133C372.001 516.533 373.601 516.666 375.735 516.4L379.335 515.866L376.001 518.666C373.201 521.2 372.668 521.333 371.201 519.466C370.401 518.266 369.468 517.733 369.068 518C368.668 518.4 367.735 518 366.935 516.933C365.735 515.6 366.135 515.2 368.668 515.2C370.535 515.2 372.001 515.6 372.001 516.133ZM414.001 516C413.601 516.666 414.001 517.333 414.935 517.333C416.268 517.333 416.268 517.6 414.801 518.533C413.868 519.2 413.335 520.266 413.735 520.8C414.135 521.466 413.068 522 411.335 522C409.601 522 408.535 521.466 409.068 520.8C409.468 520.133 408.668 520 407.335 520.533C405.335 521.2 405.201 521.066 406.668 519.333C408.135 517.6 408.668 517.6 409.468 518.933C410.401 520.266 410.935 520.266 412.268 518.933C413.468 517.733 413.468 517.333 412.001 517.333C410.268 517.333 410.268 517.066 412.001 516C414.535 514.4 415.068 514.4 414.001 516ZM289.335 518.666C289.335 519.333 288.268 520 287.068 520C285.068 520 284.935 519.733 286.668 518.666C289.202 517.066 289.335 517.066 289.335 518.666ZM453.868 524.666C451.602 528.133 445.335 532.666 447.335 529.2C448.001 528.266 447.602 526.933 446.268 526C444.401 524.666 444.535 524.266 446.935 522.8C449.335 521.333 449.602 521.333 448.935 522.933C448.535 524 449.068 524.933 450.001 524.933C451.068 524.933 451.735 524.266 451.602 523.466C451.468 522.666 452.135 522.133 453.068 522.266C453.868 522.533 454.801 521.333 454.801 519.6C454.935 517.6 455.201 517.333 455.602 518.933C455.868 520.133 455.201 522.8 453.868 524.666ZM261.868 522.533C261.601 522.933 260.268 522.133 258.935 520.8C256.801 518.533 256.801 518.4 259.601 520.133C261.201 521.066 262.268 522.133 261.868 522.533ZM425.335 519.866C425.335 520.533 426.401 520.8 427.868 520.4C430.801 519.6 432.801 522 430.135 523.066C427.335 524.133 422.668 522.533 422.668 520.533C422.668 519.466 423.335 518.666 424.001 518.666C424.801 518.666 425.335 519.2 425.335 519.866ZM420.001 521.333C420.001 522 419.335 522.666 418.535 522.666C417.868 522.666 417.601 522 418.001 521.333C418.401 520.533 419.068 520 419.468 520C419.735 520 420.001 520.533 420.001 521.333ZM380.001 522.666C377.335 524.4 375.601 524.4 376.668 522.666C377.068 521.866 378.535 521.333 379.735 521.333C381.735 521.333 381.735 521.6 380.001 522.666ZM404.801 522.933C405.335 523.733 405.201 524 404.401 523.6C403.601 523.066 401.868 523.6 400.535 524.666C398.535 526.133 398.401 526.533 400.001 526.666C401.735 526.666 401.735 526.8 400.001 528C398.935 528.666 397.468 529.333 396.668 529.333C396.001 529.333 396.268 528.666 397.335 528C398.935 526.933 398.935 526.666 396.668 526.666C394.668 526.533 395.068 526 398.668 524C404.268 520.933 403.601 521.066 404.801 522.933ZM393.468 530.4C392.535 530.666 391.068 530.266 390.401 529.6C389.335 528.533 389.868 528.4 392.135 528.933C393.868 529.466 394.535 530 393.468 530.4ZM389.735 531.2C391.068 532.266 393.468 532.8 395.068 532.533C397.868 532 397.868 532 395.335 533.2C393.468 534.133 394.801 534.4 400.535 534C407.468 533.6 408.001 533.733 405.868 535.333C403.735 536.933 404.401 536.933 409.868 535.333C416.668 533.2 420.001 533.733 414.535 535.866C412.135 536.8 413.468 537.066 420.001 536.666C426.668 536.4 427.868 536.533 425.335 537.6C419.868 539.733 400.268 538.133 391.735 534.666C387.468 533.066 384.401 531.066 384.801 530.533C385.735 528.933 386.935 529.066 389.735 531.2ZM443.335 530.666C443.735 531.466 443.201 531.6 442.135 531.2C439.735 530.266 439.335 529.333 441.201 529.333C442.001 529.333 442.935 529.866 443.335 530.666ZM440.001 532C441.068 532.666 441.468 533.333 440.668 533.333C440.001 533.333 438.401 532.666 437.335 532C436.268 531.333 436.001 530.666 436.668 530.666C437.468 530.666 438.935 531.333 440.001 532ZM423.335 534.666C422.935 535.333 421.468 536 420.268 536C418.268 536 418.268 535.733 420.001 534.666C422.668 532.933 424.401 532.933 423.335 534.666ZM270.401 567.2C278.535 569.866 288.001 578.266 288.001 582.933C288.001 585.733 287.735 585.733 285.468 582C282.135 576.533 279.068 574 272.001 570.933C253.201 562.933 227.201 565.066 211.335 576C208.001 578.266 205.335 579.466 205.335 578.666C205.335 575.066 221.601 567.466 234.668 564.933C241.335 563.6 263.468 565.066 270.401 567.2ZM429.068 568.933C427.735 569.2 425.335 569.2 423.735 568.933C422.001 568.666 423.068 568.4 426.001 568.4C428.935 568.266 430.268 568.533 429.068 568.933ZM240.401 575.6C239.468 575.866 237.868 575.866 237.068 575.6C236.135 575.2 236.801 574.933 238.668 574.933C240.535 574.933 241.201 575.2 240.401 575.6ZM225.335 579.333C216.935 582.533 213.468 583.333 214.935 582C216.135 580.8 229.868 576.133 232.001 576.133C233.068 576.133 230.135 577.6 225.335 579.333Z" fill="white"/>
<path d="M370.801 295.6C366.801 299.6 363.867 307.333 364.134 313.333C364.267 315.6 364.934 314.533 366.534 309.6C367.867 305.733 369.067 302.533 369.467 302.4C369.734 302.4 372.534 303.066 375.734 304C380.001 305.333 382.134 305.333 384.667 304.266C390.934 301.333 387.467 294.266 378.934 292.533C375.467 291.866 374.134 292.4 370.801 295.6ZM374.667 299.333C376.534 301.466 376.001 301.733 372.801 300.533C371.601 300.133 370.667 299.2 370.667 298.533C370.667 296.666 372.801 297.066 374.667 299.333ZM386.667 300C386.667 300.666 385.467 301.866 384.001 302.666C382.001 303.733 381.334 303.733 381.334 302.266C381.334 301.2 381.734 300 382.267 299.6C383.601 298.266 386.667 298.533 386.667 300Z" fill="white"/>
<path d="M308.67 308.267C307.203 309.067 304.403 311.2 302.27 313.067C297.87 317.333 299.336 318.667 308.67 318.667C313.47 318.667 314.803 319.067 313.336 320C312.27 320.667 308.536 320.933 305.07 320.533C292.536 318.8 288.403 322.8 292.536 332.667C295.203 338.933 296.403 338.267 294.403 331.733C292.003 323.6 293.336 322.133 303.07 322.933C307.603 323.333 312.136 323.467 312.936 323.067C313.87 322.8 316.536 319.733 318.803 316.267C322.67 310.533 322.803 310 320.536 308.4C317.603 306.267 312.27 306.267 308.67 308.267ZM320.67 310.667C321.07 311.333 320.803 312 320.136 312C319.336 312 318.67 311.333 318.67 310.667C318.67 309.867 318.936 309.333 319.203 309.333C319.603 309.333 320.27 309.867 320.67 310.667ZM311.203 312.8C312.403 316 312.403 316 307.07 316H302.003L305.336 313.333C309.47 310.133 310.136 310.133 311.203 312.8Z" fill="white"/>
<path d="M402.801 375.199C395.067 392.933 390.667 395.866 383.601 387.733L379.867 383.333L382.001 387.599C383.067 389.999 385.601 392.933 387.334 394.133C390.401 396.133 390.934 396.133 394.001 394.133C398.267 391.333 401.867 385.599 405.467 376.133C409.734 364.666 407.734 363.866 402.801 375.199Z" fill="white"/>
<path d="M407.334 377.333C406.801 378.133 407.468 380.266 408.668 382.133C410.801 385.466 411.068 385.6 422.401 384.666C428.801 384.133 434.268 383.466 434.534 383.2C436.134 381.733 432.668 380.933 426.934 381.2C423.468 381.333 418.534 381.6 416.001 381.733C412.401 382 411.068 381.333 409.868 378.933C408.934 376.933 408.001 376.266 407.334 377.333Z" fill="white"/>
<path d="M282.134 359.066C280.401 362.799 282.001 373.733 284.934 379.466C286.801 383.199 289.067 385.199 292.801 386.666C300.267 389.466 301.067 390.266 302.001 394.666C302.534 396.933 303.467 398.666 304.134 398.666C304.801 398.666 304.934 397.066 304.534 394.933C302.534 386.799 301.601 385.733 295.467 384.133C288.001 382.266 285.201 377.866 284.001 365.333C283.467 359.333 282.801 357.466 282.134 359.066Z" fill="white"/>
<path d="M270.669 354.667C269.469 355.467 269.335 356 270.269 356C271.069 356 272.269 355.333 272.669 354.667C273.735 353.067 273.202 353.067 270.669 354.667Z" fill="white"/>
<path d="M348.8 407.333C347.6 410.8 347.867 411.6 349.467 408.933C350.267 407.6 350.667 406.133 350.267 405.867C350 405.467 349.334 406.133 348.8 407.333Z" fill="white"/>
<path d="M368 406.133C368 408 368.4 408 370 406.667C371.067 405.733 372 404.8 372 404.533C372 404.267 371.067 404 370 404C368.933 404 368 404.933 368 406.133Z" fill="white"/>
<path d="M416.267 413.333C413.867 415.6 412.401 417.333 413.067 417.333C413.734 417.333 415.601 415.866 417.334 414C419.067 412.133 421.334 410.933 422.401 411.333C423.334 411.6 423.734 411.333 423.334 410.666C422.134 408.666 421.067 409.066 416.267 413.333Z" fill="white"/>
<path d="M414.536 455.466C401.736 468.8 380.269 482 362.003 488.133C359.069 489.066 357.603 490.133 358.803 490.266C361.736 490.933 377.469 484.933 388.003 479.066C398.269 473.466 410.936 463.466 417.203 455.866C423.336 448.4 421.736 448.133 414.536 455.466Z" fill="white"/>
<path d="M385.336 434.799C385.336 435.466 386.003 435.733 386.669 435.333C387.469 434.933 388.003 434.266 388.003 433.866C388.003 433.599 387.469 433.333 386.669 433.333C386.003 433.333 385.336 433.999 385.336 434.799Z" fill="white"/>
<path d="M416 441.333C416 441.999 416.667 442.666 417.467 442.666C418.133 442.666 418.4 441.999 418 441.333C417.6 440.533 416.933 439.999 416.533 439.999C416.267 439.999 416 440.533 416 441.333Z" fill="white"/>
<path d="M523.336 466.667C523.736 467.333 524.403 468 524.803 468C525.07 468 525.336 467.333 525.336 466.667C525.336 465.867 524.67 465.333 523.87 465.333C523.203 465.333 522.936 465.867 523.336 466.667Z" fill="white"/>
<path d="M456.001 483.867C456.001 484.933 455.068 485.2 453.335 484.667C451.735 484.133 450.668 484.4 450.668 485.333C450.668 486.133 451.335 486.4 452.001 486C452.801 485.6 453.335 485.867 453.335 486.667C453.335 487.467 454.001 487.733 454.668 487.333C455.468 486.933 456.001 487.333 456.001 488.267C456.001 489.333 456.668 488.933 457.468 487.6C458.535 485.733 458.535 484.667 457.468 483.6C456.401 482.533 456.001 482.533 456.001 483.867Z" fill="white"/>
<path d="M419.336 501.333C418.936 501.999 419.069 502.666 419.869 502.666C420.536 502.666 421.602 501.999 422.002 501.333C422.402 500.533 422.269 499.999 421.469 499.999C420.802 499.999 419.736 500.533 419.336 501.333Z" fill="white"/>
<path d="M442.001 496.8C443.201 498 444.535 498.533 445.068 498.133C445.468 497.6 445.068 496.667 444.001 496C440.801 494 439.601 494.533 442.001 496.8Z" fill="white"/>
<path d="M399.735 535.599C400.669 535.999 401.869 535.866 402.269 535.466C402.802 535.066 402.002 534.666 400.535 534.799C399.069 534.799 398.669 535.199 399.735 535.599Z" fill="white"/>
<path d="M221.067 89.6C223.467 92 223.067 106 220.533 108.533C214.933 114.133 209.333 107.867 209.333 96.1333C209.333 90.4 208.933 89.3333 206.933 89.3333C204.667 89.3333 204.533 90 205.733 98.2667C207.067 108.4 209.733 112 216 112C221.733 112 223.733 108.533 224.267 97.6C224.667 88.8 224.4 88 222.133 88C220 88 219.867 88.4 221.067 89.6Z" fill="white"/>
<path d="M231.069 95.3332C230.402 96.1332 230.136 99.1999 230.536 102.533C231.469 109.067 234.802 112.4 237.602 109.6C238.802 108.4 238.669 108 236.936 108C235.602 108 234.669 106.933 234.669 105.467C234.669 104 234.269 102 233.869 100.8C233.336 99.4665 234.002 98.2665 235.736 97.7332C238.536 96.6665 238.536 96.6665 235.469 95.1999C233.336 94.2665 232.136 94.2665 231.069 95.3332Z" fill="white"/>
<path d="M250.668 101.867C250.668 108.667 252.268 110.267 258.668 110C263.335 109.733 263.335 109.733 263.735 102.933C264.135 96.9332 263.735 95.9999 261.735 95.9999C259.735 95.9999 259.335 96.9332 259.868 102.133C260.268 107.867 260.135 108.133 257.201 107.733C254.401 107.333 254.001 106.667 254.401 101.6C254.668 97.3332 254.268 95.9999 252.668 95.9999C251.201 95.9999 250.668 97.4665 250.668 101.867Z" fill="white"/>
<path d="M271.067 96.9327C270.267 97.1993 269.867 98.666 270.267 99.9993C270.667 101.466 270.267 104.399 269.601 106.666C268.267 110.133 268.401 110.666 270.667 110.666C272.667 110.666 273.201 109.466 273.601 105.066C273.867 100.933 274.667 99.1993 276.401 98.9327C279.467 98.266 280.801 102.133 279.067 106.799C277.734 110.266 277.867 110.666 280.134 110.666C282.534 110.666 282.801 109.866 282.401 104.399C282.001 98.266 281.867 97.9993 277.201 97.3327C274.667 96.7993 271.867 96.666 271.067 96.9327Z" fill="white"/>
<path d="M289.2 97.5992C289.2 97.8659 288.933 100.799 288.533 104.399C287.866 111.333 287.866 111.333 296.4 112.533L301.333 113.199V105.866C301.333 100.266 300.933 98.6659 299.2 98.6659C297.733 98.6659 297.466 99.4659 298 101.199C299.333 105.333 297.333 110.666 294.533 110.666C292.4 110.666 292 109.599 292 104.799C292 101.466 291.466 98.3992 290.666 97.9992C290 97.5992 289.333 97.3326 289.2 97.5992Z" fill="white"/>
<path d="M308.8 100.933C308.4 101.466 308 103.333 308 105.2C308 107.066 307.467 109.6 306.667 110.666C305.867 111.866 306 112.933 307.067 113.6C309.867 115.466 310.667 114.8 310.667 110.266C310.667 104.666 312.4 102 315.333 103.2C317.6 104 317.6 105.066 315.733 113.333C315.467 114.4 316.4 115.466 317.867 115.733C319.2 116 320 115.733 319.467 114.933C319.067 114.266 319.333 111.733 320 109.2C320.933 106 320.933 104.266 319.6 103.2C317.733 101.333 310 99.733 308.8 100.933Z" fill="white"/>
<path d="M429.602 104C429.602 105.866 429.868 106.533 430.268 105.6C430.535 104.8 430.535 103.2 430.268 102.266C429.868 101.466 429.602 102.133 429.602 104Z" fill="white"/>
<path d="M324.535 104.4C326.802 106 326.935 106.933 325.735 111.866C324.402 116.666 324.535 117.333 326.668 117.333C328.535 117.333 328.935 116.133 328.802 110.266C328.668 103.866 328.402 103.333 325.335 102.933C322.135 102.533 322.135 102.533 324.535 104.4Z" fill="white"/>
<path d="M360.266 104.133C360.533 104.933 361.333 105.467 362 105.467C362.666 105.467 363.466 104.933 363.733 104.133C364 103.333 363.2 102.667 362 102.667C360.8 102.667 360 103.333 360.266 104.133Z" fill="white"/>
<path d="M345.735 108.933C343.335 109.866 343.602 113.333 346.135 116.133C349.202 119.599 347.069 122.133 343.735 119.066C341.735 117.333 341.069 117.199 341.602 118.533C342.402 121.333 346.002 123.199 348.535 122.266C351.202 121.199 351.335 115.599 348.669 113.333C347.069 111.999 346.935 111.199 348.002 110.133C349.069 109.066 349.735 109.199 350.669 110.666C351.335 111.733 352.269 112.133 352.935 111.599C354.935 109.466 349.335 107.466 345.735 108.933Z" fill="white"/>
<path d="M356.669 115.6C356.136 118.4 355.202 121.333 354.536 122.133C353.736 123.2 354.136 123.867 355.869 124.4C357.869 124.933 358.536 124.133 359.202 120C359.602 117.2 360.402 114 360.802 112.8C361.336 111.467 360.936 110.667 359.602 110.667C358.402 110.667 357.336 112.533 356.669 115.6Z" fill="white"/>
<path d="M365.2 120C363.467 125.6 363.467 126.666 365.067 127.333C367.867 128.4 368 128.266 368 125.2C368 121.466 370.4 117.333 372.667 117.333C375.733 117.333 376.133 119.6 374.133 124.533C373.067 127.066 372.533 129.466 373.067 129.866C374.533 131.466 376.8 130.533 376.933 128.266C376.933 127.066 377.467 124 378 121.733C378.8 118 378.533 117.2 375.867 116.266C367.333 113.066 367.467 112.933 365.2 120Z" fill="white"/>
<path d="M386.003 119.733C384.536 120.799 383.87 123.599 383.603 129.999C383.336 132.933 384.003 133.999 386.003 134.399C388.003 134.666 388.27 134.533 386.803 133.599C385.336 132.533 385.336 131.466 386.67 127.466C387.47 124.799 389.07 122.666 390.136 122.666C392.003 122.666 392.003 122.399 390.136 120.666C387.87 118.399 387.87 118.399 386.003 119.733Z" fill="white"/>
<path d="M428.535 134.666C428.535 141.6 428.668 144.533 428.935 140.933C429.202 137.466 429.202 131.866 428.935 128.266C428.668 124.8 428.535 127.733 428.535 134.666Z" fill="white"/>
<path d="M444.936 140.933C443.336 142.533 444.003 143.866 446.003 143.199C447.07 142.666 448.003 141.866 448.003 141.199C448.003 139.733 446.136 139.599 444.936 140.933Z" fill="white"/>
<path d="M447.069 145.6C443.203 148.4 437.336 157.066 437.336 159.866C437.336 160.666 438.269 161.333 439.469 161.333C440.536 161.333 441.203 160.8 440.803 160.133C439.336 157.866 446.669 146.933 450.269 145.733C452.269 145.066 453.203 144.133 452.536 143.6C451.736 143.2 449.336 144.133 447.069 145.6Z" fill="white"/>
<path d="M449.867 152.666C450.267 153.733 449.733 157.066 448.667 160.133C447.467 163.199 446.933 165.999 447.2 166.399C448.133 167.199 461.333 159.733 461.333 158.399C461.333 156.533 459.867 157.199 455.733 160.666C450.667 164.933 448.933 163.866 451.467 157.999C453.733 152.266 453.733 152.399 451.2 151.466C449.6 150.933 449.2 151.199 449.867 152.666Z" fill="white"/>
<path d="M460 165.333C456.267 169.067 456.534 174.4 460.534 176C462.267 176.667 464.134 177.867 464.667 178.533C465.067 179.333 466.134 180 466.934 180C467.867 180 467.734 179.333 466.8 178.133C465.467 176.667 466.134 175.467 470.134 172.533C473.334 170 474.4 168.533 473.2 168.133C472.134 167.867 470.534 166.533 469.6 165.067C467.334 161.867 463.334 162 460 165.333ZM468.534 166C470 170 465.867 174.667 460.8 174.667C457.734 174.667 458.267 171.6 462 167.467C465.6 163.467 467.334 163.067 468.534 166Z" fill="white"/>
<path d="M495.736 174.266C497.869 175.066 497.736 177.066 495.336 179.6C494.136 180.666 493.602 182 494.002 182.4C494.402 182.8 495.469 182.4 496.269 181.6C497.202 180.666 498.936 180 500.402 180C502.669 180 502.669 179.866 500.802 177.866C499.602 176.8 498.669 175.2 498.669 174.533C498.669 173.866 497.602 173.333 496.402 173.466C494.936 173.466 494.669 173.866 495.736 174.266Z" fill="white"/>
<path d="M479.333 183.333C477.467 185.066 476 187.066 476 187.866C476 188.533 478 191.333 480.533 193.999C486 199.733 489.733 199.866 493.733 194.533C495.6 191.866 496 190.399 495.067 188.666C493.867 186.666 493.6 186.933 492.933 190.399C492.133 194.533 487.733 198.133 485.333 196.666C483.067 195.199 483.867 192.399 487.333 190.133C489.2 188.933 490.4 187.199 489.867 186.533C489.333 185.599 487.6 186.533 485.467 188.533C481.2 192.666 478.667 192.933 478.667 189.599C478.667 186.266 482.8 182.666 486.533 182.666C488.133 182.666 489.067 182.133 488.667 181.333C487.2 178.933 482.667 179.866 479.333 183.333Z" fill="white"/>
<path d="M497.733 197.467C491.6 199.733 490.666 207.867 496.133 210.8C499.866 212.667 503.866 211.067 504.8 207.2C505.6 204 505.733 204 508.133 206.133C511.466 209.2 511.333 207.333 507.866 202.533C504.4 197.6 501.333 196 497.733 197.467ZM502.666 200C505.866 202 502.8 208.533 498.266 209.067C494.666 209.467 494 208.533 494.666 204C494.8 202.133 498.266 198.667 499.866 198.667C500.266 198.667 501.6 199.2 502.666 200Z" fill="white"/>
<path d="M510.535 211.999C509.468 213.199 507.068 215.199 505.468 216.266C502.401 218.399 502.268 222.666 505.201 222.666C506.001 222.666 506.268 221.866 505.868 220.799C505.468 219.733 507.068 217.866 509.868 215.999C512.535 214.399 514.668 212.666 514.668 211.999C514.668 209.733 512.668 209.733 510.535 211.999Z" fill="white"/>
<path d="M515.733 219.733C514.4 221.733 512.4 224.666 511.2 226.266L509.066 229.333H515.466C521.866 229.333 526.666 227.6 525.066 226C524.666 225.466 522.933 225.866 521.333 226.666C519.866 227.466 517.333 228 515.733 227.733C513.066 227.333 513.066 227.2 516.666 222.933C518.8 220.266 519.866 218 519.2 217.333C518.533 216.666 517.066 217.6 515.733 219.733Z" fill="white"/>
<path d="M535.601 236.933C535.068 237.733 535.601 238.8 536.801 239.2C538.401 239.867 538.668 240.933 538.001 243.6C537.335 246.667 537.468 246.933 539.201 245.467C541.868 243.2 541.868 242.267 538.935 238.533C537.335 236.8 536.135 236.133 535.601 236.933Z" fill="white"/>
<path d="M527.335 241.333C526.935 242 525.068 242.666 523.202 242.666C521.335 242.666 519.602 243.6 519.068 244.8C518.002 247.733 520.935 253.333 523.602 253.333C525.602 253.333 525.468 252.8 522.802 250.8C519.468 248.266 520.002 245.333 523.868 245.333C525.068 245.333 526.802 244.666 527.602 243.866C530.002 241.466 533.735 243.466 532.668 246.666C532.135 248.133 532.402 249.333 533.202 249.333C535.335 249.333 534.935 244.533 532.535 242.133C530.135 239.733 528.535 239.466 527.335 241.333Z" fill="white"/>
<path d="M530.135 257.333C527.335 260.133 525.602 262.667 526.135 263.067C528.402 264.4 539.335 264.667 539.602 263.333C539.869 262.667 537.469 262.267 534.269 262.4L528.669 262.667L533.069 258.933C535.335 256.8 537.335 254.4 537.335 253.6C537.335 251.067 535.735 252 530.135 257.333Z" fill="white"/>
<path d="M476.667 576.8C457.067 581.466 447.333 585.733 435.6 594.533C431.467 597.733 428 600.533 428 600.8C428 600.933 433.2 598.8 439.733 596C456.267 588.666 468.267 586.133 483.867 586.933C494.933 587.6 499.467 588.533 516.667 594.666C543.2 603.866 549.2 605.333 562.667 605.333C583.333 605.333 601.067 599.6 612.533 589.066L618 584L608 588.666C595.867 594.266 587.333 596 571.867 596C557.6 596 549.6 594.266 521.6 584.666C504.667 578.933 497.467 577.066 489.6 576.666C484 576.4 478.133 576.4 476.667 576.8Z" fill="white"/>
<path d="M313.067 595.333C307.6 596.8 284.267 607.867 280.667 610.667C280 611.333 277.2 612.4 274.667 613.067L270 614.4L276.133 614.533C279.6 614.667 289.467 612.8 298.133 610.533C321.2 604.533 331.733 604.667 367.067 611.467C384.133 614.667 398.933 615.733 396.533 613.467C394.133 611.2 361.867 598.933 350.667 596.133C338 592.933 322.8 592.667 313.067 595.333Z" fill="white"/>
<path d="M233.335 624.666C225.601 626.266 214.535 628.933 208.668 630.666C202.801 632.266 194.001 633.6 188.934 633.733C181.734 634 180.401 634.266 182.134 635.6C188.401 640.266 210.001 640.4 233.201 636C243.468 634.133 259.868 634.4 275.335 636.666C315.201 642.8 324.401 644 325.068 643.333C326.801 641.6 294.001 628.8 280.001 625.733C258.801 621.2 250.135 621.066 233.335 624.666Z" fill="white"/>
<path d="M398.668 623.6C389.201 625.067 377.601 629.067 360.535 636.8C358.268 637.733 354.935 639.2 353.201 640C348.135 642.267 363.601 640.8 383.201 637.2L400.001 634.133L427.068 638.533C457.068 643.6 464.001 643.467 475.335 638L482.001 634.933L472.001 634.8C461.601 634.667 453.468 633.067 432.001 627.333C420.001 624 405.868 622.533 398.668 623.6Z" fill="white"/>
</svg>
